<mxfile host="app.diagrams.net" modified="2023-11-21T16:07:27.403Z" agent="Mozilla/5.0 (Macintosh; Intel Mac OS X 10_15_7) AppleWebKit/537.36 (KHTML, like Gecko) Chrome/118.0.0.0 Safari/537.36" etag="myEiPqseS4GpN98DiZs6" version="21.3.2" type="github">
  <diagram name="PÃ¡gina-1" id="FR47XS7LcozbWAGAgjmf">
    <mxGraphModel dx="1028" dy="2066" grid="1" gridSize="10" guides="1" tooltips="1" connect="1" arrows="1" fold="1" page="1" pageScale="1" pageWidth="827" pageHeight="1169" math="0" shadow="0">
      <root>
        <mxCell id="0" />
        <mxCell id="1" parent="0" />
        <mxCell id="A-N_aQ1E-9cqWO8VtPDo-1" value="" style="html=1;whiteSpace=wrap;shape=isoCube2;backgroundOutline=1;isoAngle=15;fillColor=#000033;strokeColor=#000033;fontColor=#ffffff;" vertex="1" parent="1">
          <mxGeometry x="748.64" y="-710" width="90" height="100" as="geometry" />
        </mxCell>
        <mxCell id="A-N_aQ1E-9cqWO8VtPDo-3" value="HDL" style="text;strokeColor=none;fillColor=none;html=1;fontSize=24;fontStyle=1;verticalAlign=middle;align=center;" vertex="1" parent="1">
          <mxGeometry x="743.64" y="-760" width="100" height="40" as="geometry" />
        </mxCell>
        <mxCell id="A-N_aQ1E-9cqWO8VtPDo-75" style="edgeStyle=orthogonalEdgeStyle;rounded=0;orthogonalLoop=1;jettySize=auto;html=1;" edge="1" parent="1" source="A-N_aQ1E-9cqWO8VtPDo-4" target="A-N_aQ1E-9cqWO8VtPDo-38">
          <mxGeometry relative="1" as="geometry" />
        </mxCell>
        <mxCell id="A-N_aQ1E-9cqWO8VtPDo-4" value="" style="shape=image;verticalLabelPosition=bottom;labelBackgroundColor=default;verticalAlign=top;aspect=fixed;imageAspect=0;image=https://static-00.iconduck.com/assets.00/twilio-icon-2048x2048-89b6cmo4.png;" vertex="1" parent="1">
          <mxGeometry x="45" y="282.1" width="70" height="70" as="geometry" />
        </mxCell>
        <mxCell id="A-N_aQ1E-9cqWO8VtPDo-5" value="Twilio" style="text;strokeColor=none;fillColor=none;html=1;fontSize=24;fontStyle=1;verticalAlign=middle;align=center;" vertex="1" parent="1">
          <mxGeometry x="30" y="227.10000000000002" width="100" height="40" as="geometry" />
        </mxCell>
        <mxCell id="A-N_aQ1E-9cqWO8VtPDo-60" style="edgeStyle=orthogonalEdgeStyle;rounded=0;orthogonalLoop=1;jettySize=auto;html=1;" edge="1" parent="1" source="A-N_aQ1E-9cqWO8VtPDo-7">
          <mxGeometry relative="1" as="geometry">
            <mxPoint x="610" y="-145" as="targetPoint" />
          </mxGeometry>
        </mxCell>
        <mxCell id="A-N_aQ1E-9cqWO8VtPDo-7" value="" style="shape=image;verticalLabelPosition=bottom;labelBackgroundColor=default;verticalAlign=top;aspect=fixed;imageAspect=0;image=https://res.cloudinary.com/apideck/image/upload/v1603878943/icons/twilio-flex.png;" vertex="1" parent="1">
          <mxGeometry x="400" y="-180" width="70.27" height="70" as="geometry" />
        </mxCell>
        <mxCell id="A-N_aQ1E-9cqWO8VtPDo-8" value="Flex" style="text;strokeColor=none;fillColor=none;html=1;fontSize=24;fontStyle=1;verticalAlign=middle;align=center;" vertex="1" parent="1">
          <mxGeometry x="385.14" y="-235" width="100" height="40" as="geometry" />
        </mxCell>
        <mxCell id="A-N_aQ1E-9cqWO8VtPDo-55" style="edgeStyle=orthogonalEdgeStyle;rounded=0;orthogonalLoop=1;jettySize=auto;html=1;" edge="1" parent="1" source="A-N_aQ1E-9cqWO8VtPDo-9" target="A-N_aQ1E-9cqWO8VtPDo-44">
          <mxGeometry relative="1" as="geometry">
            <Array as="points">
              <mxPoint x="1480" y="-150.25" />
              <mxPoint x="1480" y="-497.0999999999999" />
            </Array>
          </mxGeometry>
        </mxCell>
        <mxCell id="A-N_aQ1E-9cqWO8VtPDo-9" value="" style="outlineConnect=0;dashed=0;verticalLabelPosition=bottom;verticalAlign=top;align=center;html=1;shape=mxgraph.aws3.sqs;fillColor=#D9A741;gradientColor=none;" vertex="1" parent="1">
          <mxGeometry x="1551.75" y="-59.75" width="76.5" height="93" as="geometry" />
        </mxCell>
        <mxCell id="A-N_aQ1E-9cqWO8VtPDo-10" value="SQS" style="text;strokeColor=none;fillColor=none;html=1;fontSize=24;fontStyle=1;verticalAlign=middle;align=center;" vertex="1" parent="1">
          <mxGeometry x="1540" y="-97.5" width="100" height="40" as="geometry" />
        </mxCell>
        <mxCell id="A-N_aQ1E-9cqWO8VtPDo-11" value="" style="html=1;whiteSpace=wrap;shape=isoCube2;backgroundOutline=1;isoAngle=15;fillColor=#000033;strokeColor=#000033;fontColor=#ffffff;" vertex="1" parent="1">
          <mxGeometry x="456.14" y="260" width="90" height="100" as="geometry" />
        </mxCell>
        <mxCell id="A-N_aQ1E-9cqWO8VtPDo-77" style="edgeStyle=orthogonalEdgeStyle;rounded=0;orthogonalLoop=1;jettySize=auto;html=1;entryX=0.25;entryY=1;entryDx=0;entryDy=0;" edge="1" parent="1" source="A-N_aQ1E-9cqWO8VtPDo-78" target="A-N_aQ1E-9cqWO8VtPDo-7">
          <mxGeometry relative="1" as="geometry" />
        </mxCell>
        <mxCell id="A-N_aQ1E-9cqWO8VtPDo-12" value="Plugin&lt;br&gt;Twilio" style="text;strokeColor=none;fillColor=none;html=1;fontSize=24;fontStyle=1;verticalAlign=middle;align=center;" vertex="1" parent="1">
          <mxGeometry x="450" y="200" width="100" height="40" as="geometry" />
        </mxCell>
        <mxCell id="A-N_aQ1E-9cqWO8VtPDo-14" value="" style="shape=image;verticalLabelPosition=bottom;labelBackgroundColor=default;verticalAlign=top;aspect=fixed;imageAspect=0;image=https://static-00.iconduck.com/assets.00/twilio-icon-2048x2048-89b6cmo4.png;" vertex="1" parent="1">
          <mxGeometry x="473.64" y="282.5" width="55" height="55" as="geometry" />
        </mxCell>
        <mxCell id="A-N_aQ1E-9cqWO8VtPDo-43" style="edgeStyle=orthogonalEdgeStyle;rounded=0;orthogonalLoop=1;jettySize=auto;html=1;entryX=0.5;entryY=0;entryDx=0;entryDy=0;" edge="1" parent="1" target="A-N_aQ1E-9cqWO8VtPDo-80">
          <mxGeometry relative="1" as="geometry">
            <mxPoint x="793.6999999999998" y="-644" as="sourcePoint" />
            <mxPoint x="793" y="-559" as="targetPoint" />
          </mxGeometry>
        </mxCell>
        <mxCell id="A-N_aQ1E-9cqWO8VtPDo-18" value="" style="shape=image;verticalLabelPosition=bottom;labelBackgroundColor=default;verticalAlign=top;aspect=fixed;imageAspect=0;image=data:image/png,iVBORw0KGgoAAAANSUhEUgAAAnYAAAFGCAYAAADnxtLJAAAMP2lDQ1BJQ0MgUHJvZmlsZQAASImVVwdYU8kWnltSIbQAAlJCb4JIDSAlhBZ6RxCVkAQIJcZAULGjiwquXSxgQ1dFFKyAWFDEzqLY+2JBRVkXC3blTQrouq98b75v7vz3nzP/OXPuzL13AFA/zhWL81ANAPJFhZK4kADGmJRUBukpIAJ9oAXIgMzlFYhZMTERAJbB9u/l3XWAyNorDjKtf/b/16LJFxTwAEBiIM7gF/DyIT4AAF7FE0sKASDKePPJhWIZhhVoS2CAEC+Q4SwFrpLhDAXeI7dJiGND3AYAWZXLlWQBoHYJ8owiXhbUUOuD2EnEF4oAUGdA7JufP5EPcTrENtBGDLFMn5nxg07W3zQzhjS53KwhrJiLvJADhQXiPO7U/zMd/7vk50kHfVjBqpotCY2TzRnm7WbuxHAZVoW4V5QRFQ2xFsQfhHy5PcQoNVsamqiwRw15BWyYM6ALsROfGxgOsSHEwaK8qAgln5EpDOZADFcIOkVYyEmAWA/iBYKCoHilzSbJxDilL7QhU8JmKfmzXIncr8zXfWluIkup/zpbwFHqY2rF2QnJEFMhtigSJkVBrAaxY0FufLjSZnRxNjtq0EYijZPFbwFxnEAUEqDQx4oyJcFxSvuy/ILB+WKbsoWcKCXeV5idEKrID9bG48rjh3PBLglErMRBHUHBmIjBufAFgUGKuWPPBKLEeKXOB3FhQJxiLE4V58Uo7XEzQV6IjDeD2LWgKF45Fk8qhAtSoY9nigtjEhRx4sU53LAYRTz4UhAB2CAQMIAU1gwwEeQAYUdvYy+8U/QEAy6QgCwgAA5KZnBEsrxHBK/xoBj8CZEAFAyNC5D3CkAR5L8OsYqrA8iU9xbJR+SCJxDng3CQB++l8lGiIW9J4DFkhP/wzoWVB+PNg1XW/+/5QfY7w4JMhJKRDnpkqA9aEoOIgcRQYjDRFjfAfXFvPAJe/WF1xpm45+A8vtsTnhA6CQ8J1whdhFsThCWSn6KMBF1QP1iZi4wfc4FbQU03PAD3gepQGdfFDYAD7gr9sHA/6NkNsmxl3LKsMH7S/tsMfngaSjuKEwWlDKP4U2x+Hqlmp+Y2pCLL9Y/5UcSaMZRv9lDPz/7ZP2SfD9vwny2xBdh+7Ax2AjuHHcEaAQNrwZqwduyoDA+trsfy1TXoLU4eTy7UEf7D3+CTlWWywKnWqcfpi6KvUDBF9o4G7IniqRJhVnYhgwW/CAIGR8RzHMFwdnJ2AUD2fVG8vt7Eyr8biG77d27uHwD4tAwMDBz+zoW1ALDXA27/Q985Gyb8dKgAcPYQTyopUnC47EKAbwl1uNP0gTEwBzZwPs7AHXgDfxAEwkA0SAApYDyMPhuucwmYDKaDOaAUlIOlYBVYBzaCLWAH2A32gUZwBJwAp8EFcAlcA3fg6ukGL0AfeAc+IwhCQmgIHdFHTBBLxB5xRpiILxKERCBxSAqSjmQhIkSKTEfmIuXIcmQdshmpQfYih5ATyDmkE7mFPEB6kNfIJxRDVVFt1Ai1QkeiTJSFhqMJ6Dg0C52EFqPz0MXoGrQa3YU2oCfQC+g1tAt9gfZjAFPBdDFTzAFjYmwsGkvFMjEJNhMrwyqwaqwOa4bP+QrWhfViH3EiTscZuANcwaF4Is7DJ+Ez8UX4OnwH3oC34VfwB3gf/o1AIxgS7AleBA5hDCGLMJlQSqggbCMcJJyCe6mb8I5IJOoSrYkecC+mEHOI04iLiOuJ9cTjxE7iI2I/iUTSJ9mTfEjRJC6pkFRKWkvaRWohXSZ1kz6QVcgmZGdyMDmVLCKXkCvIO8nHyJfJT8mfKRoUS4oXJZrCp0ylLKFspTRTLlK6KZ+pmlRrqg81gZpDnUNdQ62jnqLepb5RUVExU/FUiVURqsxWWaOyR+WsygOVj6paqnaqbNU0VanqYtXtqsdVb6m+odFoVjR/WiqtkLaYVkM7SbtP+6BGV3NU46jx1WapVao1qF1We6lOUbdUZ6mPVy9Wr1Dfr35RvVeDomGlwdbgaszUqNQ4pHFDo1+TrjlKM1ozX3OR5k7Nc5rPtEhaVlpBWnyteVpbtE5qPaJjdHM6m86jz6VvpZ+id2sTta21Odo52uXau7U7tPt0tHRcdZJ0puhU6hzV6dLFdK10Obp5ukt09+le1/00zGgYa5hg2MJhdcMuD3uvN1zPX0+gV6ZXr3dN75M+Qz9IP1d/mX6j/j0D3MDOINZgssEGg1MGvcO1h3sP5w0vG75v+G1D1NDOMM5wmuEWw3bDfiNjoxAjsdFao5NGvca6xv7GOcYrjY8Z95jQTXxNhCYrTVpMnjN0GCxGHmMNo43RZ2poGmoqNd1s2mH62czaLNGsxKze7J451Zxpnmm+0rzVvM/CxCLSYrpFrcVtS4ol0zLbcrXlGcv3VtZWyVbzrRqtnlnrWXOsi61rre/a0Gz8bCbZVNtctSXaMm1zbdfbXrJD7dzssu0q7S7ao/bu9kL79fadIwgjPEeIRlSPuOGg6sByKHKodXjgqOsY4Vji2Oj4cqTFyNSRy0aeGfnNyc0pz2mr051RWqPCRpWMah712tnOmedc6XzVheYS7DLLpcnllau9q8B1g+tNN7pbpNt8t1a3r+4e7hL3OvceDwuPdI8qjxtMbWYMcxHzrCfBM8BzlucRz49e7l6FXvu8/vJ28M713un9bLT1aMHoraMf+Zj5cH02+3T5MnzTfTf5dvmZ+nH9qv0e+pv78/23+T9l2bJyWLtYLwOcAiQBBwPes73YM9jHA7HAkMCywI4graDEoHVB94PNgrOCa4P7QtxCpoUcDyWEhocuC73BMeLwODWcvjCPsBlhbeGq4fHh68IfRthFSCKaI9HIsMgVkXejLKNEUY3RIJoTvSL6Xox1zKSYw7HE2JjYytgncaPipsediafHT4jfGf8uISBhScKdRJtEaWJrknpSWlJN0vvkwOTlyV1jRo6ZMeZCikGKMKUplZSalLottX9s0NhVY7vT3NJK066Psx43Zdy58Qbj88YfnaA+gTthfzohPTl9Z/oXbjS3mtufwcmoyujjsXmreS/4/vyV/B6Bj2C54GmmT+byzGdZPlkrsnqy/bIrsnuFbOE64auc0JyNOe9zo3O35w7kJefV55Pz0/MPibREuaK2icYTp0zsFNuLS8Vdk7wmrZrUJwmXbCtACsYVNBVqwx/5dqmN9BfpgyLfosqiD5OTJu+fojlFNKV9qt3UhVOfFgcX/zYNn8ab1jrddPqc6Q9msGZsnonMzJjZOst81rxZ3bNDZu+YQ52TO+f3EqeS5SVv5ybPbZ5nNG/2vEe/hPxSW6pWKim9Md97/sYF+ALhgo6FLgvXLvxWxi87X+5UXlH+ZRFv0flfR/265teBxZmLO5a4L9mwlLhUtPT6Mr9lO5ZrLi9e/mhF5IqGlYyVZSvfrpqw6lyFa8XG1dTV0tVdayLWNK21WLt07Zd12euuVQZU1lcZVi2ser+ev/7yBv8NdRuNNpZv/LRJuOnm5pDNDdVW1RVbiFuKtjzZmrT1zG/M32q2GWwr3/Z1u2h71464HW01HjU1Ow13LqlFa6W1PbvSdl3aHbi7qc6hbnO9bn35HrBHuuf53vS91/eF72vdz9xfd8DyQNVB+sGyBqRhakNfY3ZjV1NKU+ehsEOtzd7NBw87Ht5+xPRI5VGdo0uOUY/NOzbQUtzSf1x8vPdE1olHrRNa75wcc/JqW2xbx6nwU2dPB58+eYZ1puWsz9kj57zOHTrPPN94wf1CQ7tb+8Hf3X4/2OHe0XDR42LTJc9LzZ2jO49d9rt84krgldNXOVcvXIu61nk98frNG2k3um7ybz67lXfr1e2i25/vzL5LuFt2T+NexX3D+9V/2P5R3+XedfRB4IP2h/EP7zziPXrxuODxl+55T2hPKp6aPK155vzsSE9wz6XnY593vxC/+Nxb+qfmn1UvbV4e+Mv/r/a+MX3drySvBl4veqP/Zvtb17et/TH999/lv/v8vuyD/ocdH5kfz3xK/vT08+QvpC9rvtp+bf4W/u3uQP7AgJgr4cp/BTBY0cxMAF5vB4CWAgAdns+oYxXnP3lBFGdWOQL/CSvOiPLiDkAd/H+P7YV/NzcA2LMVHr+gvnoaADE0ABI8AeriMlQHz2ryc6WsEOE5YBPna0Z+Bvg3RXHm/CHun1sgU3UFP7f/AmmufERP/utEAAAAOGVYSWZNTQAqAAAACAABh2kABAAAAAEAAAAaAAAAAAACoAIABAAAAAEAAAJ2oAMABAAAAAEAAAFGAAAAALqXMYMAAEAASURBVHgB7Z0JnBXVlf/rvSeCQksEBcGtm9FANyAa4zg6GiUxRo0ZGlAz6kg3IFvP38wC/OefqHQ3YjIztM6SGVAQBJJoNMoSYxzJ4hJNjDHjSjdEY3dAQVFwARSEfvWvAxa8fv1erbfqnnvv730+0O9V3eXc77l16tw9Y+EDAikSWLNmzeDi7DZv3tyy9e23ry6+Xu531ZAhE/v27bu28P6YMWM2F/7GdxAAARAIS6DYPr3w/PNvhkmjlG2i+LBPYSgibFwCmbgJIL7ZBFxD6BrAwYMHW9dPmcIGytzm5v2yDBg48F5HtlkwsGxUA0FAIBUCro169dVXX9q1c2d/bjbq5ptusnr06GG5NoqgwE6lUjW0zQSOnbaqFVewFStW1Le//vrd3AyiiBKS49e7T59tp5566mkwpiKIIg0QkEOAHDhqYO7du9e6Zd48OUIklCvsVEJgkSwI6E5g4cKF99x04402Prbd3NRkk0Oru85RPhBQkQBs1QErvX79etgqFStwwjKjxy5hwByTp5YtDUu8/957/XVr2SbJm1rNp59xxvHo2UuSMtIGga4EqIH1hw0b7oat6srF6xfZKprvN2HChGVe4XAPBEBAUQJkGKkHCh+xBIipO39H0aoBsUGAHQGyVxg5EGurqGevpaXlXXbKhkAgAALBCMAwijWKQVKD4QxWNxEKBEoRQMMziJURGwYN01I1EddAgBEBGEaxRi9uatTjwKh6QBQQYEWAGp+LFy2K+5ghviAC1DCleYusKgmEAQHTCMAwCrJoKSQDJ8+0pxPlLUWAbBY5EPjwJ0A2C9NMStViNa5h8YQaetovJbWoRo8effXQoUMVkhqiFhKgPavm3XornrtCKPiuLQFy5vbs3n03p70ttYWdUMHuWrzY6tmrFxZiJMQXyRpIgJw5tHL5t3CjSIjJzAY+0IYUGYsfolgE/nFo+JycdUOqMYoJAuIIwJnjb+BESkjGUlztQUogIIcA2S2RzwXS4k0AU0zkPGfIVTECmEzM25ClIR29HBWrthDXcAJYuJWGZeCdB0YfeBkBzPWRrA96kU+fPv1qyWIge2YEaIPRxqYmPJ/M9AJxDhBYtWpV5bvvvNOOuXOoEYUEaD7eMcceWzV27NiOwuv4DgJGEEDvHO8WKBfpqDfEiAcChVSCADl0XJ4NyMGbAHrxlHikIWRcAjTplPejCOm4EsB8lrhPH+LHIQCHjqtl4C8X5hDHefKixcVQTzRuoWJhuDUULgT2IEBDHVOmTsVz68EIt8QRIIeutra2XVyKSMlUAhs2bLDa2towTGtqBdCl3JhUzL81qaqEGKLVxUrwLQe2WVLVOvCXG4vE+D73kKwMATh0/A2LLhLCQJZ5CHE5MgHsQaeLdeBfDtivyI8pIqZFAA4df0Oiq4Q0ZJZWPUc+ehKgye66Ph8oF28CcPDE2hTM1RHAkxy6OY2NAlJCEiAQnQDNYRk2bBie6egIjYyJeXRGqp1loe+44457Z8yYcQ1L4RQSKquQrOxEdXvo4NSxU42RAtEZwtQuxzYDRqo/UqFp2BWLIyKhQ6QECNCermTDMAIRDy5a9xH4LVu2bGpdXd2dEaIiCgikRiDjfFLLDBkpRQA2TCl1GSssbFg01aPHLiQ3ak3AqQsJDcGlEKC6it47KehZZ0qrXWHDWKsIwn1KgGwY9vAMXx3g2AVk5p4UETA4goEACwIzZ87sT8aRhTAQQioB6qWjukBD9viAgCoEbpk3b/8UEyywCK4xOHY+rNyVYjgT0QcUbrMmQC90erGzFhLCJUaAej3QS5cYXiScAgHMvwsOGXNwPFjRy9DjNm6BgHIEbr7pJmverbfiuVdOc9EFhh2Lzg4xeRKAHfPWC3rsSvBxV7uWuIVLIKA0AXdYQ+lCQPhABBYsWPAgnLpAqBBIMQKuHcPq2dKKQ8u9iAsMYREQ/NSWgDNnZWVDQ8N4bQtocMFoTjCmjxhcAQwqOvbv7K5s9Nh9ysQ9Rqc7IlwBAT0JOBuBjiMHQM/SmVsqapzCqTNX/6aV3N2/E3OID2kePXYOC/TSHaoQ+GYeAbR49dE5bJk+ukRJwhO4a/Fia8rUqcb7NUb32LkrXsNXH8QAAX0IuC1efUpkXklorhGcOvP0jhJ3JUA91XgOLMtYx4426aQ9vrpWC/wCAXMJwCCqqXtaJIFjwdTUHaROhgDZMpM3ZzeuyxIHXifzICFVfQjgGB91dEkr+HFWtTr6gqTpEzDRnhnVY0dGEC3b9B8s5KgWAWrtUi+QWlKbJy0tfIFTZ57eUeJwBMiembYtSi4cInVD09Dr+PHY2UFdDULyNAmcddZZ1QMHDjzt4Ycfvj/NfJFXMALYziQYJ4QCASIwbNiwv6+oqLhh7dq1/2oCESOGYsljN0GZKCMIiCaAve5EE42fHpy6+AyRgpkETFk1q/VQrHvotZlVGKUGgfgEaK87DMvG5ygqBTh1okgiHRMJmLJqVtseO1oRg1WvJj66KHMSBNBzlwTVcGnCqQvHC6FBwIuAzosqtOyxIwMIp86rSuMeCIQjQD132Nk9HDORoeHUiaSJtEDgwMEEuo5GaNdjh/l0eGRBIDkCOrdyk6MWL+UmZzV/Y2NjvEQQGwRAoCQBHUcjtHLs4NSVrLe4CAJCCcC5E4rTMzHqUaDeUs9AuAkCIBCLgG6LKrRx7ODUxarXiAwCoQjAuQuFK3Jg2LXI6BARBEIR0Mm508Kxg/ELVX8RGARiE9iwYQPtDaWF/YgNI6EEYNcSAotkQcCDgA6NVuUXT8D4edRQ3AKBhAgMHTrUogn9CSVvfLKwa8ZXAQCQRECHZ09px04HBUiqu8gWBGIToD2hdF1VFhtOjARg12LAQ1QQEEBA9WdQWcdOdfAC6h6SAAHpBLANilgV0NGHYlNEaiAAAlEIqOxjKDlHRmXgUSoY4oAAdwI6zEuRzRh2TbYGkD8IdCegom1TzrGD8ete8XAFBDgQUNEAcuBGMsCucdEE5ACB7gRUs21KDcXC+HWvcLgCAlwI4PkMrwmaowhu4bkhBgikSUC1Z1QZx041sGlWOuQFAlwI0HOKo8eCaeOmG2+0sflwMFYIBQKyCajkgygxFKsSUNmVD/mDAAcCOh7TI5IrbJpImkgLBNIhoMr+nex77GAA06mwyAUERBKgnijqkRKZpg5pUW8mbJoOmkQZTCSgyv6drHvsYABNfHRQZt0IqDbxOCn+tKEz7f2HDwiAgNoEmpubraamJrb+E9seO+znpHbFh/Qg4BKgBtqqVasq3d+m/aWyEwM4daZpHuXVlUBjYyPrzdlZOnbUsqUuT3xAAAT0IFBbW9ve3NRk3NAsDUdT2fXQIkoBAiDgEuC8OTu7rsT58+fvmDVrVh8XHv6CAAjoRcCEoVln8cg906dPv1ovzaE0IAACxQQ42rPDioWU+ZuGLJzWLZw6mUpA3iCQMAEalpzrzFFpZDxHJQ4CKl+c+IgLAiCgDgF63rk5d6yGYjFkoU5lhqQgEIfAHGeOChlEnfa8oykk9InDBXFBAATUI8BtTQAbxw4GUb3KDIlBIC6Burq6O+nZV3lxBc0dpA8WR8StDYgPAmoSoDUBjXPmsGnUsXDsqKWrpjohNQiAgAgC1FtPzpFKDp7r0FHvIz4gAAJmE2hyppfQEYEcKEhfPIHFEhyqAWQAAV4E7rjjjnudVWfX8JLqgDS00vWWefM4igaZQAAEJBPgMN9OumNHrXTJekD2IAACTAlwWWSxYsWK+uuuu+5uppggFgiAACMCsp07qY4dnDpGNTEFUe5eutTauGlT4JzsfN6i7m18QIAI3HbbbducrZCOSYsGDQu/+8477Zg7lxZxdfKhkwfCfJy5pFZlZWWYKAirMIEmZ3pG89y50vwraRnjeB2Fa20J0V2nbdSoUVV0e+zYsR0lggm7RC/dLVu23LZ169ZxtAs4PmYRuGvxYmtfZ6fw4Vraf+6wXO5qOHNm1Se3tB0dHdby5cvJCZvWt2/ftWnYsQ8++OBiJ9874fy5WtDjr1OPptXX1y+SURopjh1tcUCr4WQUGHnGJ0CtkYHHHbeyoaFhfPzUxKZADt+LL77YDiMplqsKqZGzt3nzZqtqyJCJ9FJ2ZR4zZsxm9zv9XbNmzWD664Rt2fr221dj8QPRMO9DjdFt27fvnD17dgW30pMde+21116+4oor+qCnj5t2gssja0hWimOHIdjgFYNDSDKA2VxOWusjLgMs0IlLEPFBQH0CZMd279nDskEahC6tuLz00kvHwdELQotPGBnOXeqOHZw6PhXOS5KWlhaWLVkvmYPcg3EMQglhQEAPArLnOiVFkUa92l9//U7MQU6KsLh0ZbxLU3Xs0HMirrIkkZKuRrAcK3Ly6CDncvdxHQRAQD0Cqo8whCVOTl6+s/POiZMmhY2K8CkRSLvXLlXHDr11KdWiENmQETy6X7+qpCcJhxBJStClS5bYMIxS0CNTEBBCQEbPiBDBBSaCxqpAmIKTStO5S82xg1MnuJbETI6W6zdpegh7HDQOExurbOMQRFwQSJeAs5JZ2XlzSZGixRfvbd/ejsZqUoTDp6tdw4O6ismxw0c+AWrRha+S5sWgaQPytQUJQAAEyhEg58U8yxS+xDQagQ8PAuG1Fy1GKj12hDSaeIgligBatdFIogcvGjfEAoGkCMCWRSMLWxaNm8hYGzZssIYNG5aK3yVS7m5prV+/noerbKgU6KHrViUjXUCr19AHCMVmQ4B60SM9vIjUhQBsmdwqTSOYXRSSwI9EPUfqKq+trW1PQG4k6UMAc+h8AEW4jfocARqigEBMAnQaRFVVVaLvqpgiKhmd3BslBddA6KQXUmSTZASnLkm6pdMmI0iVBgsjSvOJc5VWDhPbsOdExskTcUHAZAJ0LBOcumRqANmy1atXVyWTOlL1IkDD4l73495LrBWEPeviqiZ8fJln04WXVv0YaPGqr0OUgCcB9NKlqxfMv0uXN+VGjnVSuSaWMF56Samse7qmbSzcnYC8K6jn8tgjZz0JaLcthEJqgj1LT1m0h+ykyZMT8cESGYptnDMn0W7G9NDzz4m60pvnzk2kcvAvvXwJqdVFq/TkSwIJQEB9AvQ8zZ49u0L9kqhZAuKPqSbp6I72GExqy55EHAJ4/clXDAxVJM84bA6o92GJITwIHCJATsWhX/gmmwDsWToaSKLeC++xQ2VIvjJQDxEmFCfPOWwOSTygYWVAeBBQjQANSeHZ4ac10gnpBp9kCSSxJZnQFhK2g0i2AlDqMIDJM46bAxo3cQkivikEMJ+Ov6axEDJ5HYl+rwvtscP2JslWANHKT1Zac1MnPaGla67+UfJgBGjkAfPpgrGSGYp0hHdPshoQ3WsnzLFLahJgsjjVSB1DFWroqVBKWu0E566QCL6DwCECOBbsEAtVvsG5S05TM2bMGCcydWGOHXrrRKrlUFo0VJHUkuhDueBbEgTg3CVBFWmqTgBOnboahHOXnO5E9toJcezQW5eMsjFUkQzXNFOFc5cmbeTFnQCcOu4a8pePnDuMRvhzChtCZK+dkMUTmCweVoX+4XGKhD8jlULgGVFJW5A1CQJYKJEEVXlpLl2yxKa92PARR4D2EBRxHGhsxw4rYcUp1U0J3d0uCb3+wrnTS58oTXAC1MODKSXBeakSEs6deE2JeP/HduzwshKrWBFKFSsRUhNJAM+LSJpISwUC2ExdBS1FlxHboURnVyqmiJ5tOHalyEq6BqdOEviUs4VzlzJwZCeVAOyaVPypZI6eO7GY4z4zsRZPkDLFFsfc1GhOnbmlN6vkNIHcrBKjtKYSiPuCMpWbauXGIjGxGou7QjZWjx16HsQoEyvFxHBUKRVngqzd2NioksiQFQRCEYBTFwqXFoHRcydOjXGen8g9dvRiElcEc1OiVTANDQ3jzSVgZslp5RO2DDBT9yaUGiMQJmi5exmxQKY7k6hX4mwjF9mxQ29DVHUdikcvdnrBH7qCbyYRwPCFSdo2p6w0AlFfX7/InBKjpIUE4vQ0FaZj+vf3tm9vj8ogklNB478iN9OLKrzq8fAAqK5BMfJj+EIMR6QinwCmlcjXARcJMFUrviai+giReuzg1MlTWPyckQI3Ahi+4KYRyBOFAJy6KNT0jUP1Qd/SpVOyqFPeQjt2ccZ900HBP5eoXjj/kkHCqASoTmDOXVR6iCebAJw62Rrglz/NHW/CArFYiok65S20Yxdn3DdWCTWJjFaMJopMoBiYc5cAVCSZOAE4dYkjVjaD5rlzM7RBNT7RCSxbtmxq2Nih59hh3Dws4kPhqfVCFf3QFXwDge4EMOeuOxNc4UkATh1PvXCTCn5DdI1EObklVI9d3E3zohdNj5hw6vTQY9KlQM9d0oSRvggCcOpEUDQjjdWrV1eZUVLxpaysrBSfaGGK5HXjE40A5iYW1iR8D0Kgcc6caJUNsUAgYQJB6i/CgEAhAdiz6A8lncdbyNLve6hhQRLLL0Hc704AQ7DdmeBKMALYWigYJ4RKjwAWf6XHWrec4ENE12iY5y7wUCx529FFMjsmhmDN1n+c0tPKMuziH4cg4ookEOblIjJfpKUHAQzJRtdjmFG/wI5dk3P0FT7hCaAih2eGGF0J0C7+eKF2ZYJf6RKgCdyog97Mn1q/psI7BO6OHTu2A1ugRKsHYXYkCTQUS8tt6+rq7owmjrmxMAR7QPfPtd0/cre16dHd9qZBzj/rY+df3vo4VMXoYX3G6pU50fl3Ev37ybnVDV8LlYAmgTGUoYkiFSqG6Xbs2bZlMz+2N7Y4NsyxXRutPfbm0NrrlTn+gO2yyIad8I2zqyd+N3QiGkWAHYumzKCNq0COHbZfSFYJ0VLnG+s3bXcs2mm/MmWH/bK1196eqKDk6FVkTrP6ZkZccmb1tY8mmhmTxPE8MlGEAWKYuPL1ybZ/tnfmX7Z22W1OA3RvYlrOWj2t3plhVkX2tE/Or/6/PRPLiGHCNKxYW1sb+SxUhkVKRSSalhPkHOZAjh286/A6oyFY6nYOH1O9GM9teOiYDzufeudD+4VIrVmRJe6dGeoYylHWBdU3B6rbIvNOMy0sqkiTtpl5Be0dUJ3Or9sWPPih/ftxO/PrrE5rl7Ti5Kw+ju0aYR2V+dzyc6pn1EsTJKWM0UAND5pOJwpyBGWglx8cu/AKMMEoPt7aZL9nP2l9Yr8THlAKMcjJ65e9YO251Td8JYXspGSBZ1MKdq0zjbIhqmpAnm2799z37See/iD/O6dX7hN24lNv3meyf+H8+8Kws4ZdtYGdgIIEgv0KDzKIb+Hr2NFqWCycCAdf5946at1uy/9s3Ef2a+GgSA79mey5Vu/sZUedN2xMqP2AJIsdKPv29nY78U0sA0mCQKoTaGlp2Tl79mxtFwE81nqjvT3/mLXPUscMHObML+6f/ZJ1YU2T7/tatfpHh9xHPQ9VtbKKkleIYwePOpw6dG3tPtV2e8fW/I9P3mtvCweEWWia0zIoe+Xnz6y+6vfMRIslDm1gOWvWrD6xEkFkowkEeWGoCuhnrX/nOHS/VFX8/XJnrR7OCMSXrC/VzNfKwYOPEa5aBlnM5FtBAD0cdN2M45Nt37Hf6XzYaeF+EA4E89BHZoZYA7JXXnt29d/cw1zUUOLheQ2FC4EdAkHn7agIa23rdPu9/NMqiu4pc7/sF60v1/yH7/vbMxEmN9FrF14Rfn6GZ8UA8HDAdTKQT7X924a3O3/0WZWGLMJp60DoIzKVVr/c9VoN0WL6RJSaYGacoKvsVKOztrXBceh+pZrYoeU9Jnux04N3m+d7PHSiEiKgQRoOeizHDrDFwg6XmpzQv2v73vg3899/IMpeTXIkFpNr3+zZ1iU1dylvIF0a2E7AJYG/pQjoOmXk8dZG+538T1guiCilBxHXctYR1sDceOv86n9S1n5hKkm4muA3F9azIsCxCw47yLh38NTkhHx43dftnXarnMyZ5Hps9jLrizX/4vlcMBE1kBjovQuEyahAOvbSPdO28J43O++5ep/1vlG6LCzs4ZljrMHZCcpufgx/o1Cb3t/9GmZlX2A4bcIbbPFdv67R4vCcfv+67buPbupcdDEnmWTKcnhmgDV2+C/KPhsyZYuSN3rvolDTL47fy0DVEv9P6ySbti3B5wABWkF7Uc2/K2e/sDdnuBrs5XOUPSu2/fXXcYRYQM40t07VD81FgVPXVXuf2FutH71ypv1M213f7npHzV+0UTYZgWac96ymAgVITVswOR/lXvZ+RV+17ktw6oogbcv/wlqz7qt20WX2PxsaGsazF5KRgNRgLydO2Qcd3aLlkHW/7uU5dw/N58qadZfau+03+AjEUJL+2Yuc1u+/lX1OGIrsKxL2vfNFpE0AcuadRXBa1V9SjrOf5kNvdt51eZJHfqleCbLO3LvK3A1XnFV93YOqlAULNoNryuvZLvvAw7ELDlg1x452Xf9T5+1P563dwQtpcEjaGuVrw9eUfVZURIPhWRW1FlxmnVboF5f6563/YG/L/7z4Mn6XITAwe4WzuXGjMvYLvkcZRZa4XM73KDkUS2PdJdLApRIE6JDsEpfZXqLhxfbOb8OpC6Ghj+zXrVXrvqjc0IZXEd3hWdXqr1eZcO8AATL2Qc6TVJHXI+smwKkLqbi38w9YNOUmZDRpwWkuKD7xCJR07Hr17DkuXrLmxFZpXsATbbfYf+r8j2+aox1xJaXzcB945RxljGPQklP9JUcA8++CEuMbjubRkS75ShhPsofW1dof2s/HS8TQ2LSn30/XXauE/XrhhReqDFVT6GLTItdSkUo6dhMnTSoVFteKCKj0MqQjdd7qvL+oBPgZhkCntdNZVPE5m4ayw8RTISzNw6KPSnVaBa5pyEi9rqQ76oVNIz8Zeaxe92X7I/uPMrLWJs8d9kvWj9d9jb1zp3M9Fl2ZnN7NkotcS7buMMYdDD8Z02Ah5YZa2/q3zi7sT8oVQrPcP5ubW3VGtb4vUkxi5l9hyaFTacQgKtGV6y6w99rbo0ZHvCICvTInWWOGP8z63YUNi4uU5vGzlB/SrcfOawmtR9rG3VJli5PHWm+GU5dA7Xyt89b2BJJlk6Tbg4c5eGxUclAQd8jVBKdu9bqvwKk7qHkxX3bbG62frLuSdc/d7NmzK8SU1sxUujl2L774otYvLFFqzuZy00SllVQ6T7f95++35lcnlbzR6eatPdaDr5zL2jiKUJA7Bw8Ongia0dOghiS1zOljylDVQ+vG2qYdbRi9hoSLucteb9HGzuFipRtalc6TdKkEy62bY1dXVxcspuGh6uvrF3FG8Nu2u294o3Px5zjLqLps+6wdzmrZ0ayNoyjGroNHjgUMriiq/unQnEdirusq13IEaPXrR/Zr5W7jugACdFrHz1v/nq39UqHzRIAaYidRaheTbo5dZWVl7Ix0T0CFF1tH5+3/qbseOJTvE/tdZ0LyGLbGMQlG5GTQhw6iTiJ909Ok7R7oPFdiTEPipvH4RessrH5NSel0SsVTbS3vppRdqGy4d56EKkyCgd9+661uu5h0c+wSzF+bpLm3JB585XyjHA3ZFetjZ587ehnJliPt/GkeDDkf9GlqbEw7e+3yI0eZWNLRX6a+1Gik4d38o9rplnOB3uxc3p+rfCp0oshm11TiqMgujl25PVFkC84tf85G9+F1f23vs97nhkx7eehl9GzbspnaF7RMAZvnziWfJEM9TTDGZSCVuOw6c8QOE8Yta2Pnf2OkoUQ9SfoSrTxOOo8o6e/es0epAwCilDGJOF26+bHFgT9iGibhepj2E23znL3q7vMvBEIkQiBr9bSuHPFcl2cqkYwUSZRW2L/w/PPtpVqUihQhETHJmYMT1x0tzq7uziTNK30yI6yvDr+Xnf3C9mv+tYAahoWhuvTYYeFEIZrS3x955BGWLYjn21ZVwqkrrbO0rtJK2TXrLmPZ8k2LQWE+tHrT7ckjw0MOjYnHBVEPpjtnjjjAqSusJQe+/6z1Bnu3/Ub3G7iSGoGd9ivWk23/zM5+mWgzwiq9eLS1i2OHhRP+OLnuHdWe/892f+kRImkCu+1N1hNtt7IzjkmXO0j65NBQb7f70dXRI0fOPQ2CykqLTThP3wiiuyTD/O/6NYO35x9PMgukHZDAls4fBAyZXjCunSnpEfDPyXF+u5xA0aX7Dl2e3gC5DsOSI/FW5w+9hcfdVAl8fcTLXZ6tVDNXNDNqdZKBalRoIQbZBKc3zho1alSVKfvLia5eq9ZdZH9ivy06WaQXkUBFZqR12fB7WNkv+CbeyqTGZOGWSF2UB3je8LjOjbnvlZHoIfJWXep3+2bPti6puavL85W6EBpkSPP0tmzZctvWrVvH0VQRWaMKZDg3btpE+U9D75u4ivWrtn+xN3d+X1yCSEkIgVNy/++SM6uvZbM8Gb6Jv1ppdMANdfALGdDa2loM57lkSvwtBFfitpRL/9N6vf1B/rdS8kam3gR0P0/Wu/Tp3C08ArHcqTmFDiFty5LJdpmBsl/QAQMGrBw0aNDBVc3ofUtHfz965Uw7b32STmbIJTCBHpljrHHDHzvoHwSOmFBALOz0B1vonxzmBiej6Dh27k/8VYDAc233j/xj5y0KSGqmiH/KL6CGEhvjqKMWihywkqydl4KORVe+TGtbpzvnWD+tfDl0LMBeZ+P1J9u+bX+h+lsln6m0y0w95U6eXeaRpS2DSvkdbLqedOKJKskNWR0Cm/M/eAkg+BLYY79l/abtDtZHz/GlB8l0JwCnjreG3+7kc844pj/415XC0YuDjt3ESZP8Yxocgs5s5PT53fr7h9KJB/jwJvB2ftUU3hJCOhBIn8Da1gbMC04fe6gc89bHLLc/CVUIgwIXTkU56NgZVP5IRf20KzhS3CQibe1cuT6JdJGmWAJ77M3WM23LpopNFamBgNoE3sv/Su0CGCL9O50PsSkpLWDCJxgBOHbBOFncuoJ32usCSo5gsgm8nf8R5obIVgLyZ0Pg563/gN46NtrwFmSf9aH1dNu/v+wdKp2727Zv35lOTmrmUnjAxMGJkVhO7K3MwhUn3iGTv/vIunr7Q/v3yWeEHIQR+LPczad9vvoqFgZSWKGQEAhEIIDtmSJAkxilR6afs0L2iYO+gkRRLPgp3vRdP2V/j13hpDvvaGbepU1IOX3g1HHSRjBZ3sn/FAtdgqFCKI0JPN7ajN46xfS7196O6SSK6QxDsQEU9sADD7DpAn68tQmGMYDOuAWBM85NI5BHBoHt+V/IyBZ5xiTwXv5xTCeJyTDN6Psdu8LVFGlmrkpep5xyykgusm7P/5KLKJAjJIFftf3rnpBREBwEtCFA+27utd7TpjwmFYRLw5Q2GMfHnwB67PwZWUWboAaIkUyQ37fdfyYMYzJs00jVccoPTyMf5AECHAlss3+J6QgcFRNQJg4N01KnxgQU34hg7rS6/Y5d4WoKI0qvaCHftX/5nKKiQ2yHwG77TXAAAWMJvI9TJpTWPYeG6ahRo6qUhpiS8PsdO2ePtpSyQzZxCMAwxqHHI+4vW7+JOZI8VAEpUiTwTNvCe1LMDlklQAAN0wSgCk7SnVaHoVjBYJNK7vm2VZVJpY100yOw034lvcyQEwgwIfCh/fLVTESBGDEIPNV2e0eM6LGjcpkWFbsgCScAx84HMJfdrj+wX2j3ERW3FSDwsd2hgJQQEQTEEtiRx/Q6sUTlpOY0TE+WkzNyDUMAjp0PrY2bNvmESOc2enrS4ZxGLs+2rahPIx/kAQJcCOyzPuAiCuSIQWBHHnusx8CXeFQ7n9+fBxw7H9QDBgxY6RMkldu77D+kkg8ySZ6Acxzc3cnnghxAgAeBp9u++zgPSSBFXAJ5a3fcJBA/QQJNzc37U4dj5wN50KBBM32CJH772bZ7z008E2SQGoEdmGeXGmtkJJ/ATvvlC+RLAQlEEXiqreVdUWlFSaf5U+clSlxT4sCx89E0h8maH1uvP+0jJm4rRGC3vVEhaSEqCMQj8JH9x3gJIDYrAh/Zr/dnJRCE6UYg625o1+0OLrAhsMfezEYWCAICIAACYQh8Ym8NExxhmROQ/T7CXnb+FQQ9dv6MpIeQ/SBJB6ChAFhAoaFSUSQQMIAA3kf8lQzHjr+OnBML3lBASogYhsBuazMWUIQBhrBKEkADRkm1eQrdaX3seR835ROAYydfB74SYCWSLyLlAqDVq5zKIHAEAmjARICmQJRXX/1pTwXENFZEOHbMVf/U+jUVzEWEeBEI7LG3RIiFKCCgFgE0YNTSV1Bp39nXIe2IOA4LGoNykhUOjp0s8gHz7WFvrw8YFMEUIrDX2qaQtBAVBKIR2Ge/Hy0iYrEm4NivcawFNFy4rHtorOEc2BY/b+39LFvhIFhkAp32zshxEREEVCHg2C9VRIWcIQh02rtChEbQtAmgxy5t4iHzs619lSGjILgCBDABWQElQcTYBGzrk9hpIAF+BDotNEz5aeWQRHDsDrFg+S1v7UGPHUvNQCgQAAE/Auix8yOk5v19GHFgrTg4dh7quXvpUo+76dyyrb2V6eSEXEAABEBALAHHfolNEKmxINBpYSiWhSLKCAHHrgwYurxx0yaPu+ncclq8h6eTE3IBARAAAbEE8hiKFQuUSWoYimWiiBJi0GlicOxKgOF0KWNBRZz0AVlAAASCE8hYueCBEVIZAs7cb2VkNVFQeA3MtZ61ev2BuYgQDwRAAARKEnDsV8nruKg2gax1hNoF0Fh62ucPjh1zBeesXr9hLiLEAwEQAIGSBHJwAEpyUf0i9Mpbg3DsPPRz0oknetxN51bGOuLX6eSEXEAABEBALAH07IjlySU16JWLJkrLAceuNJf9VydOmuRxN51bPawjf59OTsgFBEAABMQSyGYwFCuWKI/UchkMxfLQRGkpspWVldNK38JVDgTOrL4Kjh0HRUAGEACB0AScqSSh4yACfwLoseOto2zfvn3X8hYR0oGAfgQOzwzQr1AoEQgUEehhHV10BT91INAj00+HYmhbBgzFaqtaFIwzgZ7WYM7iQTYQEEKgV+b424UkhERYEehlHX8jK4EgTBcCcOy64OD5o1fmBJ6CQarIBHpl4NhFhoeIyhA4u/r6mcoIC0EDEzi7euK3AwcWHJA24BWcpHbJwbFTQKU94QQooKVwIvbMHI9tbMIhQ2gQAAEQAIEABODYBYAkOwiG7WRrQHz+h2eOmyg+VaQIAvwIHGYdxU8oSBSZAObXRUaXWsQs7VKcWm7IKBKBnplBKyNFRCS2BM4adtUGtsJBMBAQSAAjDgJhMkiqp3W8VCm2bNlym1QBFMgcPXYKKOnc6obxCogJEQMSQA9GQFAIpgWBIzOnaFEOFOIAgd6S9bl169Zx0IU3ATh23nwsLhM1c1YfH0lxWxUCFdnTVREVcoJAbAJ9MyMuiZ0IEmBDoG/mjCo2wkCQkgTg2JXEcugil27fo+AMHFKK4t8qMiMXK14EiA8CgQmcWX3to4EDIyB7AmdUy52+1djYyJ6RLAGbPmUDx85HA1y6fftkRmKenY+uVLl9TvX0qarICjlBQASB3plhIpJBGpIJVGRGSZYA2XsRyGQPuHRw7LwoOffsfN4nRDq3Mc8uHc5J54I9CZMmjPQ5EqjInMZRLMgUkkBFdmTIGAgugwAcOx/qTc3NPiHSu43VZemxTiqnigzm1yXFFunyJXBBzc0ZvtJBsqAEzq/+J+gxKCyJ4eDYSYQfNuujs+eFjYLwzAh8seY7MIzMdAJx0iHQI9M/nYyQSyIEnOPhEkk3TKJcFjOGkTnNsJWVldMov/2OXTOjXqk0IaiW1wXVaPWqprNCeQ/PDCj8ie8gYBSBfpkLjSqvboXtlx0tvUgffPDBxdKFYCxA375915J4hzGWkY1o1ErgspFz78xnrV32H9iwgSDBCfTPXuQE/kXwCAjpSWDNmjWDydC3v/763W7Ar//1X1tDhw51fwb6e9fixdbmzZsPhj39jDP2d02MGTPm0MWDd/ElKoELa5oy970y0o4aH/HkEuAwDNvR0XGnXAq8c3f9lP2O3afddwBWRmefbnnCYpPgo7MX/GZX5x/OKSMqLjMm8IXqb2IYNqR+VqxYUU+OWxSHLWhW10+ZUhz0Tbpg2119ENcBJMcPTl8xsmC/j8z8mfWR/cdggRGKDQFnVwZHlpely1NXVyddBhUE2O/Yud13KggsQ0YuW55Q2f+y+hvnotUroxbEy7NPpsZJQL5hjFeKZGMvXLjwnsNyuatLOFrJZhww9QK53ix0+uY6U1mqhgyZOGHChGUBkzI22NHZL/zpo84/nmwsAEUL3i97/nLLuke69E4nlHQZVBDgYA+CY6i6Nk9VkD5FGTPOJ8XsPLNa2/q39nv5Jz3D4CYvApW5f/zG2dUTv8tLKrnStLS0vDtz5sz+cqUQnzv17O3r7Lx3xowZ14hPXf0Uf/TKmXbe+kT9ghhSgpzV27pixDMs3n/wU7wrneunHFQWgAUD5h0qvbvotUuPddycemYGWbXD1x581uKmp2p86pEbPXr01WHnwKlaXlducvR69uqFHr1PgTzWepO9Nb/GxYO/zAkMyl1jcZhGQnPda2tr25njkiqe69hhuxOpaoieed/sn0ePjJipEhiYHWfsEWLUK0eNRvpMnz7dOKeOKhoN4V533XV3E4P169fb5OCmWgGZZTa6Zp7xjRxmKikrTtbqxcKpIwFffPFFOHVlNWVZhbubwLHzAFV4a9myZVMLf8v+fknNEhhH2UoIkH8P62jLtCPECp05HYdaA6i9bBDqrSQH13XyaHFI2cAa3zgm+xWNS6dP0Y7NfpVNYbBwIrgqDjp2dy9dGjyWgSGdlXnsVg3jmB7+FXFg7orf8JcyvoTUC0W9UfSBMxeMJzl5bk/e4kWLjJrj/KWaFjRMg1UTaaGy1uEWbVEjTYCijLFwoghI0c9Ro0ZVuZcOOnYbN21yr+FvCQKcjhZzxbts+A/YPHSuTPh7iABtSEyrmA9d0e/bTTfeuN+ZM3WYVZRGabh2P0jnP1OGavtnvywKH9JJgMCx2a8lkCqSTIqAu4cdpX/Qsft0L7uk8kS6CRGAcUwIrIBkj8194ygBybBLgiYxu71zt8ybx04+1QVyh2rJaVa9LF7yX1Rze+Ywq8IrCO5JIkCNUk69dQsWLHhQEgolsz3o2NXX1y9SsgQpCs1tnh0VHcYxxQoQIqujs+db5w0bsyNEFPZBqSeJepVoZZppK1tlKIecZuKt8zDt4NzkZhlskac3AW6N0l49e47zlhh3CwkcdOwKL+J7aQL5zk528+xI0hNyU24sLTGuyiCQs460Lq5ZoM0wuevQUU+SDJ6m51k4TKvbIejnVE9u6pMZbrqKWZXf2USaXaN04qRJrBhxE8Y5aq2LSHDsuuDw/sG1cjkb334bxtFbd2nePSFXf2+a+SWVFxy6pMhGT5d6S6kXTycH76vDf6hNIyi6ZnnEPNAo/W/og4c6AkuxfPnyLmG7OHbFXl+XkPjBmgAZx5x1BGsZTRCuwjlT8S+q1T5xgKYckPOAHjq+NZYcPJrnyFfCcJIdn5v0h3AxEDoJAifl/nZiEunGSbOpqUmbeh6Hg1fc4jUSXRy7Yq/PKyFT782fP5/tvKkTczO+YapeOJSbJoJfNvweZVu71AtEDp2zXxTLKQccdMxJBprnSPrSYQ7eedX/MLQiM4oTXuNk6Zf9ovXn1fzOO25sbDROF2ELXLxGootjN2DAgJVhEzQt/KxZs/pwLTOdRUoPJz5yCAzJza6Sk3P8XMk5wHE98TnKSMGdg0cbQ8vIX1Selw3/vrNKVsuF5KIQJZYOrYL9cs1/KNsoTQyMogl3cewaGhrGK1oOiP0pAXo4D88MBI+UCQzI/pV1RvXYjpSzjZ1dszPMQR9yDvBRmwBtDE26VHn+3cm5vztNbS2oKf3Y4b9g6dRxHiHjrOkujh1nQTnJxr2yjR3+c5YPKScdipTliEyVNbrmVuWYkxMwB8McIqsCi7So51XV4dnPV1/1MjWS8EmPwPG5um3p5RYuJ84jZOFKklzophI2HI5dBN4qVLYhuW+NjlA0RAlJoGdmkPVXw3+slFPnnhYRsqgIrhABd3iW496bfhipkfSZ7F/6BcN9AQSOyV5qnVc96xgBSSEJSQQGHndctyl03V5ItAIFkxX9NZRxPv6h5Ib4bdv3r+no/JcfyJVC39xpXgrXIYxS1GmIDvPoSpHR+9qGDRusYcOGsbdXxVp4ZF2d/aH9v8WX8VsQgf7Zi5wN7v+Nbb2gkTEVOlEEqSNyMqV8kW49doUHyUbOyYCIjXPmsF+CfXb139xzUu6G/zJAHakXsUfmGKWcOuqlg1OXejVhkaG7ela13rtLhy/PVGQw5S6JStQvewFrp47KDKcuuuZLeus09yZ6kubELOUpcyz9023fffyNzkUXcJRNRZl6WJ+xxo34Vclnh2N58Dxz1Iocme5avNiaMnWqMnWXKP1k3VX2LrtNDjANc/1M9lzrKzV3sq4D1AjBtkvBKl8pP6Rbj12wpBCKCKhyMPFfVt9w4cm5Bi1OQ5Bd8w53eupUcepo+ws4dbJrDK/83bl3vKTyluby4fc7PXcjvQPhbiACdIY1d6eOCnLBBRdgL80AGm1ubi4ZqqRjhxMoSrLqdnHGjBnKHExMpyFU5v7xG90KgQuBCdBCibHDH2Pd0nULQ6cS0PYX7m/8BYFCAuTwq7TvHW38fVTmjMIi4HtIAsdkv6LMGdbOSQohS2dm8OITJ1wKJR27Rx55pNsqCzcC/nYloNKeUbSBcVXuW1hu1lWFgX71ypxg1Q5fq4RTRy9tmleFDwh4ESDHX6VtUS4dvsJZLXuOV5FwrwyBY7OXW1+qaVHCfqkwf70M5tQvF5844QpQVtH0cnAD4W95AncvXWpNmjy5LMfyMeXdeb5tVeVrnd9uz1u75QmhUM69M5+1Lh/+IHsd09QAlXqRFaoC2otaap4O10L/vPUf7W35n3EVj51cg3LXWF+o/iZ7++WCg+/hkvD/W+65Ldlj558cQrgEJk6a5H5V5i+dkHDliN9lyGHBx5vAwOxYJZw6WvUKp85bl7hbngC9TFUZfbio5vbMSbm/b85ZR5QvEO5YtMjr+MPmHaWSU6fKvHUO1avUxsSuXGUdO+qJwicYAdr7L1hIXqGoF+q47JW8hGIiTY9MP+vrI17OXFgzl31Ll+bT3TJvHhNyEENVArQdjiov1nOqJzddMeJZNE7LVLajsp/fv8jrvGFjdpQJwvIyGqfB1VI1ZMi0cqHLvrQwrFMOWenr5bpES4fmd3XlutH2XlvpM8SFQe2bPdu6pOauss+GsIwEJIRhCwEQkUQXAqptifJE2632W50/7FIGU39krZ7W8blJK8+tVu/cd2ygHq7Wevkcni8vvDSCg164cOHKhgb1HqbCEv6y9Zv2O/mfFF4y6jttZTI4O/la2thZhYLj+VRBS2rKqOJpFT9eN8b+2H5dTeACpK7InG5dNvx7nu90AdkklgTsWTi0cOzC8Yoc2gt05EQlRHxo3Vj7I/s1CTnLy3JAttYaXXOLMkYRRlBeXTEpZ9Vs2q/bvvvo5s4fXNxp7TJGTYdnjrVOyE684qzq6x5UtdDorQunOdq/zpkCVvZ9VfYGZUPLjpvKbIAXTgwzQvvBVonCr9sWPLS583uXd1o7VRI7tKy9M0OdxREPeD4HoRNNMAKmSCQIF0mXJKCac0eF+Fnr/7G3558oWR6dLtLiLhXmAfsxR0PVj1DX+37PpO8LDcC7AvX75QfcLz63+zR/5d3Oh619llJzcH0xkkM3KDv2kjOrr33UNzCTAHDqmCjCQDFUtWuPtk6x388/o53G+me/7Jz1ervv+1uFgsOuhdeS3/PoWzHg2IWDrlOvXWHJf9U2f8c7nT/us9d6v/Cyct/pUPHjclcd/7lhYzarJDyMn0ra0lNWv5cJ51Lr0INHCyPIoftizXd839ucdVEsG3yMYiLev4PsnVt2uxM3aWx74pII9rexsTFYQMVCnV89u4LOSD0hN+V/j8hUKia9ZfXLXrB/+5LLhv8gA6dOOfVBYAYEVH4Bf7nmvzK0fdGx2a9aOas3A5rBReiR6e80Rr9uXTniuYxuTh01WIOTQEgikM3lym5z4hLy9fyXLVs2ta6uDgfyusQC/A3iUQdIhn2Qx1pvtt+zn7T22ttZytonM8Jx6L6w/JzqGfUsBQwgFHrqAkBCkFQJqNxz54L6Xdv3xm+zn3jgg/xv3Uus/uasIy06Pu3kHhf3OvXUy/awEk6gMCo3FgRiCJVUkOfP17GjHAE/FPf9gYPAD58qzxjPtd0/8n37mZd22C9an9hbpQrZJ1NjVWTPcI7Q+X+B6rZUYX0yh1PnAwi3pRHQyb493fbvL3+Yf2HETnudJfOYxcOsvo7tGmkdlTnzO39Rff23pCk3pYxpY39dR7iSQhi00yjQy2/pkiW2ikdnJQU3aLo6Gb+gZaZwzoraB3faL43bkX/FWXTxQZioocMemRli9XHmzVVkRp72+eqrXg6dANMIcOqYKgZiHSSgq32jBWM78y9ZO+3Wg2VN4kvWORLtQEN05JbzqmcOTiIPzmmiwyi8dpYvXz6tvr5+kV/MQI4dhmP9MJa+39LSsnP27NkVpe+ac/XZtnvP3WO98ehue2Of3fYma7f9htMyDje60MPZPPgI60SrV4b+naD08GoQzcPoBaGEMLIJ6OrcFXL9TduSpj32xsbdFtmuTdYe+63C24G+98qcZB2x33ad5CyBOEmZTdADFS5CINi3CNCcKEGft0COHYkARSSriGip6xXr1Vd/2lPn+SRBtYVnLSgphONAIOjLhoOsScrw1Po1FaqdzZokj3Jpz58/f8esWbP6lLuP66UJBB2Gpdi+q2LdLLA61iUR7i9e0sF5walDAyp4bUFILgQWL1pkc5FFphxw6oLRh1MXjFNxqCCrYd04gXvsKAKcFBdbuL9Bx8XDpYrQuhHA86WbRs0pT5OzzVPz3Lmh3ifm0EFJXQLr16+3hw4d6v7E3xAEwvSMB+6xC5E/ghYRwHYxRUDwsxsBMnjdLuICCChCgI6exJ5kiihLkpg0Vx9OXTT4dPBBmE+oFhbGxsOg7Rp2w4YN1rBhw0Lx7poCfulKAMv+ddWseeUK06tgHh2zS4wRiej6D/tcheqxwwrP6IqhlgpatNH56RqTWrHYy0lX7ZpXLry8zdN5kBJjRCIIJXFhQvcgtbe325WVleIkMCylsJ63YXiMKy5ehMap3IgCw84ZoeZAhcRIXyBMZQMtXLhwZUNDw/iyAUrcCNVjR/GfeOIJ33PKSuSDS58SwIscVcElgLrgksBf3QjQy1y3MqE84QmsWrWqEqtgw3MrjBHWqaO4oXvsKBJeSEQh3gct2nj8VI+NeXWqaxDy+xGAjfMjpP99+ArxdBxm77rCnEL32FHksCs0CjPE9wMEGufMwSpIgysD5tUZrHxDio6XuiGKLlNM6L8MmBCXJ02eHKnzLZJj5/Q2RMosRHm0D4rtAbRXcdkCwuCVRYMbmhFAA1YzhQYsDhZLBATlEayjo8PjrvetSI4dJYmTKLzBBrk7Y8aMcUHCIYw+BLBLvz66REn8CVADllZ++4dECF0I0DQT7FcXX5svvPBCVdRUYvW8oechKvau8TAXpSsPXX9hdZiumkW5/AjAxvkR0uM+bemFDgsxuozzzBwWRwTqKsTWJ3EIHohLDnIcJcaXACkkTYBWh9XW1uLg66RBI32WBGDjWKpFuFBw6sQgpS1O4qQUq8fu05dVexwBEPcQATh3h1jo9g2927ppFOUJSwCn74QlplZ42Dhx+orrC0SeY0dFGDt2bIe4oiAlPBh61gHoVU+9olThCNC8K8wxDcdMldCwceI0JWLXkViOHRUlbpehOBx6pIQHRA89uqWAPl0S+AsClnX9lCkWNi/WqybAxonVp4hdR2I7dlF2RRaLQb/U8KDooVMs+ddDjyiFWAJ0EgHOzRbLVFZqeFeJJS+it44kiu3YUSLotSMKYj94YMTyTDs1GnLCkv+0qSM/VQjQJHs4d6poq7SceEeV5hLnqojeOspfiGOHXrs4qiwfFw9OeTac75BTR0NO+IAACJQnAOeuPBvOd8ghx7tJvIZE9daRZEIcO0oIvXZEQfwHD5B4pkmmCKcuSbpIWzcCcO7U0ij2qUtOX6J660hCYY4deu2SUzg5d9i9PTm+olKmOXXoqRNFE+mYQgDOnRqapkYr6UoNadWSUmRvHZU81j52xeiwr10xEbG/5zrH8zTinF6xUAWlhp5VQSCRjLEE7lq82JoydarQd5KxMAUXHPZNMNCi5OLuW1eUnFjHjhJHBShGLPY3NvkUy1NEaqjzIigiDRCwLNg3frUA9i1ZnbS0tOycPXt2hchchA3FukKJ9jzddPH3AAFaaYkHjUdtoOFx6IKHLiCFHgRg3/jo0XE43oV9S14fop06kli4Y0eJ3r10Kf3BJ0EC9MA1NzXZCWaBpD0I3HTjjXZdXd2dHkFwCwRAICIBsm+YVxwRnoBoNF945syZ/QUkhSQ8CKxevbrK43bkW4nNZ6AHM7JUiBiKAHpJQ+GKHRh1OzZCJAACgQjcfNNN1rxbb03sPRVICIMCkTONBmt6Ck/q3Z1Ijx1hEb3KIz3U6uVEjgZ1m6snuVoSY+hVLX1BWvUJ3DJvHqaepKRG6qWDU5cSbCebpJw6KkFijp3IPVnSQ61uTtRtjp6k5PQHo5ccW6QMAn4EyLZh6okfpWj3nT1o7yG+OCknGr8osZoaG6NECxwnMceOJFi+fPm0wJIgoBAC9IDSfkNCEkMitPE2jB7qAQgwIDDHeRmSfWMgihYi0PZkxHP69OlXa1EghQrRPHduotMLEnXs6uvrFynEWhtRaZNcemDRwo2nUhi9ePwQGwSSIEDPJS1eSiJtU9Kkxn9tbW27KeXlVE7a3iRpeRJ17Ej4JMeRk4ajevpuC5d6nVQvS5ryk9GjT5p5Ii8QAIHgBNy5d5hbHJwZhaTGPn1wQk44biJDJ7G9SbF8iTt2lGEaHmpxwfD7EAHqaqeHGQ7eISalvsHolaKCayDAl4A7txi2zVtHrm2jxj4+8gik1dGV6DhvIT5yLAp/47s8Arfddtu2WbNmHSNPAl45k9GDweOlExHS0H6aGzdtsiorK6f17dt37dixYztKpUtzjej6li1bbtu6deu4Rrz8SmFS4todd9xxr3Oe6TVKCJuCkDT6gN65FEAHyIJ2CtFyUSk5d/jwIWD6Igt3yJWPRiBJHAJLlyyxFyxY8GAAGxs4yPz583fEkQlx5RCgxlpgJWsW0F0UIYc8ci1HQLNqdqg4jrdarsy4LpmAKUMZVE7JqJG9QALt7e2pnVAAJ0+g4lJKihpvbo/soTeRnt/c4daU0CKbEAT0rHEFpQrBAkElECBDuGLFivoClSn/lZw52ocOH30IUO+crIpJvYL6kDSnJDqupKXFI+ZoUM2SUoeWLFuVar5qqsc8qckZUrUnD86cnvVVpkNXbCTdk0j0JK13qcjJU7UBi545tepmsd1I43dqiycKC0NDGs7k/T6F1/CdP4G7Fi+29nV2spycTI7cYbnc1ZgozL8eRZUwrRVlYeWDPQtLjF/4uc7E9qohQyZOmDBhGSfp1qxZM/jVV1996fLLL++PkyE4aSaYLLJslhTHjpDQ3BhntVowOgjFlgAd0n38CSfcO3jw4FljxozZnLSgrqF7/733+tNeVvjoT0CV1WTUj6C/Nswo4YYNG6z7fvhDa8DAganatheef/5Nx5ZaaKCqX8+czoaVDQ0N42WURJpjR4WFIZSh8nTzpJZw4YdaxbT1ROE1+k4GrfDa3r17LThQ+g8GAAAKwUlEQVRuhUTM/C6rxRuVduOcOXZTUZ2Pmhbi8SZQbNt69+mz7dRTTz2tWGrqcdu1c2d/9zpsm0tC378dHR1WVVWVNP9KWsakUlqthGNN9K3cKBkIRCVAe9BNmjxZqn2KKjvNvaurq7szanzEAwEQUJuA7AZpKidPlFMRbRjahM1Ay+HBdRAwkgANvarq1JHC6Ixs2YbdyIqDQoMAAwKrV6+uki0GixYxhmRlVwPkDwI8CMicl5IEAdi2JKgiTRDgSYCL/WLh2JGKYAB5VlRIBQJpEeBiFEWXF7ZNNFGkBwL8CHCaPsLGsSM1wQDyq6yQCATSIKCrU+eyg21zSeAvCOhJgNP0C6lz7IrVS8a9+Bp+gwAI6E1Ad6eOtMfJ6Otdm1A6EEifALfnO5c+gvI5Pvzww/c73XZNF44eXT4Q7oAACGhDgIYvpk6bVqNNgTwK4mx/sOX000//mkcQ3AIBEFCMADenjvCxGop19YnNi10S+AsCehPgaBSTJE7nRjZiJ4AkESNtEEiNANfRBpaOHWkFc1JSq5vICASkEDDNqXMhw7a5JPAXBNQlQFu1Nc+dy9KHYjXHrlDFphr9Qgb4DgK6Eli+fPk0XcvmVy7YNj9CuA8CvAnQFBKuTh2RY+vYkXAwgEQBHxDQiwBtQEyb+OpVqnClMdmxDUcKoUGAFwE6Loz7BuosuxGL1Yihi2Ii+A0CahLgtNeTbII4V1a2BpA/CIQnoEKHkxKOHc6UDV/5EAMEOBJQwSimyQ2N1jRpIy8QiEdAFfvFeijWVQGdKYs97lwa+AsCahJQxSimSRdM0qSNvEAgOgGVnlUlHDtSRUNDw3g4d9ErJWKCgEwCHA7Glll+r7zBxosO7oGAfAIqOXVEi9UGxX7qow2MBw4ceNpZZ51V7RcW90EABHgQoAbZhAkTjF4s4aWJ++67733nxdF04YUXegXDPRAAAQkEVHPqCJFSjh0JDOeOKOADAmoQ4LqBJzd6jz/+ePPJJ53UdMYZZ3ATDfKAgLEEVHTqSFlKLJ4oVasWLFjw4IwZM8aVuodrIAAC8gnAqQuvAyymCM8MMUAgCQKqOnXEQlnHjoSHc0cU8AEBfgTg1EXXCZy76OwQEwREEFDZqaPyK+3YUQGWLVs2ta6u7k76jg8IgIB8AnDq4usAzl18hkgBBKIQUN2pozIr79i5ioMhdEngLwjIIwCnThx72DRxLJESCAQhoINTR+VUZrsTP6XoohC/cuI+CHAlAKdOrGZw7JhYnkgNBMoRoBNxdPIhtHHsSGE6KaZcBcR1EOBIAE6deK3QebrEVXzKSBEEQMAloOMxh9oMxbpKor8Ywiikge8gkCwBNKiS5YtFYsnyRermEmhpadk5e/bsCt0IaNVj5yqHXjTkheMDAiCQLAE4dcnypdRx6k7yjJGDeQSoN1xHp440qWWPnVtF0dJ1SeAvCIgnAKdOPFOvFGHPvOjgHggEJ6C77dLasXPVjKFZlwT+gkB8AjrOSYlPJZ0U4Nylwxm56EtAd6eONKflUGxxlTRBkcVlxm8QSIIADV9MmjzZiAZhEvzipolh2bgEEd9UAk2NjcYssDTKQC9dssSeOGmSqfUa5QaBWATQQIqFT3hkjEQIR4oENSVg2qp9oxw7qrMYytD0yUWxEiOAodfE0MZOGM5dbIRIQHMCJjZIjRiKLay3NJRhoqILGeA7CAQlgKHXoKTkhIMtk8MdufInYNLQa7E2jHPsXABkEJubm92f+AsCIFBEgJ4RaggVXcZPZgRIT9jeiZlSII5UAnRqS/PcucaNSLrQjS24C2DVqlWVtbW17e5v/AUB0wlQS9dko6iq/hvnzLGb0FhVVX2QWxABaugISkrZZIztsXM1Nnbs2A6qCB0dHe4l/AUBYwmsXr26Ck6dmuonvdHQuZrSQ2oQiEeATpGAU3eAofGebWFVWrZs2dS6uro7C6/hOwiYQICmJTQ1NcEeaKJsLKrQRJEoRiACcOi6YjK+x64QBx26TRWEhqLwAQFTCOyv83DqtFI36RTz7rRSKQpTggB66UpAcS7BsSvBhYY0aEiqxC1cAgFtCMAoaqPKkgWhjaQxNFsSDS4qToCmTlHjRdezXuOqB0MvPgSd4Sm7ET14PpRwWyUCZBSrqqrw7KuktJiyYmg2JkBEZ0OAVrzS6BobgRgKgh47H6XQvCP6+ATDbRBQggD1RMOpU0JVQoUkG4btnYQiRWIpE6D6S/UYTp0/eDgs/owOhsDWKAdR4ItiBEw7Ukcx9aQqLnrvUsWNzGISwAhDeIDosQvBzN0aheYmhYiGoCAgjYDbysVGw9JUwC5j9N6xUwkEKkMAIwxlwPhcRo+dDyCv20uXLLEnTprkFQT3QEAKAZzvKgW7cpmi9045lRkhMEYY4qkZPXYx+NGqM/pgW4EYEBFVOAFq5VLdFJ4wEtSOANkvrJzVTq3KFshdqY8RBmVVqJ/g1IOHDwjIIkBzQPV7qlCitAjQDgD4gIAMAlT30qrnyAcEIhGAgyfDNJibJxy6SI8pIpUhAPtlri1Ju+Rw6Mo8hDEvY7gmJkCv6JiD50UH9+ISoCFXWtATNx3EB4FSBOglX+o6roFAXAI05IrNheNSLB8fc+zKs4l9x52Dh/2jYqNEAp8SoPmc5NDR3Cg4dagWSRKgOkZ1Lck8kLZZBGg+J9UrOHVm6V3r0i5YsODBtLu6kZ8eBKj3V+uHA4VjTwBDtHrYEhmlwHQR9o83BIxLYNmyZVPb29tlPF/IUzECmIMS92lDfNEE4OApZkQkids4Zw4ao6IfPqSnBgGsRJNkdZhnS727atRgSGkqAXpx4wMCxQRgu0y1CCh3NwLoxSs2D+b9pp4QDFl0ezRwgTkBTDExz1YVlxi9c8wfUognn8D8+fN3FD84+K0vAdK3/FoHCUAgPgEM0+prp4pLRtOJ0DsX/5lBCgYSgJNXbE70+I3eOQMfZoOKjF48PexUcSngzBn0EKOo6RDAnJZiM6PWbxjFdJ4T5MKLABqnatmpYmlht3g9T5BGYwIwlsXmh+dvGEWNH0IULTQBLBbjaaeKpaIRBQyzhq7eiAAC4gjQwgvMbSk2TfJ+w5kTV7eRkr4E4OTJs1GlcsbWSvo+ayiZBgSoN4+cC3zSI0DD5ORga1B9UAQQSJ0A9Q7BZqVnrygn9MqlXs2RIQiII0BGEz16Yo0mvYTIgRanJaQEAiBABGjLH8wnFmuvKDU0Ps15vjLmFBUldQlQz1JHR8edjY2N7iX89SFAZ7Ru274dB1f7cMJtEBBNgBy9F198sR32KjhZslcbN22yRo0aVYUzpYNz0yUkHDtdNBmzHK7xrKursyorK2Ompn705uZma8CAASsbGhrGq18alAAE9CJAveU7d+zo0+Q8p6Z/3EbnKaecMhJOnOm14UD54dihHngScB0+O5+3dDSiaNl6qh83QUAZAjqPRDgjLNby5cv3NzYHDRo0Ew6cMtVSiqBw7KRg1yNTcvqoJDRMQn9POvFEa+KkSfSV1afJGXLOZLPUEzmtb9++a2EUWakHwoBAogTITm3ZsuW2rVu3juNuo3r37r2Tet4ICOxUotVC68Th2GmtXj6Fc51AVyLXGXR/R/1Lw6XUgqX4MIRRKSIeCJhNoNA+vfbaay/v2rWrT1wihU4apQX7FJco4gcl8P8BXJAlmFP8N9sAAAAASUVORK5CYII=;" vertex="1" parent="1">
          <mxGeometry x="764.65" y="-675" width="57.97" height="30" as="geometry" />
        </mxCell>
        <mxCell id="A-N_aQ1E-9cqWO8VtPDo-58" style="edgeStyle=orthogonalEdgeStyle;rounded=0;orthogonalLoop=1;jettySize=auto;html=1;entryX=0;entryY=0.5;entryDx=0;entryDy=0;" edge="1" parent="1" source="A-N_aQ1E-9cqWO8VtPDo-19" target="A-N_aQ1E-9cqWO8VtPDo-7">
          <mxGeometry relative="1" as="geometry">
            <Array as="points">
              <mxPoint x="220" y="-523" />
              <mxPoint x="220" y="-145" />
            </Array>
          </mxGeometry>
        </mxCell>
        <mxCell id="A-N_aQ1E-9cqWO8VtPDo-19" value="" style="outlineConnect=0;dashed=0;verticalLabelPosition=bottom;verticalAlign=top;align=center;html=1;shape=mxgraph.aws3.sqs;fillColor=#D9A741;gradientColor=none;" vertex="1" parent="1">
          <mxGeometry x="440" y="-570" width="76.5" height="93" as="geometry" />
        </mxCell>
        <mxCell id="A-N_aQ1E-9cqWO8VtPDo-20" value="SQS" style="text;strokeColor=none;fillColor=none;html=1;fontSize=24;fontStyle=1;verticalAlign=middle;align=center;" vertex="1" parent="1">
          <mxGeometry x="428.64" y="-620" width="100" height="40" as="geometry" />
        </mxCell>
        <mxCell id="A-N_aQ1E-9cqWO8VtPDo-61" style="edgeStyle=orthogonalEdgeStyle;rounded=0;orthogonalLoop=1;jettySize=auto;html=1;entryX=0;entryY=0.5;entryDx=0;entryDy=0;" edge="1" parent="1" source="A-N_aQ1E-9cqWO8VtPDo-21" target="A-N_aQ1E-9cqWO8VtPDo-23">
          <mxGeometry relative="1" as="geometry" />
        </mxCell>
        <mxCell id="A-N_aQ1E-9cqWO8VtPDo-21" value="" style="sketch=0;pointerEvents=1;shadow=0;dashed=0;html=1;strokeColor=none;fillColor=#505050;labelPosition=center;verticalLabelPosition=bottom;verticalAlign=top;outlineConnect=0;align=center;shape=mxgraph.office.users.call_center_agent;" vertex="1" parent="1">
          <mxGeometry x="620" y="-180" width="46" height="55" as="geometry" />
        </mxCell>
        <mxCell id="A-N_aQ1E-9cqWO8VtPDo-22" value="Agente CCT" style="text;strokeColor=none;fillColor=none;html=1;fontSize=24;fontStyle=1;verticalAlign=middle;align=center;" vertex="1" parent="1">
          <mxGeometry x="598.25" y="-230" width="100" height="40" as="geometry" />
        </mxCell>
        <mxCell id="A-N_aQ1E-9cqWO8VtPDo-73" style="edgeStyle=orthogonalEdgeStyle;rounded=0;orthogonalLoop=1;jettySize=auto;html=1;" edge="1" parent="1" source="A-N_aQ1E-9cqWO8VtPDo-23" target="A-N_aQ1E-9cqWO8VtPDo-65">
          <mxGeometry relative="1" as="geometry" />
        </mxCell>
        <mxCell id="A-N_aQ1E-9cqWO8VtPDo-23" value="" style="rounded=0;whiteSpace=wrap;html=1;fillColor=#dae8fc;strokeColor=#0066CC;" vertex="1" parent="1">
          <mxGeometry x="820" y="-252.5" width="330" height="200" as="geometry" />
        </mxCell>
        <mxCell id="A-N_aQ1E-9cqWO8VtPDo-24" value="" style="endArrow=none;html=1;rounded=0;exitX=0.5;exitY=1;exitDx=0;exitDy=0;fillColor=#1ba1e2;strokeColor=#006EAF;" edge="1" parent="1" source="A-N_aQ1E-9cqWO8VtPDo-23">
          <mxGeometry width="50" height="50" relative="1" as="geometry">
            <mxPoint x="990" y="-62.5" as="sourcePoint" />
            <mxPoint x="989" y="-252.5" as="targetPoint" />
            <Array as="points" />
          </mxGeometry>
        </mxCell>
        <mxCell id="A-N_aQ1E-9cqWO8VtPDo-26" value="" style="shape=image;verticalLabelPosition=bottom;labelBackgroundColor=default;verticalAlign=top;aspect=fixed;imageAspect=0;image=https://cdn3.iconfinder.com/data/icons/logos-and-brands-adobe/512/168_Hubspot-512.png;" vertex="1" parent="1">
          <mxGeometry x="1010" y="-207.5" width="110" height="110" as="geometry" />
        </mxCell>
        <mxCell id="A-N_aQ1E-9cqWO8VtPDo-27" value="" style="rounded=1;whiteSpace=wrap;html=1;fillColor=#1ba1e2;strokeColor=#006EAF;fontColor=#ffffff;" vertex="1" parent="1">
          <mxGeometry x="840" y="-167.5" width="60" height="15" as="geometry" />
        </mxCell>
        <mxCell id="A-N_aQ1E-9cqWO8VtPDo-28" value="" style="rounded=1;whiteSpace=wrap;html=1;fillColor=#1ba1e2;fontColor=#ffffff;strokeColor=#006EAF;" vertex="1" parent="1">
          <mxGeometry x="910" y="-167.5" width="60" height="15" as="geometry" />
        </mxCell>
        <mxCell id="A-N_aQ1E-9cqWO8VtPDo-29" value="" style="rounded=1;whiteSpace=wrap;html=1;fillColor=#1ba1e2;strokeColor=#006EAF;fontColor=#ffffff;" vertex="1" parent="1">
          <mxGeometry x="840" y="-137.5" width="60" height="15" as="geometry" />
        </mxCell>
        <mxCell id="A-N_aQ1E-9cqWO8VtPDo-30" value="" style="rounded=1;whiteSpace=wrap;html=1;fillColor=#1ba1e2;strokeColor=#006EAF;fontColor=#ffffff;" vertex="1" parent="1">
          <mxGeometry x="910" y="-137.5" width="60" height="15" as="geometry" />
        </mxCell>
        <mxCell id="A-N_aQ1E-9cqWO8VtPDo-31" value="GUARDAR" style="rounded=1;whiteSpace=wrap;html=1;fillColor=#1ba1e2;strokeColor=#006EAF;fontColor=#ffffff;" vertex="1" parent="1">
          <mxGeometry x="840" y="-103.75" width="130" height="31.25" as="geometry" />
        </mxCell>
        <mxCell id="A-N_aQ1E-9cqWO8VtPDo-33" value="&lt;h1 style=&quot;line-height: 50%;&quot;&gt;&lt;span style=&quot;background-color: initial; font-weight: normal;&quot;&gt;&lt;font style=&quot;font-size: 10px;&quot;&gt;Lorem ipsum dolor sit amet, consectetur adipisicing elit, sed do eiusmod tempor incididunt ut labore et dolore magna aliqua.&lt;/font&gt;&lt;/span&gt;&lt;br&gt;&lt;/h1&gt;" style="text;html=1;strokeColor=none;fillColor=none;spacing=5;spacingTop=-20;whiteSpace=wrap;overflow=hidden;rounded=0;" vertex="1" parent="1">
          <mxGeometry x="840" y="-241.25" width="140" height="58.75" as="geometry" />
        </mxCell>
        <mxCell id="A-N_aQ1E-9cqWO8VtPDo-40" style="edgeStyle=orthogonalEdgeStyle;rounded=0;orthogonalLoop=1;jettySize=auto;html=1;" edge="1" parent="1" source="A-N_aQ1E-9cqWO8VtPDo-34" target="A-N_aQ1E-9cqWO8VtPDo-35">
          <mxGeometry relative="1" as="geometry" />
        </mxCell>
        <mxCell id="A-N_aQ1E-9cqWO8VtPDo-34" value="" style="shape=image;html=1;verticalAlign=top;verticalLabelPosition=bottom;labelBackgroundColor=#ffffff;imageAspect=0;aspect=fixed;image=https://cdn3.iconfinder.com/data/icons/brands-applications/512/Volkswagen_2-128.png" vertex="1" parent="1">
          <mxGeometry x="758.64" y="-1080" width="70" height="70" as="geometry" />
        </mxCell>
        <mxCell id="A-N_aQ1E-9cqWO8VtPDo-41" style="edgeStyle=orthogonalEdgeStyle;rounded=0;orthogonalLoop=1;jettySize=auto;html=1;" edge="1" parent="1" source="A-N_aQ1E-9cqWO8VtPDo-35" target="A-N_aQ1E-9cqWO8VtPDo-3">
          <mxGeometry relative="1" as="geometry" />
        </mxCell>
        <mxCell id="A-N_aQ1E-9cqWO8VtPDo-35" value="Form" style="html=1;whiteSpace=wrap;strokeColor=none;fillColor=#004C99;labelPosition=center;verticalLabelPosition=middle;verticalAlign=top;align=center;fontSize=12;outlineConnect=0;spacingTop=-6;fontColor=#FFFFFF;sketch=0;shape=mxgraph.sitemap.form;" vertex="1" parent="1">
          <mxGeometry x="733.64" y="-920" width="120" height="70" as="geometry" />
        </mxCell>
        <mxCell id="A-N_aQ1E-9cqWO8VtPDo-63" style="edgeStyle=orthogonalEdgeStyle;rounded=0;orthogonalLoop=1;jettySize=auto;html=1;entryX=0.5;entryY=0;entryDx=0;entryDy=0;" edge="1" parent="1" source="A-N_aQ1E-9cqWO8VtPDo-36" target="A-N_aQ1E-9cqWO8VtPDo-62">
          <mxGeometry relative="1" as="geometry" />
        </mxCell>
        <mxCell id="A-N_aQ1E-9cqWO8VtPDo-36" value="" style="shape=image;verticalLabelPosition=bottom;labelBackgroundColor=default;verticalAlign=top;aspect=fixed;imageAspect=0;image=https://cdn3.iconfinder.com/data/icons/logos-and-brands-adobe/512/168_Hubspot-512.png;" vertex="1" parent="1">
          <mxGeometry x="731" y="-430" width="110" height="110" as="geometry" />
        </mxCell>
        <mxCell id="A-N_aQ1E-9cqWO8VtPDo-76" style="edgeStyle=orthogonalEdgeStyle;rounded=0;orthogonalLoop=1;jettySize=auto;html=1;" edge="1" parent="1" source="A-N_aQ1E-9cqWO8VtPDo-38">
          <mxGeometry relative="1" as="geometry">
            <mxPoint x="450" y="317.2000000000003" as="targetPoint" />
          </mxGeometry>
        </mxCell>
        <mxCell id="A-N_aQ1E-9cqWO8VtPDo-38" value="" style="dashed=0;outlineConnect=0;html=1;align=center;labelPosition=center;verticalLabelPosition=bottom;verticalAlign=top;shape=mxgraph.weblogos.json" vertex="1" parent="1">
          <mxGeometry x="250" y="284.30000000000007" width="60" height="65.8" as="geometry" />
        </mxCell>
        <mxCell id="A-N_aQ1E-9cqWO8VtPDo-57" style="edgeStyle=orthogonalEdgeStyle;rounded=0;orthogonalLoop=1;jettySize=auto;html=1;entryX=1;entryY=0.5;entryDx=0;entryDy=0;" edge="1" parent="1" source="A-N_aQ1E-9cqWO8VtPDo-44" target="A-N_aQ1E-9cqWO8VtPDo-50">
          <mxGeometry relative="1" as="geometry">
            <Array as="points">
              <mxPoint x="1310" y="-660" />
            </Array>
          </mxGeometry>
        </mxCell>
        <mxCell id="A-N_aQ1E-9cqWO8VtPDo-44" value="" style="dashed=0;outlineConnect=0;html=1;align=center;labelPosition=center;verticalLabelPosition=bottom;verticalAlign=top;shape=mxgraph.weblogos.json" vertex="1" parent="1">
          <mxGeometry x="1280" y="-530" width="60" height="65.8" as="geometry" />
        </mxCell>
        <mxCell id="A-N_aQ1E-9cqWO8VtPDo-50" value="call_count &amp;gt; 1" style="rhombus;whiteSpace=wrap;html=1;" vertex="1" parent="1">
          <mxGeometry x="1140" y="-705" width="105" height="90" as="geometry" />
        </mxCell>
        <mxCell id="A-N_aQ1E-9cqWO8VtPDo-59" value="" style="dashed=0;outlineConnect=0;html=1;align=center;labelPosition=center;verticalLabelPosition=bottom;verticalAlign=top;shape=mxgraph.weblogos.json" vertex="1" parent="1">
          <mxGeometry x="190" y="-370" width="60" height="65.8" as="geometry" />
        </mxCell>
        <mxCell id="A-N_aQ1E-9cqWO8VtPDo-64" style="edgeStyle=orthogonalEdgeStyle;rounded=0;orthogonalLoop=1;jettySize=auto;html=1;" edge="1" parent="1" source="A-N_aQ1E-9cqWO8VtPDo-62">
          <mxGeometry relative="1" as="geometry">
            <mxPoint x="1070" y="-250" as="targetPoint" />
            <Array as="points">
              <mxPoint x="1070" y="-251" />
            </Array>
          </mxGeometry>
        </mxCell>
        <mxCell id="A-N_aQ1E-9cqWO8VtPDo-62" value="Integracion CRM" style="text;strokeColor=default;fillColor=none;html=1;fontSize=24;fontStyle=1;verticalAlign=middle;align=center;rounded=0;" vertex="1" parent="1">
          <mxGeometry x="900" y="-340" width="240" height="40" as="geometry" />
        </mxCell>
        <mxCell id="A-N_aQ1E-9cqWO8VtPDo-65" value="Tipifico y&amp;nbsp;&lt;br&gt;Guardo?" style="rhombus;whiteSpace=wrap;html=1;" vertex="1" parent="1">
          <mxGeometry x="1200" y="-197.5" width="105" height="90" as="geometry" />
        </mxCell>
        <mxCell id="A-N_aQ1E-9cqWO8VtPDo-71" style="edgeStyle=orthogonalEdgeStyle;rounded=0;orthogonalLoop=1;jettySize=auto;html=1;entryX=0;entryY=0.5;entryDx=0;entryDy=0;entryPerimeter=0;" edge="1" parent="1" source="A-N_aQ1E-9cqWO8VtPDo-66" target="A-N_aQ1E-9cqWO8VtPDo-9">
          <mxGeometry relative="1" as="geometry" />
        </mxCell>
        <mxCell id="A-N_aQ1E-9cqWO8VtPDo-66" value="&lt;font style=&quot;font-size: 20px;&quot;&gt;Si&lt;/font&gt;" style="text;html=1;strokeColor=none;fillColor=none;align=center;verticalAlign=middle;whiteSpace=wrap;rounded=0;" vertex="1" parent="1">
          <mxGeometry x="1222.5" y="-237.5" width="60" height="30" as="geometry" />
        </mxCell>
        <mxCell id="A-N_aQ1E-9cqWO8VtPDo-72" style="edgeStyle=orthogonalEdgeStyle;rounded=0;orthogonalLoop=1;jettySize=auto;html=1;exitX=0.5;exitY=1;exitDx=0;exitDy=0;" edge="1" parent="1" source="A-N_aQ1E-9cqWO8VtPDo-67">
          <mxGeometry relative="1" as="geometry">
            <mxPoint x="985" y="-53" as="targetPoint" />
            <Array as="points">
              <mxPoint x="1253" />
              <mxPoint x="985" />
              <mxPoint x="985" y="-53" />
            </Array>
          </mxGeometry>
        </mxCell>
        <mxCell id="A-N_aQ1E-9cqWO8VtPDo-67" value="&lt;font style=&quot;font-size: 20px;&quot;&gt;No&lt;/font&gt;" style="text;html=1;strokeColor=none;fillColor=none;align=center;verticalAlign=middle;whiteSpace=wrap;rounded=0;" vertex="1" parent="1">
          <mxGeometry x="1222.5" y="-87.5" width="60" height="30" as="geometry" />
        </mxCell>
        <mxCell id="A-N_aQ1E-9cqWO8VtPDo-86" style="edgeStyle=orthogonalEdgeStyle;rounded=0;orthogonalLoop=1;jettySize=auto;html=1;" edge="1" parent="1" source="A-N_aQ1E-9cqWO8VtPDo-68">
          <mxGeometry relative="1" as="geometry">
            <mxPoint x="850" y="-580" as="targetPoint" />
          </mxGeometry>
        </mxCell>
        <mxCell id="A-N_aQ1E-9cqWO8VtPDo-68" value="&lt;font style=&quot;font-size: 20px;&quot;&gt;Si&lt;/font&gt;" style="text;html=1;strokeColor=none;fillColor=none;align=center;verticalAlign=middle;whiteSpace=wrap;rounded=0;" vertex="1" parent="1">
          <mxGeometry x="1162.5" y="-740" width="60" height="30" as="geometry" />
        </mxCell>
        <mxCell id="A-N_aQ1E-9cqWO8VtPDo-87" style="edgeStyle=orthogonalEdgeStyle;rounded=0;orthogonalLoop=1;jettySize=auto;html=1;entryX=0.5;entryY=0;entryDx=0;entryDy=0;" edge="1" parent="1" source="A-N_aQ1E-9cqWO8VtPDo-70" target="A-N_aQ1E-9cqWO8VtPDo-89">
          <mxGeometry relative="1" as="geometry">
            <mxPoint x="950" y="-620" as="targetPoint" />
            <Array as="points">
              <mxPoint x="1020" y="-660" />
            </Array>
          </mxGeometry>
        </mxCell>
        <mxCell id="A-N_aQ1E-9cqWO8VtPDo-70" value="&lt;font style=&quot;font-size: 20px;&quot;&gt;No&lt;/font&gt;" style="text;html=1;strokeColor=none;fillColor=none;align=center;verticalAlign=middle;whiteSpace=wrap;rounded=0;" vertex="1" parent="1">
          <mxGeometry x="1090" y="-675" width="60" height="30" as="geometry" />
        </mxCell>
        <mxCell id="A-N_aQ1E-9cqWO8VtPDo-79" value="" style="edgeStyle=orthogonalEdgeStyle;rounded=0;orthogonalLoop=1;jettySize=auto;html=1;" edge="1" parent="1" source="A-N_aQ1E-9cqWO8VtPDo-12" target="A-N_aQ1E-9cqWO8VtPDo-78">
          <mxGeometry relative="1" as="geometry">
            <mxPoint x="500" y="160" as="sourcePoint" />
            <mxPoint x="418" y="-110" as="targetPoint" />
            <Array as="points">
              <mxPoint x="500" y="103" />
              <mxPoint x="417" y="103" />
            </Array>
          </mxGeometry>
        </mxCell>
        <mxCell id="A-N_aQ1E-9cqWO8VtPDo-78" value="" style="sketch=0;outlineConnect=0;fontColor=#232F3E;gradientColor=none;fillColor=#B0084D;strokeColor=none;dashed=0;verticalLabelPosition=bottom;verticalAlign=top;align=center;html=1;fontSize=12;fontStyle=0;aspect=fixed;pointerEvents=1;shape=mxgraph.aws4.systems_manager_change_manager;" vertex="1" parent="1">
          <mxGeometry x="378.14" y="-30" width="78" height="78" as="geometry" />
        </mxCell>
        <mxCell id="A-N_aQ1E-9cqWO8VtPDo-81" style="edgeStyle=orthogonalEdgeStyle;rounded=0;orthogonalLoop=1;jettySize=auto;html=1;" edge="1" parent="1">
          <mxGeometry relative="1" as="geometry">
            <mxPoint x="797" y="-500" as="sourcePoint" />
            <mxPoint x="797" y="-470" as="targetPoint" />
            <Array as="points">
              <mxPoint x="797" y="-480" />
              <mxPoint x="797" y="-480" />
            </Array>
          </mxGeometry>
        </mxCell>
        <mxCell id="A-N_aQ1E-9cqWO8VtPDo-83" style="edgeStyle=orthogonalEdgeStyle;rounded=0;orthogonalLoop=1;jettySize=auto;html=1;entryX=1;entryY=0.5;entryDx=0;entryDy=0;entryPerimeter=0;" edge="1" parent="1" source="A-N_aQ1E-9cqWO8VtPDo-80" target="A-N_aQ1E-9cqWO8VtPDo-19">
          <mxGeometry relative="1" as="geometry" />
        </mxCell>
        <mxCell id="A-N_aQ1E-9cqWO8VtPDo-80" value="Verifica el horario y el dia para asignar a una cola u otra" style="rounded=0;whiteSpace=wrap;html=1;" vertex="1" parent="1">
          <mxGeometry x="676.64" y="-553.5" width="233.36" height="60" as="geometry" />
        </mxCell>
        <mxCell id="A-N_aQ1E-9cqWO8VtPDo-84" value="Hubspot" style="text;strokeColor=none;fillColor=none;html=1;fontSize=24;fontStyle=1;verticalAlign=middle;align=center;" vertex="1" parent="1">
          <mxGeometry x="748.64" y="-470" width="100" height="40" as="geometry" />
        </mxCell>
        <mxCell id="A-N_aQ1E-9cqWO8VtPDo-85" value="Cambios&lt;br&gt;Plugin" style="text;strokeColor=none;fillColor=none;html=1;fontSize=24;fontStyle=1;verticalAlign=middle;align=center;" vertex="1" parent="1">
          <mxGeometry x="470.27" y="-6.75" width="100" height="40" as="geometry" />
        </mxCell>
        <mxCell id="A-N_aQ1E-9cqWO8VtPDo-91" style="edgeStyle=orthogonalEdgeStyle;rounded=0;orthogonalLoop=1;jettySize=auto;html=1;" edge="1" parent="1" source="A-N_aQ1E-9cqWO8VtPDo-88" target="A-N_aQ1E-9cqWO8VtPDo-36">
          <mxGeometry relative="1" as="geometry">
            <Array as="points">
              <mxPoint x="1020" y="-410" />
            </Array>
          </mxGeometry>
        </mxCell>
        <mxCell id="A-N_aQ1E-9cqWO8VtPDo-88" value="" style="html=1;whiteSpace=wrap;shape=isoCube2;backgroundOutline=1;isoAngle=15;fillColor=#000033;strokeColor=#000033;fontColor=#ffffff;" vertex="1" parent="1">
          <mxGeometry x="975" y="-548.5" width="90" height="100" as="geometry" />
        </mxCell>
        <mxCell id="A-N_aQ1E-9cqWO8VtPDo-89" value="HDL" style="text;strokeColor=none;fillColor=none;html=1;fontSize=24;fontStyle=1;verticalAlign=middle;align=center;" vertex="1" parent="1">
          <mxGeometry x="970" y="-598.5" width="100" height="40" as="geometry" />
        </mxCell>
        <mxCell id="A-N_aQ1E-9cqWO8VtPDo-90" value="" style="shape=image;verticalLabelPosition=bottom;labelBackgroundColor=default;verticalAlign=top;aspect=fixed;imageAspect=0;image=data:image/png,iVBORw0KGgoAAAANSUhEUgAAAnYAAAFGCAYAAADnxtLJAAAMP2lDQ1BJQ0MgUHJvZmlsZQAASImVVwdYU8kWnltSIbQAAlJCb4JIDSAlhBZ6RxCVkAQIJcZAULGjiwquXSxgQ1dFFKyAWFDEzqLY+2JBRVkXC3blTQrouq98b75v7vz3nzP/OXPuzL13AFA/zhWL81ANAPJFhZK4kADGmJRUBukpIAJ9oAXIgMzlFYhZMTERAJbB9u/l3XWAyNorDjKtf/b/16LJFxTwAEBiIM7gF/DyIT4AAF7FE0sKASDKePPJhWIZhhVoS2CAEC+Q4SwFrpLhDAXeI7dJiGND3AYAWZXLlWQBoHYJ8owiXhbUUOuD2EnEF4oAUGdA7JufP5EPcTrENtBGDLFMn5nxg07W3zQzhjS53KwhrJiLvJADhQXiPO7U/zMd/7vk50kHfVjBqpotCY2TzRnm7WbuxHAZVoW4V5QRFQ2xFsQfhHy5PcQoNVsamqiwRw15BWyYM6ALsROfGxgOsSHEwaK8qAgln5EpDOZADFcIOkVYyEmAWA/iBYKCoHilzSbJxDilL7QhU8JmKfmzXIncr8zXfWluIkup/zpbwFHqY2rF2QnJEFMhtigSJkVBrAaxY0FufLjSZnRxNjtq0EYijZPFbwFxnEAUEqDQx4oyJcFxSvuy/ILB+WKbsoWcKCXeV5idEKrID9bG48rjh3PBLglErMRBHUHBmIjBufAFgUGKuWPPBKLEeKXOB3FhQJxiLE4V58Uo7XEzQV6IjDeD2LWgKF45Fk8qhAtSoY9nigtjEhRx4sU53LAYRTz4UhAB2CAQMIAU1gwwEeQAYUdvYy+8U/QEAy6QgCwgAA5KZnBEsrxHBK/xoBj8CZEAFAyNC5D3CkAR5L8OsYqrA8iU9xbJR+SCJxDng3CQB++l8lGiIW9J4DFkhP/wzoWVB+PNg1XW/+/5QfY7w4JMhJKRDnpkqA9aEoOIgcRQYjDRFjfAfXFvPAJe/WF1xpm45+A8vtsTnhA6CQ8J1whdhFsThCWSn6KMBF1QP1iZi4wfc4FbQU03PAD3gepQGdfFDYAD7gr9sHA/6NkNsmxl3LKsMH7S/tsMfngaSjuKEwWlDKP4U2x+Hqlmp+Y2pCLL9Y/5UcSaMZRv9lDPz/7ZP2SfD9vwny2xBdh+7Ax2AjuHHcEaAQNrwZqwduyoDA+trsfy1TXoLU4eTy7UEf7D3+CTlWWywKnWqcfpi6KvUDBF9o4G7IniqRJhVnYhgwW/CAIGR8RzHMFwdnJ2AUD2fVG8vt7Eyr8biG77d27uHwD4tAwMDBz+zoW1ALDXA27/Q985Gyb8dKgAcPYQTyopUnC47EKAbwl1uNP0gTEwBzZwPs7AHXgDfxAEwkA0SAApYDyMPhuucwmYDKaDOaAUlIOlYBVYBzaCLWAH2A32gUZwBJwAp8EFcAlcA3fg6ukGL0AfeAc+IwhCQmgIHdFHTBBLxB5xRpiILxKERCBxSAqSjmQhIkSKTEfmIuXIcmQdshmpQfYih5ATyDmkE7mFPEB6kNfIJxRDVVFt1Ai1QkeiTJSFhqMJ6Dg0C52EFqPz0MXoGrQa3YU2oCfQC+g1tAt9gfZjAFPBdDFTzAFjYmwsGkvFMjEJNhMrwyqwaqwOa4bP+QrWhfViH3EiTscZuANcwaF4Is7DJ+Ez8UX4OnwH3oC34VfwB3gf/o1AIxgS7AleBA5hDCGLMJlQSqggbCMcJJyCe6mb8I5IJOoSrYkecC+mEHOI04iLiOuJ9cTjxE7iI2I/iUTSJ9mTfEjRJC6pkFRKWkvaRWohXSZ1kz6QVcgmZGdyMDmVLCKXkCvIO8nHyJfJT8mfKRoUS4oXJZrCp0ylLKFspTRTLlK6KZ+pmlRrqg81gZpDnUNdQ62jnqLepb5RUVExU/FUiVURqsxWWaOyR+WsygOVj6paqnaqbNU0VanqYtXtqsdVb6m+odFoVjR/WiqtkLaYVkM7SbtP+6BGV3NU46jx1WapVao1qF1We6lOUbdUZ6mPVy9Wr1Dfr35RvVeDomGlwdbgaszUqNQ4pHFDo1+TrjlKM1ozX3OR5k7Nc5rPtEhaVlpBWnyteVpbtE5qPaJjdHM6m86jz6VvpZ+id2sTta21Odo52uXau7U7tPt0tHRcdZJ0puhU6hzV6dLFdK10Obp5ukt09+le1/00zGgYa5hg2MJhdcMuD3uvN1zPX0+gV6ZXr3dN75M+Qz9IP1d/mX6j/j0D3MDOINZgssEGg1MGvcO1h3sP5w0vG75v+G1D1NDOMM5wmuEWw3bDfiNjoxAjsdFao5NGvca6xv7GOcYrjY8Z95jQTXxNhCYrTVpMnjN0GCxGHmMNo43RZ2poGmoqNd1s2mH62czaLNGsxKze7J451Zxpnmm+0rzVvM/CxCLSYrpFrcVtS4ol0zLbcrXlGcv3VtZWyVbzrRqtnlnrWXOsi61rre/a0Gz8bCbZVNtctSXaMm1zbdfbXrJD7dzssu0q7S7ao/bu9kL79fadIwgjPEeIRlSPuOGg6sByKHKodXjgqOsY4Vji2Oj4cqTFyNSRy0aeGfnNyc0pz2mr051RWqPCRpWMah712tnOmedc6XzVheYS7DLLpcnllau9q8B1g+tNN7pbpNt8t1a3r+4e7hL3OvceDwuPdI8qjxtMbWYMcxHzrCfBM8BzlucRz49e7l6FXvu8/vJ28M713un9bLT1aMHoraMf+Zj5cH02+3T5MnzTfTf5dvmZ+nH9qv0e+pv78/23+T9l2bJyWLtYLwOcAiQBBwPes73YM9jHA7HAkMCywI4graDEoHVB94PNgrOCa4P7QtxCpoUcDyWEhocuC73BMeLwODWcvjCPsBlhbeGq4fHh68IfRthFSCKaI9HIsMgVkXejLKNEUY3RIJoTvSL6Xox1zKSYw7HE2JjYytgncaPipsediafHT4jfGf8uISBhScKdRJtEaWJrknpSWlJN0vvkwOTlyV1jRo6ZMeZCikGKMKUplZSalLottX9s0NhVY7vT3NJK066Psx43Zdy58Qbj88YfnaA+gTthfzohPTl9Z/oXbjS3mtufwcmoyujjsXmreS/4/vyV/B6Bj2C54GmmT+byzGdZPlkrsnqy/bIrsnuFbOE64auc0JyNOe9zo3O35w7kJefV55Pz0/MPibREuaK2icYTp0zsFNuLS8Vdk7wmrZrUJwmXbCtACsYVNBVqwx/5dqmN9BfpgyLfosqiD5OTJu+fojlFNKV9qt3UhVOfFgcX/zYNn8ab1jrddPqc6Q9msGZsnonMzJjZOst81rxZ3bNDZu+YQ52TO+f3EqeS5SVv5ybPbZ5nNG/2vEe/hPxSW6pWKim9Md97/sYF+ALhgo6FLgvXLvxWxi87X+5UXlH+ZRFv0flfR/265teBxZmLO5a4L9mwlLhUtPT6Mr9lO5ZrLi9e/mhF5IqGlYyVZSvfrpqw6lyFa8XG1dTV0tVdayLWNK21WLt07Zd12euuVQZU1lcZVi2ser+ev/7yBv8NdRuNNpZv/LRJuOnm5pDNDdVW1RVbiFuKtjzZmrT1zG/M32q2GWwr3/Z1u2h71464HW01HjU1Ow13LqlFa6W1PbvSdl3aHbi7qc6hbnO9bn35HrBHuuf53vS91/eF72vdz9xfd8DyQNVB+sGyBqRhakNfY3ZjV1NKU+ehsEOtzd7NBw87Ht5+xPRI5VGdo0uOUY/NOzbQUtzSf1x8vPdE1olHrRNa75wcc/JqW2xbx6nwU2dPB58+eYZ1puWsz9kj57zOHTrPPN94wf1CQ7tb+8Hf3X4/2OHe0XDR42LTJc9LzZ2jO49d9rt84krgldNXOVcvXIu61nk98frNG2k3um7ybz67lXfr1e2i25/vzL5LuFt2T+NexX3D+9V/2P5R3+XedfRB4IP2h/EP7zziPXrxuODxl+55T2hPKp6aPK155vzsSE9wz6XnY593vxC/+Nxb+qfmn1UvbV4e+Mv/r/a+MX3drySvBl4veqP/Zvtb17et/TH999/lv/v8vuyD/ocdH5kfz3xK/vT08+QvpC9rvtp+bf4W/u3uQP7AgJgr4cp/BTBY0cxMAF5vB4CWAgAdns+oYxXnP3lBFGdWOQL/CSvOiPLiDkAd/H+P7YV/NzcA2LMVHr+gvnoaADE0ABI8AeriMlQHz2ryc6WsEOE5YBPna0Z+Bvg3RXHm/CHun1sgU3UFP7f/AmmufERP/utEAAAAOGVYSWZNTQAqAAAACAABh2kABAAAAAEAAAAaAAAAAAACoAIABAAAAAEAAAJ2oAMABAAAAAEAAAFGAAAAALqXMYMAAEAASURBVHgB7Z0JnBXVlf/rvSeCQksEBcGtm9FANyAa4zg6GiUxRo0ZGlAz6kg3IFvP38wC/OefqHQ3YjIztM6SGVAQBJJoNMoSYxzJ4hJNjDHjSjdEY3dAQVFwARSEfvWvAxa8fv1erbfqnnvv730+0O9V3eXc77l16tw9Y+EDAikSWLNmzeDi7DZv3tyy9e23ry6+Xu531ZAhE/v27bu28P6YMWM2F/7GdxAAARAIS6DYPr3w/PNvhkmjlG2i+LBPYSgibFwCmbgJIL7ZBFxD6BrAwYMHW9dPmcIGytzm5v2yDBg48F5HtlkwsGxUA0FAIBUCro169dVXX9q1c2d/bjbq5ptusnr06GG5NoqgwE6lUjW0zQSOnbaqFVewFStW1Le//vrd3AyiiBKS49e7T59tp5566mkwpiKIIg0QkEOAHDhqYO7du9e6Zd48OUIklCvsVEJgkSwI6E5g4cKF99x04402Prbd3NRkk0Oru85RPhBQkQBs1QErvX79etgqFStwwjKjxy5hwByTp5YtDUu8/957/XVr2SbJm1rNp59xxvHo2UuSMtIGga4EqIH1hw0b7oat6srF6xfZKprvN2HChGVe4XAPBEBAUQJkGKkHCh+xBIipO39H0aoBsUGAHQGyVxg5EGurqGevpaXlXXbKhkAgAALBCMAwijWKQVKD4QxWNxEKBEoRQMMziJURGwYN01I1EddAgBEBGEaxRi9uatTjwKh6QBQQYEWAGp+LFy2K+5ghviAC1DCleYusKgmEAQHTCMAwCrJoKSQDJ8+0pxPlLUWAbBY5EPjwJ0A2C9NMStViNa5h8YQaetovJbWoRo8effXQoUMVkhqiFhKgPavm3XornrtCKPiuLQFy5vbs3n03p70ttYWdUMHuWrzY6tmrFxZiJMQXyRpIgJw5tHL5t3CjSIjJzAY+0IYUGYsfolgE/nFo+JycdUOqMYoJAuIIwJnjb+BESkjGUlztQUogIIcA2S2RzwXS4k0AU0zkPGfIVTECmEzM25ClIR29HBWrthDXcAJYuJWGZeCdB0YfeBkBzPWRrA96kU+fPv1qyWIge2YEaIPRxqYmPJ/M9AJxDhBYtWpV5bvvvNOOuXOoEYUEaD7eMcceWzV27NiOwuv4DgJGEEDvHO8WKBfpqDfEiAcChVSCADl0XJ4NyMGbAHrxlHikIWRcAjTplPejCOm4EsB8lrhPH+LHIQCHjqtl4C8X5hDHefKixcVQTzRuoWJhuDUULgT2IEBDHVOmTsVz68EIt8QRIIeutra2XVyKSMlUAhs2bLDa2towTGtqBdCl3JhUzL81qaqEGKLVxUrwLQe2WVLVOvCXG4vE+D73kKwMATh0/A2LLhLCQJZ5CHE5MgHsQaeLdeBfDtivyI8pIqZFAA4df0Oiq4Q0ZJZWPUc+ehKgye66Ph8oF28CcPDE2hTM1RHAkxy6OY2NAlJCEiAQnQDNYRk2bBie6egIjYyJeXRGqp1loe+44457Z8yYcQ1L4RQSKquQrOxEdXvo4NSxU42RAtEZwtQuxzYDRqo/UqFp2BWLIyKhQ6QECNCermTDMAIRDy5a9xH4LVu2bGpdXd2dEaIiCgikRiDjfFLLDBkpRQA2TCl1GSssbFg01aPHLiQ3ak3AqQsJDcGlEKC6it47KehZZ0qrXWHDWKsIwn1KgGwY9vAMXx3g2AVk5p4UETA4goEACwIzZ87sT8aRhTAQQioB6qWjukBD9viAgCoEbpk3b/8UEyywCK4xOHY+rNyVYjgT0QcUbrMmQC90erGzFhLCJUaAej3QS5cYXiScAgHMvwsOGXNwPFjRy9DjNm6BgHIEbr7pJmverbfiuVdOc9EFhh2Lzg4xeRKAHfPWC3rsSvBxV7uWuIVLIKA0AXdYQ+lCQPhABBYsWPAgnLpAqBBIMQKuHcPq2dKKQ8u9iAsMYREQ/NSWgDNnZWVDQ8N4bQtocMFoTjCmjxhcAQwqOvbv7K5s9Nh9ysQ9Rqc7IlwBAT0JOBuBjiMHQM/SmVsqapzCqTNX/6aV3N2/E3OID2kePXYOC/TSHaoQ+GYeAbR49dE5bJk+ukRJwhO4a/Fia8rUqcb7NUb32LkrXsNXH8QAAX0IuC1efUpkXklorhGcOvP0jhJ3JUA91XgOLMtYx4426aQ9vrpWC/wCAXMJwCCqqXtaJIFjwdTUHaROhgDZMpM3ZzeuyxIHXifzICFVfQjgGB91dEkr+HFWtTr6gqTpEzDRnhnVY0dGEC3b9B8s5KgWAWrtUi+QWlKbJy0tfIFTZ57eUeJwBMiembYtSi4cInVD09Dr+PHY2UFdDULyNAmcddZZ1QMHDjzt4Ycfvj/NfJFXMALYziQYJ4QCASIwbNiwv6+oqLhh7dq1/2oCESOGYsljN0GZKCMIiCaAve5EE42fHpy6+AyRgpkETFk1q/VQrHvotZlVGKUGgfgEaK87DMvG5ygqBTh1okgiHRMJmLJqVtseO1oRg1WvJj66KHMSBNBzlwTVcGnCqQvHC6FBwIuAzosqtOyxIwMIp86rSuMeCIQjQD132Nk9HDORoeHUiaSJtEDgwMEEuo5GaNdjh/l0eGRBIDkCOrdyk6MWL+UmZzV/Y2NjvEQQGwRAoCQBHUcjtHLs4NSVrLe4CAJCCcC5E4rTMzHqUaDeUs9AuAkCIBCLgG6LKrRx7ODUxarXiAwCoQjAuQuFK3Jg2LXI6BARBEIR0Mm508Kxg/ELVX8RGARiE9iwYQPtDaWF/YgNI6EEYNcSAotkQcCDgA6NVuUXT8D4edRQ3AKBhAgMHTrUogn9CSVvfLKwa8ZXAQCQRECHZ09px04HBUiqu8gWBGIToD2hdF1VFhtOjARg12LAQ1QQEEBA9WdQWcdOdfAC6h6SAAHpBLANilgV0NGHYlNEaiAAAlEIqOxjKDlHRmXgUSoY4oAAdwI6zEuRzRh2TbYGkD8IdCegom1TzrGD8ete8XAFBDgQUNEAcuBGMsCucdEE5ACB7gRUs21KDcXC+HWvcLgCAlwI4PkMrwmaowhu4bkhBgikSUC1Z1QZx041sGlWOuQFAlwI0HOKo8eCaeOmG2+0sflwMFYIBQKyCajkgygxFKsSUNmVD/mDAAcCOh7TI5IrbJpImkgLBNIhoMr+nex77GAA06mwyAUERBKgnijqkRKZpg5pUW8mbJoOmkQZTCSgyv6drHvsYABNfHRQZt0IqDbxOCn+tKEz7f2HDwiAgNoEmpubraamJrb+E9seO+znpHbFh/Qg4BKgBtqqVasq3d+m/aWyEwM4daZpHuXVlUBjYyPrzdlZOnbUsqUuT3xAAAT0IFBbW9ve3NRk3NAsDUdT2fXQIkoBAiDgEuC8OTu7rsT58+fvmDVrVh8XHv6CAAjoRcCEoVln8cg906dPv1ovzaE0IAACxQQ42rPDioWU+ZuGLJzWLZw6mUpA3iCQMAEalpzrzFFpZDxHJQ4CKl+c+IgLAiCgDgF63rk5d6yGYjFkoU5lhqQgEIfAHGeOChlEnfa8oykk9InDBXFBAATUI8BtTQAbxw4GUb3KDIlBIC6Burq6O+nZV3lxBc0dpA8WR8StDYgPAmoSoDUBjXPmsGnUsXDsqKWrpjohNQiAgAgC1FtPzpFKDp7r0FHvIz4gAAJmE2hyppfQEYEcKEhfPIHFEhyqAWQAAV4E7rjjjnudVWfX8JLqgDS00vWWefM4igaZQAAEJBPgMN9OumNHrXTJekD2IAACTAlwWWSxYsWK+uuuu+5uppggFgiAACMCsp07qY4dnDpGNTEFUe5eutTauGlT4JzsfN6i7m18QIAI3HbbbducrZCOSYsGDQu/+8477Zg7lxZxdfKhkwfCfJy5pFZlZWWYKAirMIEmZ3pG89y50vwraRnjeB2Fa20J0V2nbdSoUVV0e+zYsR0lggm7RC/dLVu23LZ169ZxtAs4PmYRuGvxYmtfZ6fw4Vraf+6wXO5qOHNm1Se3tB0dHdby5cvJCZvWt2/ftWnYsQ8++OBiJ9874fy5WtDjr1OPptXX1y+SURopjh1tcUCr4WQUGHnGJ0CtkYHHHbeyoaFhfPzUxKZADt+LL77YDiMplqsKqZGzt3nzZqtqyJCJ9FJ2ZR4zZsxm9zv9XbNmzWD664Rt2fr221dj8QPRMO9DjdFt27fvnD17dgW30pMde+21116+4oor+qCnj5t2gssja0hWimOHIdjgFYNDSDKA2VxOWusjLgMs0IlLEPFBQH0CZMd279nDskEahC6tuLz00kvHwdELQotPGBnOXeqOHZw6PhXOS5KWlhaWLVkvmYPcg3EMQglhQEAPArLnOiVFkUa92l9//U7MQU6KsLh0ZbxLU3Xs0HMirrIkkZKuRrAcK3Ly6CDncvdxHQRAQD0Cqo8whCVOTl6+s/POiZMmhY2K8CkRSLvXLlXHDr11KdWiENmQETy6X7+qpCcJhxBJStClS5bYMIxS0CNTEBBCQEbPiBDBBSaCxqpAmIKTStO5S82xg1MnuJbETI6W6zdpegh7HDQOExurbOMQRFwQSJeAs5JZ2XlzSZGixRfvbd/ejsZqUoTDp6tdw4O6ismxw0c+AWrRha+S5sWgaQPytQUJQAAEyhEg58U8yxS+xDQagQ8PAuG1Fy1GKj12hDSaeIgligBatdFIogcvGjfEAoGkCMCWRSMLWxaNm8hYGzZssIYNG5aK3yVS7m5prV+/noerbKgU6KHrViUjXUCr19AHCMVmQ4B60SM9vIjUhQBsmdwqTSOYXRSSwI9EPUfqKq+trW1PQG4k6UMAc+h8AEW4jfocARqigEBMAnQaRFVVVaLvqpgiKhmd3BslBddA6KQXUmSTZASnLkm6pdMmI0iVBgsjSvOJc5VWDhPbsOdExskTcUHAZAJ0LBOcumRqANmy1atXVyWTOlL1IkDD4l73495LrBWEPeviqiZ8fJln04WXVv0YaPGqr0OUgCcB9NKlqxfMv0uXN+VGjnVSuSaWMF56Samse7qmbSzcnYC8K6jn8tgjZz0JaLcthEJqgj1LT1m0h+ykyZMT8cESGYptnDMn0W7G9NDzz4m60pvnzk2kcvAvvXwJqdVFq/TkSwIJQEB9AvQ8zZ49u0L9kqhZAuKPqSbp6I72GExqy55EHAJ4/clXDAxVJM84bA6o92GJITwIHCJATsWhX/gmmwDsWToaSKLeC++xQ2VIvjJQDxEmFCfPOWwOSTygYWVAeBBQjQANSeHZ4ac10gnpBp9kCSSxJZnQFhK2g0i2AlDqMIDJM46bAxo3cQkivikEMJ+Ov6axEDJ5HYl+rwvtscP2JslWANHKT1Zac1MnPaGla67+UfJgBGjkAfPpgrGSGYp0hHdPshoQ3WsnzLFLahJgsjjVSB1DFWroqVBKWu0E566QCL6DwCECOBbsEAtVvsG5S05TM2bMGCcydWGOHXrrRKrlUFo0VJHUkuhDueBbEgTg3CVBFWmqTgBOnboahHOXnO5E9toJcezQW5eMsjFUkQzXNFOFc5cmbeTFnQCcOu4a8pePnDuMRvhzChtCZK+dkMUTmCweVoX+4XGKhD8jlULgGVFJW5A1CQJYKJEEVXlpLl2yxKa92PARR4D2EBRxHGhsxw4rYcUp1U0J3d0uCb3+wrnTS58oTXAC1MODKSXBeakSEs6deE2JeP/HduzwshKrWBFKFSsRUhNJAM+LSJpISwUC2ExdBS1FlxHboURnVyqmiJ5tOHalyEq6BqdOEviUs4VzlzJwZCeVAOyaVPypZI6eO7GY4z4zsRZPkDLFFsfc1GhOnbmlN6vkNIHcrBKjtKYSiPuCMpWbauXGIjGxGou7QjZWjx16HsQoEyvFxHBUKRVngqzd2NioksiQFQRCEYBTFwqXFoHRcydOjXGen8g9dvRiElcEc1OiVTANDQ3jzSVgZslp5RO2DDBT9yaUGiMQJmi5exmxQKY7k6hX4mwjF9mxQ29DVHUdikcvdnrBH7qCbyYRwPCFSdo2p6w0AlFfX7/InBKjpIUE4vQ0FaZj+vf3tm9vj8ogklNB478iN9OLKrzq8fAAqK5BMfJj+EIMR6QinwCmlcjXARcJMFUrviai+giReuzg1MlTWPyckQI3Ahi+4KYRyBOFAJy6KNT0jUP1Qd/SpVOyqFPeQjt2ccZ900HBP5eoXjj/kkHCqASoTmDOXVR6iCebAJw62Rrglz/NHW/CArFYiok65S20Yxdn3DdWCTWJjFaMJopMoBiYc5cAVCSZOAE4dYkjVjaD5rlzM7RBNT7RCSxbtmxq2Nih59hh3Dws4kPhqfVCFf3QFXwDge4EMOeuOxNc4UkATh1PvXCTCn5DdI1EObklVI9d3E3zohdNj5hw6vTQY9KlQM9d0oSRvggCcOpEUDQjjdWrV1eZUVLxpaysrBSfaGGK5HXjE40A5iYW1iR8D0Kgcc6caJUNsUAgYQJB6i/CgEAhAdiz6A8lncdbyNLve6hhQRLLL0Hc704AQ7DdmeBKMALYWigYJ4RKjwAWf6XHWrec4ENE12iY5y7wUCx529FFMjsmhmDN1n+c0tPKMuziH4cg4ookEOblIjJfpKUHAQzJRtdjmFG/wI5dk3P0FT7hCaAih2eGGF0J0C7+eKF2ZYJf6RKgCdyog97Mn1q/psI7BO6OHTu2A1ugRKsHYXYkCTQUS8tt6+rq7owmjrmxMAR7QPfPtd0/cre16dHd9qZBzj/rY+df3vo4VMXoYX3G6pU50fl3Ev37ybnVDV8LlYAmgTGUoYkiFSqG6Xbs2bZlMz+2N7Y4NsyxXRutPfbm0NrrlTn+gO2yyIad8I2zqyd+N3QiGkWAHYumzKCNq0COHbZfSFYJ0VLnG+s3bXcs2mm/MmWH/bK1196eqKDk6FVkTrP6ZkZccmb1tY8mmhmTxPE8MlGEAWKYuPL1ybZ/tnfmX7Z22W1OA3RvYlrOWj2t3plhVkX2tE/Or/6/PRPLiGHCNKxYW1sb+SxUhkVKRSSalhPkHOZAjh286/A6oyFY6nYOH1O9GM9teOiYDzufeudD+4VIrVmRJe6dGeoYylHWBdU3B6rbIvNOMy0sqkiTtpl5Be0dUJ3Or9sWPPih/ftxO/PrrE5rl7Ti5Kw+ju0aYR2V+dzyc6pn1EsTJKWM0UAND5pOJwpyBGWglx8cu/AKMMEoPt7aZL9nP2l9Yr8THlAKMcjJ65e9YO251Td8JYXspGSBZ1MKdq0zjbIhqmpAnm2799z37See/iD/O6dX7hN24lNv3meyf+H8+8Kws4ZdtYGdgIIEgv0KDzKIb+Hr2NFqWCycCAdf5946at1uy/9s3Ef2a+GgSA79mey5Vu/sZUedN2xMqP2AJIsdKPv29nY78U0sA0mCQKoTaGlp2Tl79mxtFwE81nqjvT3/mLXPUscMHObML+6f/ZJ1YU2T7/tatfpHh9xHPQ9VtbKKkleIYwePOpw6dG3tPtV2e8fW/I9P3mtvCweEWWia0zIoe+Xnz6y+6vfMRIslDm1gOWvWrD6xEkFkowkEeWGoCuhnrX/nOHS/VFX8/XJnrR7OCMSXrC/VzNfKwYOPEa5aBlnM5FtBAD0cdN2M45Nt37Hf6XzYaeF+EA4E89BHZoZYA7JXXnt29d/cw1zUUOLheQ2FC4EdAkHn7agIa23rdPu9/NMqiu4pc7/sF60v1/yH7/vbMxEmN9FrF14Rfn6GZ8UA8HDAdTKQT7X924a3O3/0WZWGLMJp60DoIzKVVr/c9VoN0WL6RJSaYGacoKvsVKOztrXBceh+pZrYoeU9Jnux04N3m+d7PHSiEiKgQRoOeizHDrDFwg6XmpzQv2v73vg3899/IMpeTXIkFpNr3+zZ1iU1dylvIF0a2E7AJYG/pQjoOmXk8dZG+538T1guiCilBxHXctYR1sDceOv86n9S1n5hKkm4muA3F9azIsCxCw47yLh38NTkhHx43dftnXarnMyZ5Hps9jLrizX/4vlcMBE1kBjovQuEyahAOvbSPdO28J43O++5ep/1vlG6LCzs4ZljrMHZCcpufgx/o1Cb3t/9GmZlX2A4bcIbbPFdv67R4vCcfv+67buPbupcdDEnmWTKcnhmgDV2+C/KPhsyZYuSN3rvolDTL47fy0DVEv9P6ySbti3B5wABWkF7Uc2/K2e/sDdnuBrs5XOUPSu2/fXXcYRYQM40t07VD81FgVPXVXuf2FutH71ypv1M213f7npHzV+0UTYZgWac96ymAgVITVswOR/lXvZ+RV+17ktw6oogbcv/wlqz7qt20WX2PxsaGsazF5KRgNRgLydO2Qcd3aLlkHW/7uU5dw/N58qadZfau+03+AjEUJL+2Yuc1u+/lX1OGIrsKxL2vfNFpE0AcuadRXBa1V9SjrOf5kNvdt51eZJHfqleCbLO3LvK3A1XnFV93YOqlAULNoNryuvZLvvAw7ELDlg1x452Xf9T5+1P563dwQtpcEjaGuVrw9eUfVZURIPhWRW1FlxmnVboF5f6563/YG/L/7z4Mn6XITAwe4WzuXGjMvYLvkcZRZa4XM73KDkUS2PdJdLApRIE6JDsEpfZXqLhxfbOb8OpC6Ghj+zXrVXrvqjc0IZXEd3hWdXqr1eZcO8AATL2Qc6TVJHXI+smwKkLqbi38w9YNOUmZDRpwWkuKD7xCJR07Hr17DkuXrLmxFZpXsATbbfYf+r8j2+aox1xJaXzcB945RxljGPQklP9JUcA8++CEuMbjubRkS75ShhPsofW1dof2s/HS8TQ2LSn30/XXauE/XrhhReqDFVT6GLTItdSkUo6dhMnTSoVFteKCKj0MqQjdd7qvL+oBPgZhkCntdNZVPE5m4ayw8RTISzNw6KPSnVaBa5pyEi9rqQ76oVNIz8Zeaxe92X7I/uPMrLWJs8d9kvWj9d9jb1zp3M9Fl2ZnN7NkotcS7buMMYdDD8Z02Ah5YZa2/q3zi7sT8oVQrPcP5ubW3VGtb4vUkxi5l9hyaFTacQgKtGV6y6w99rbo0ZHvCICvTInWWOGP8z63YUNi4uU5vGzlB/SrcfOawmtR9rG3VJli5PHWm+GU5dA7Xyt89b2BJJlk6Tbg4c5eGxUclAQd8jVBKdu9bqvwKk7qHkxX3bbG62frLuSdc/d7NmzK8SU1sxUujl2L774otYvLFFqzuZy00SllVQ6T7f95++35lcnlbzR6eatPdaDr5zL2jiKUJA7Bw8Ongia0dOghiS1zOljylDVQ+vG2qYdbRi9hoSLucteb9HGzuFipRtalc6TdKkEy62bY1dXVxcspuGh6uvrF3FG8Nu2u294o3Px5zjLqLps+6wdzmrZ0ayNoyjGroNHjgUMriiq/unQnEdirusq13IEaPXrR/Zr5W7jugACdFrHz1v/nq39UqHzRIAaYidRaheTbo5dZWVl7Ix0T0CFF1tH5+3/qbseOJTvE/tdZ0LyGLbGMQlG5GTQhw6iTiJ909Ok7R7oPFdiTEPipvH4RessrH5NSel0SsVTbS3vppRdqGy4d56EKkyCgd9+661uu5h0c+wSzF+bpLm3JB585XyjHA3ZFetjZ587ehnJliPt/GkeDDkf9GlqbEw7e+3yI0eZWNLRX6a+1Gik4d38o9rplnOB3uxc3p+rfCp0oshm11TiqMgujl25PVFkC84tf85G9+F1f23vs97nhkx7eehl9GzbspnaF7RMAZvnziWfJEM9TTDGZSCVuOw6c8QOE8Yta2Pnf2OkoUQ9SfoSrTxOOo8o6e/es0epAwCilDGJOF26+bHFgT9iGibhepj2E23znL3q7vMvBEIkQiBr9bSuHPFcl2cqkYwUSZRW2L/w/PPtpVqUihQhETHJmYMT1x0tzq7uziTNK30yI6yvDr+Xnf3C9mv+tYAahoWhuvTYYeFEIZrS3x955BGWLYjn21ZVwqkrrbO0rtJK2TXrLmPZ8k2LQWE+tHrT7ckjw0MOjYnHBVEPpjtnjjjAqSusJQe+/6z1Bnu3/Ub3G7iSGoGd9ivWk23/zM5+mWgzwiq9eLS1i2OHhRP+OLnuHdWe/892f+kRImkCu+1N1hNtt7IzjkmXO0j65NBQb7f70dXRI0fOPQ2CykqLTThP3wiiuyTD/O/6NYO35x9PMgukHZDAls4fBAyZXjCunSnpEfDPyXF+u5xA0aX7Dl2e3gC5DsOSI/FW5w+9hcfdVAl8fcTLXZ6tVDNXNDNqdZKBalRoIQbZBKc3zho1alSVKfvLia5eq9ZdZH9ivy06WaQXkUBFZqR12fB7WNkv+CbeyqTGZOGWSF2UB3je8LjOjbnvlZHoIfJWXep3+2bPti6puavL85W6EBpkSPP0tmzZctvWrVvH0VQRWaMKZDg3btpE+U9D75u4ivWrtn+xN3d+X1yCSEkIgVNy/++SM6uvZbM8Gb6Jv1ppdMANdfALGdDa2loM57lkSvwtBFfitpRL/9N6vf1B/rdS8kam3gR0P0/Wu/Tp3C08ArHcqTmFDiFty5LJdpmBsl/QAQMGrBw0aNDBVc3ofUtHfz965Uw7b32STmbIJTCBHpljrHHDHzvoHwSOmFBALOz0B1vonxzmBiej6Dh27k/8VYDAc233j/xj5y0KSGqmiH/KL6CGEhvjqKMWihywkqydl4KORVe+TGtbpzvnWD+tfDl0LMBeZ+P1J9u+bX+h+lsln6m0y0w95U6eXeaRpS2DSvkdbLqedOKJKskNWR0Cm/M/eAkg+BLYY79l/abtDtZHz/GlB8l0JwCnjreG3+7kc844pj/415XC0YuDjt3ESZP8Yxocgs5s5PT53fr7h9KJB/jwJvB2ftUU3hJCOhBIn8Da1gbMC04fe6gc89bHLLc/CVUIgwIXTkU56NgZVP5IRf20KzhS3CQibe1cuT6JdJGmWAJ77M3WM23LpopNFamBgNoE3sv/Su0CGCL9O50PsSkpLWDCJxgBOHbBOFncuoJ32usCSo5gsgm8nf8R5obIVgLyZ0Pg563/gN46NtrwFmSf9aH1dNu/v+wdKp2727Zv35lOTmrmUnjAxMGJkVhO7K3MwhUn3iGTv/vIunr7Q/v3yWeEHIQR+LPczad9vvoqFgZSWKGQEAhEIIDtmSJAkxilR6afs0L2iYO+gkRRLPgp3vRdP2V/j13hpDvvaGbepU1IOX3g1HHSRjBZ3sn/FAtdgqFCKI0JPN7ajN46xfS7196O6SSK6QxDsQEU9sADD7DpAn68tQmGMYDOuAWBM85NI5BHBoHt+V/IyBZ5xiTwXv5xTCeJyTDN6Psdu8LVFGlmrkpep5xyykgusm7P/5KLKJAjJIFftf3rnpBREBwEtCFA+27utd7TpjwmFYRLw5Q2GMfHnwB67PwZWUWboAaIkUyQ37fdfyYMYzJs00jVccoPTyMf5AECHAlss3+J6QgcFRNQJg4N01KnxgQU34hg7rS6/Y5d4WoKI0qvaCHftX/5nKKiQ2yHwG77TXAAAWMJvI9TJpTWPYeG6ahRo6qUhpiS8PsdO2ePtpSyQzZxCMAwxqHHI+4vW7+JOZI8VAEpUiTwTNvCe1LMDlklQAAN0wSgCk7SnVaHoVjBYJNK7vm2VZVJpY100yOw034lvcyQEwgwIfCh/fLVTESBGDEIPNV2e0eM6LGjcpkWFbsgCScAx84HMJfdrj+wX2j3ERW3FSDwsd2hgJQQEQTEEtiRx/Q6sUTlpOY0TE+WkzNyDUMAjp0PrY2bNvmESOc2enrS4ZxGLs+2rahPIx/kAQJcCOyzPuAiCuSIQWBHHnusx8CXeFQ7n9+fBxw7H9QDBgxY6RMkldu77D+kkg8ySZ6Acxzc3cnnghxAgAeBp9u++zgPSSBFXAJ5a3fcJBA/QQJNzc37U4dj5wN50KBBM32CJH772bZ7z008E2SQGoEdmGeXGmtkJJ/ATvvlC+RLAQlEEXiqreVdUWlFSaf5U+clSlxT4sCx89E0h8maH1uvP+0jJm4rRGC3vVEhaSEqCMQj8JH9x3gJIDYrAh/Zr/dnJRCE6UYg625o1+0OLrAhsMfezEYWCAICIAACYQh8Ym8NExxhmROQ/T7CXnb+FQQ9dv6MpIeQ/SBJB6ChAFhAoaFSUSQQMIAA3kf8lQzHjr+OnBML3lBASogYhsBuazMWUIQBhrBKEkADRkm1eQrdaX3seR835ROAYydfB74SYCWSLyLlAqDVq5zKIHAEAmjARICmQJRXX/1pTwXENFZEOHbMVf/U+jUVzEWEeBEI7LG3RIiFKCCgFgE0YNTSV1Bp39nXIe2IOA4LGoNykhUOjp0s8gHz7WFvrw8YFMEUIrDX2qaQtBAVBKIR2Ge/Hy0iYrEm4NivcawFNFy4rHtorOEc2BY/b+39LFvhIFhkAp32zshxEREEVCHg2C9VRIWcIQh02rtChEbQtAmgxy5t4iHzs619lSGjILgCBDABWQElQcTYBGzrk9hpIAF+BDotNEz5aeWQRHDsDrFg+S1v7UGPHUvNQCgQAAE/Auix8yOk5v19GHFgrTg4dh7quXvpUo+76dyyrb2V6eSEXEAABEBALAHHfolNEKmxINBpYSiWhSLKCAHHrgwYurxx0yaPu+ncclq8h6eTE3IBARAAAbEE8hiKFQuUSWoYimWiiBJi0GlicOxKgOF0KWNBRZz0AVlAAASCE8hYueCBEVIZAs7cb2VkNVFQeA3MtZ61ev2BuYgQDwRAAARKEnDsV8nruKg2gax1hNoF0Fh62ucPjh1zBeesXr9hLiLEAwEQAIGSBHJwAEpyUf0i9Mpbg3DsPPRz0oknetxN51bGOuLX6eSEXEAABEBALAH07IjlySU16JWLJkrLAceuNJf9VydOmuRxN51bPawjf59OTsgFBEAABMQSyGYwFCuWKI/UchkMxfLQRGkpspWVldNK38JVDgTOrL4Kjh0HRUAGEACB0AScqSSh4yACfwLoseOto2zfvn3X8hYR0oGAfgQOzwzQr1AoEQgUEehhHV10BT91INAj00+HYmhbBgzFaqtaFIwzgZ7WYM7iQTYQEEKgV+b424UkhERYEehlHX8jK4EgTBcCcOy64OD5o1fmBJ6CQarIBHpl4NhFhoeIyhA4u/r6mcoIC0EDEzi7euK3AwcWHJA24BWcpHbJwbFTQKU94QQooKVwIvbMHI9tbMIhQ2gQAAEQAIEABODYBYAkOwiG7WRrQHz+h2eOmyg+VaQIAvwIHGYdxU8oSBSZAObXRUaXWsQs7VKcWm7IKBKBnplBKyNFRCS2BM4adtUGtsJBMBAQSAAjDgJhMkiqp3W8VCm2bNlym1QBFMgcPXYKKOnc6obxCogJEQMSQA9GQFAIpgWBIzOnaFEOFOIAgd6S9bl169Zx0IU3ATh23nwsLhM1c1YfH0lxWxUCFdnTVREVcoJAbAJ9MyMuiZ0IEmBDoG/mjCo2wkCQkgTg2JXEcugil27fo+AMHFKK4t8qMiMXK14EiA8CgQmcWX3to4EDIyB7AmdUy52+1djYyJ6RLAGbPmUDx85HA1y6fftkRmKenY+uVLl9TvX0qarICjlBQASB3plhIpJBGpIJVGRGSZYA2XsRyGQPuHRw7LwoOffsfN4nRDq3Mc8uHc5J54I9CZMmjPQ5EqjInMZRLMgUkkBFdmTIGAgugwAcOx/qTc3NPiHSu43VZemxTiqnigzm1yXFFunyJXBBzc0ZvtJBsqAEzq/+J+gxKCyJ4eDYSYQfNuujs+eFjYLwzAh8seY7MIzMdAJx0iHQI9M/nYyQSyIEnOPhEkk3TKJcFjOGkTnNsJWVldMov/2OXTOjXqk0IaiW1wXVaPWqprNCeQ/PDCj8ie8gYBSBfpkLjSqvboXtlx0tvUgffPDBxdKFYCxA375915J4hzGWkY1o1ErgspFz78xnrV32H9iwgSDBCfTPXuQE/kXwCAjpSWDNmjWDydC3v/763W7Ar//1X1tDhw51fwb6e9fixdbmzZsPhj39jDP2d02MGTPm0MWDd/ElKoELa5oy970y0o4aH/HkEuAwDNvR0XGnXAq8c3f9lP2O3afddwBWRmefbnnCYpPgo7MX/GZX5x/OKSMqLjMm8IXqb2IYNqR+VqxYUU+OWxSHLWhW10+ZUhz0Tbpg2119ENcBJMcPTl8xsmC/j8z8mfWR/cdggRGKDQFnVwZHlpely1NXVyddBhUE2O/Yud13KggsQ0YuW55Q2f+y+hvnotUroxbEy7NPpsZJQL5hjFeKZGMvXLjwnsNyuatLOFrJZhww9QK53ix0+uY6U1mqhgyZOGHChGUBkzI22NHZL/zpo84/nmwsAEUL3i97/nLLuke69E4nlHQZVBDgYA+CY6i6Nk9VkD5FGTPOJ8XsPLNa2/q39nv5Jz3D4CYvApW5f/zG2dUTv8tLKrnStLS0vDtz5sz+cqUQnzv17O3r7Lx3xowZ14hPXf0Uf/TKmXbe+kT9ghhSgpzV27pixDMs3n/wU7wrneunHFQWgAUD5h0qvbvotUuPddycemYGWbXD1x581uKmp2p86pEbPXr01WHnwKlaXlducvR69uqFHr1PgTzWepO9Nb/GxYO/zAkMyl1jcZhGQnPda2tr25njkiqe69hhuxOpaoieed/sn0ePjJipEhiYHWfsEWLUK0eNRvpMnz7dOKeOKhoN4V533XV3E4P169fb5OCmWgGZZTa6Zp7xjRxmKikrTtbqxcKpIwFffPFFOHVlNWVZhbubwLHzAFV4a9myZVMLf8v+fknNEhhH2UoIkH8P62jLtCPECp05HYdaA6i9bBDqrSQH13XyaHFI2cAa3zgm+xWNS6dP0Y7NfpVNYbBwIrgqDjp2dy9dGjyWgSGdlXnsVg3jmB7+FXFg7orf8JcyvoTUC0W9UfSBMxeMJzl5bk/e4kWLjJrj/KWaFjRMg1UTaaGy1uEWbVEjTYCijLFwoghI0c9Ro0ZVuZcOOnYbN21yr+FvCQKcjhZzxbts+A/YPHSuTPh7iABtSEyrmA9d0e/bTTfeuN+ZM3WYVZRGabh2P0jnP1OGavtnvywKH9JJgMCx2a8lkCqSTIqAu4cdpX/Qsft0L7uk8kS6CRGAcUwIrIBkj8194ygBybBLgiYxu71zt8ybx04+1QVyh2rJaVa9LF7yX1Rze+Ywq8IrCO5JIkCNUk69dQsWLHhQEgolsz3o2NXX1y9SsgQpCs1tnh0VHcYxxQoQIqujs+db5w0bsyNEFPZBqSeJepVoZZppK1tlKIecZuKt8zDt4NzkZhlskac3AW6N0l49e47zlhh3CwkcdOwKL+J7aQL5zk528+xI0hNyU24sLTGuyiCQs460Lq5ZoM0wuevQUU+SDJ6m51k4TKvbIejnVE9u6pMZbrqKWZXf2USaXaN04qRJrBhxE8Y5aq2LSHDsuuDw/sG1cjkb334bxtFbd2nePSFXf2+a+SWVFxy6pMhGT5d6S6kXTycH76vDf6hNIyi6ZnnEPNAo/W/og4c6AkuxfPnyLmG7OHbFXl+XkPjBmgAZx5x1BGsZTRCuwjlT8S+q1T5xgKYckPOAHjq+NZYcPJrnyFfCcJIdn5v0h3AxEDoJAifl/nZiEunGSbOpqUmbeh6Hg1fc4jUSXRy7Yq/PKyFT782fP5/tvKkTczO+YapeOJSbJoJfNvweZVu71AtEDp2zXxTLKQccdMxJBprnSPrSYQ7eedX/MLQiM4oTXuNk6Zf9ovXn1fzOO25sbDROF2ELXLxGootjN2DAgJVhEzQt/KxZs/pwLTOdRUoPJz5yCAzJza6Sk3P8XMk5wHE98TnKSMGdg0cbQ8vIX1Selw3/vrNKVsuF5KIQJZYOrYL9cs1/KNsoTQyMogl3cewaGhrGK1oOiP0pAXo4D88MBI+UCQzI/pV1RvXYjpSzjZ1dszPMQR9yDvBRmwBtDE26VHn+3cm5vztNbS2oKf3Y4b9g6dRxHiHjrOkujh1nQTnJxr2yjR3+c5YPKScdipTliEyVNbrmVuWYkxMwB8McIqsCi7So51XV4dnPV1/1MjWS8EmPwPG5um3p5RYuJ84jZOFKklzophI2HI5dBN4qVLYhuW+NjlA0RAlJoGdmkPVXw3+slFPnnhYRsqgIrhABd3iW496bfhipkfSZ7F/6BcN9AQSOyV5qnVc96xgBSSEJSQQGHndctyl03V5ItAIFkxX9NZRxPv6h5Ib4bdv3r+no/JcfyJVC39xpXgrXIYxS1GmIDvPoSpHR+9qGDRusYcOGsbdXxVp4ZF2d/aH9v8WX8VsQgf7Zi5wN7v+Nbb2gkTEVOlEEqSNyMqV8kW49doUHyUbOyYCIjXPmsF+CfXb139xzUu6G/zJAHakXsUfmGKWcOuqlg1OXejVhkaG7ela13rtLhy/PVGQw5S6JStQvewFrp47KDKcuuuZLeus09yZ6kubELOUpcyz9023fffyNzkUXcJRNRZl6WJ+xxo34Vclnh2N58Dxz1Iocme5avNiaMnWqMnWXKP1k3VX2LrtNDjANc/1M9lzrKzV3sq4D1AjBtkvBKl8pP6Rbj12wpBCKCKhyMPFfVt9w4cm5Bi1OQ5Bd8w53eupUcepo+ws4dbJrDK/83bl3vKTyluby4fc7PXcjvQPhbiACdIY1d6eOCnLBBRdgL80AGm1ubi4ZqqRjhxMoSrLqdnHGjBnKHExMpyFU5v7xG90KgQuBCdBCibHDH2Pd0nULQ6cS0PYX7m/8BYFCAuTwq7TvHW38fVTmjMIi4HtIAsdkv6LMGdbOSQohS2dm8OITJ1wKJR27Rx55pNsqCzcC/nYloNKeUbSBcVXuW1hu1lWFgX71ypxg1Q5fq4RTRy9tmleFDwh4ESDHX6VtUS4dvsJZLXuOV5FwrwyBY7OXW1+qaVHCfqkwf70M5tQvF5844QpQVtH0cnAD4W95AncvXWpNmjy5LMfyMeXdeb5tVeVrnd9uz1u75QmhUM69M5+1Lh/+IHsd09QAlXqRFaoC2otaap4O10L/vPUf7W35n3EVj51cg3LXWF+o/iZ7++WCg+/hkvD/W+65Ldlj558cQrgEJk6a5H5V5i+dkHDliN9lyGHBx5vAwOxYJZw6WvUKp85bl7hbngC9TFUZfbio5vbMSbm/b85ZR5QvEO5YtMjr+MPmHaWSU6fKvHUO1avUxsSuXGUdO+qJwicYAdr7L1hIXqGoF+q47JW8hGIiTY9MP+vrI17OXFgzl31Ll+bT3TJvHhNyEENVArQdjiov1nOqJzddMeJZNE7LVLajsp/fv8jrvGFjdpQJwvIyGqfB1VI1ZMi0cqHLvrQwrFMOWenr5bpES4fmd3XlutH2XlvpM8SFQe2bPdu6pOauss+GsIwEJIRhCwEQkUQXAqptifJE2632W50/7FIGU39krZ7W8blJK8+tVu/cd2ygHq7Wevkcni8vvDSCg164cOHKhgb1HqbCEv6y9Zv2O/mfFF4y6jttZTI4O/la2thZhYLj+VRBS2rKqOJpFT9eN8b+2H5dTeACpK7InG5dNvx7nu90AdkklgTsWTi0cOzC8Yoc2gt05EQlRHxo3Vj7I/s1CTnLy3JAttYaXXOLMkYRRlBeXTEpZ9Vs2q/bvvvo5s4fXNxp7TJGTYdnjrVOyE684qzq6x5UtdDorQunOdq/zpkCVvZ9VfYGZUPLjpvKbIAXTgwzQvvBVonCr9sWPLS583uXd1o7VRI7tKy9M0OdxREPeD4HoRNNMAKmSCQIF0mXJKCac0eF+Fnr/7G3558oWR6dLtLiLhXmAfsxR0PVj1DX+37PpO8LDcC7AvX75QfcLz63+zR/5d3Oh619llJzcH0xkkM3KDv2kjOrr33UNzCTAHDqmCjCQDFUtWuPtk6x388/o53G+me/7Jz1ervv+1uFgsOuhdeS3/PoWzHg2IWDrlOvXWHJf9U2f8c7nT/us9d6v/Cyct/pUPHjclcd/7lhYzarJDyMn0ra0lNWv5cJ51Lr0INHCyPIoftizXd839ucdVEsG3yMYiLev4PsnVt2uxM3aWx74pII9rexsTFYQMVCnV89u4LOSD0hN+V/j8hUKia9ZfXLXrB/+5LLhv8gA6dOOfVBYAYEVH4Bf7nmvzK0fdGx2a9aOas3A5rBReiR6e80Rr9uXTniuYxuTh01WIOTQEgikM3lym5z4hLy9fyXLVs2ta6uDgfyusQC/A3iUQdIhn2Qx1pvtt+zn7T22ttZytonM8Jx6L6w/JzqGfUsBQwgFHrqAkBCkFQJqNxz54L6Xdv3xm+zn3jgg/xv3Uus/uasIy06Pu3kHhf3OvXUy/awEk6gMCo3FgRiCJVUkOfP17GjHAE/FPf9gYPAD58qzxjPtd0/8n37mZd22C9an9hbpQrZJ1NjVWTPcI7Q+X+B6rZUYX0yh1PnAwi3pRHQyb493fbvL3+Yf2HETnudJfOYxcOsvo7tGmkdlTnzO39Rff23pCk3pYxpY39dR7iSQhi00yjQy2/pkiW2ikdnJQU3aLo6Gb+gZaZwzoraB3faL43bkX/FWXTxQZioocMemRli9XHmzVVkRp72+eqrXg6dANMIcOqYKgZiHSSgq32jBWM78y9ZO+3Wg2VN4kvWORLtQEN05JbzqmcOTiIPzmmiwyi8dpYvXz6tvr5+kV/MQI4dhmP9MJa+39LSsnP27NkVpe+ac/XZtnvP3WO98ehue2Of3fYma7f9htMyDje60MPZPPgI60SrV4b+naD08GoQzcPoBaGEMLIJ6OrcFXL9TduSpj32xsbdFtmuTdYe+63C24G+98qcZB2x33ad5CyBOEmZTdADFS5CINi3CNCcKEGft0COHYkARSSriGip6xXr1Vd/2lPn+SRBtYVnLSgphONAIOjLhoOsScrw1Po1FaqdzZokj3Jpz58/f8esWbP6lLuP66UJBB2Gpdi+q2LdLLA61iUR7i9e0sF5walDAyp4bUFILgQWL1pkc5FFphxw6oLRh1MXjFNxqCCrYd04gXvsKAKcFBdbuL9Bx8XDpYrQuhHA86WbRs0pT5OzzVPz3Lmh3ifm0EFJXQLr16+3hw4d6v7E3xAEwvSMB+6xC5E/ghYRwHYxRUDwsxsBMnjdLuICCChCgI6exJ5kiihLkpg0Vx9OXTT4dPBBmE+oFhbGxsOg7Rp2w4YN1rBhw0Lx7poCfulKAMv+ddWseeUK06tgHh2zS4wRiej6D/tcheqxwwrP6IqhlgpatNH56RqTWrHYy0lX7ZpXLry8zdN5kBJjRCIIJXFhQvcgtbe325WVleIkMCylsJ63YXiMKy5ehMap3IgCw84ZoeZAhcRIXyBMZQMtXLhwZUNDw/iyAUrcCNVjR/GfeOIJ33PKSuSDS58SwIscVcElgLrgksBf3QjQy1y3MqE84QmsWrWqEqtgw3MrjBHWqaO4oXvsKBJeSEQh3gct2nj8VI+NeXWqaxDy+xGAjfMjpP99+ArxdBxm77rCnEL32FHksCs0CjPE9wMEGufMwSpIgysD5tUZrHxDio6XuiGKLlNM6L8MmBCXJ02eHKnzLZJj5/Q2RMosRHm0D4rtAbRXcdkCwuCVRYMbmhFAA1YzhQYsDhZLBATlEayjo8PjrvetSI4dJYmTKLzBBrk7Y8aMcUHCIYw+BLBLvz66REn8CVADllZ++4dECF0I0DQT7FcXX5svvPBCVdRUYvW8oechKvau8TAXpSsPXX9hdZiumkW5/AjAxvkR0uM+bemFDgsxuozzzBwWRwTqKsTWJ3EIHohLDnIcJcaXACkkTYBWh9XW1uLg66RBI32WBGDjWKpFuFBw6sQgpS1O4qQUq8fu05dVexwBEPcQATh3h1jo9g2927ppFOUJSwCn74QlplZ42Dhx+orrC0SeY0dFGDt2bIe4oiAlPBh61gHoVU+9olThCNC8K8wxDcdMldCwceI0JWLXkViOHRUlbpehOBx6pIQHRA89uqWAPl0S+AsClnX9lCkWNi/WqybAxonVp4hdR2I7dlF2RRaLQb/U8KDooVMs+ddDjyiFWAJ0EgHOzRbLVFZqeFeJJS+it44kiu3YUSLotSMKYj94YMTyTDs1GnLCkv+0qSM/VQjQJHs4d6poq7SceEeV5hLnqojeOspfiGOHXrs4qiwfFw9OeTac75BTR0NO+IAACJQnAOeuPBvOd8ghx7tJvIZE9daRZEIcO0oIvXZEQfwHD5B4pkmmCKcuSbpIWzcCcO7U0ij2qUtOX6J660hCYY4deu2SUzg5d9i9PTm+olKmOXXoqRNFE+mYQgDOnRqapkYr6UoNadWSUmRvHZU81j52xeiwr10xEbG/5zrH8zTinF6xUAWlhp5VQSCRjLEE7lq82JoydarQd5KxMAUXHPZNMNCi5OLuW1eUnFjHjhJHBShGLPY3NvkUy1NEaqjzIigiDRCwLNg3frUA9i1ZnbS0tOycPXt2hchchA3FukKJ9jzddPH3AAFaaYkHjUdtoOFx6IKHLiCFHgRg3/jo0XE43oV9S14fop06kli4Y0eJ3r10Kf3BJ0EC9MA1NzXZCWaBpD0I3HTjjXZdXd2dHkFwCwRAICIBsm+YVxwRnoBoNF945syZ/QUkhSQ8CKxevbrK43bkW4nNZ6AHM7JUiBiKAHpJQ+GKHRh1OzZCJAACgQjcfNNN1rxbb03sPRVICIMCkTONBmt6Ck/q3Z1Ijx1hEb3KIz3U6uVEjgZ1m6snuVoSY+hVLX1BWvUJ3DJvHqaepKRG6qWDU5cSbCebpJw6KkFijp3IPVnSQ61uTtRtjp6k5PQHo5ccW6QMAn4EyLZh6okfpWj3nT1o7yG+OCknGr8osZoaG6NECxwnMceOJFi+fPm0wJIgoBAC9IDSfkNCEkMitPE2jB7qAQgwIDDHeRmSfWMgihYi0PZkxHP69OlXa1EghQrRPHduotMLEnXs6uvrFynEWhtRaZNcemDRwo2nUhi9ePwQGwSSIEDPJS1eSiJtU9Kkxn9tbW27KeXlVE7a3iRpeRJ17Ej4JMeRk4ajevpuC5d6nVQvS5ryk9GjT5p5Ii8QAIHgBNy5d5hbHJwZhaTGPn1wQk44biJDJ7G9SbF8iTt2lGEaHmpxwfD7EAHqaqeHGQ7eISalvsHolaKCayDAl4A7txi2zVtHrm2jxj4+8gik1dGV6DhvIT5yLAp/47s8Arfddtu2WbNmHSNPAl45k9GDweOlExHS0H6aGzdtsiorK6f17dt37dixYztKpUtzjej6li1bbtu6deu4Rrz8SmFS4todd9xxr3Oe6TVKCJuCkDT6gN65FEAHyIJ2CtFyUSk5d/jwIWD6Igt3yJWPRiBJHAJLlyyxFyxY8GAAGxs4yPz583fEkQlx5RCgxlpgJWsW0F0UIYc8ci1HQLNqdqg4jrdarsy4LpmAKUMZVE7JqJG9QALt7e2pnVAAJ0+g4lJKihpvbo/soTeRnt/c4daU0CKbEAT0rHEFpQrBAkElECBDuGLFivoClSn/lZw52ocOH30IUO+crIpJvYL6kDSnJDqupKXFI+ZoUM2SUoeWLFuVar5qqsc8qckZUrUnD86cnvVVpkNXbCTdk0j0JK13qcjJU7UBi545tepmsd1I43dqiycKC0NDGs7k/T6F1/CdP4G7Fi+29nV2spycTI7cYbnc1ZgozL8eRZUwrRVlYeWDPQtLjF/4uc7E9qohQyZOmDBhGSfp1qxZM/jVV1996fLLL++PkyE4aSaYLLJslhTHjpDQ3BhntVowOgjFlgAd0n38CSfcO3jw4FljxozZnLSgrqF7/733+tNeVvjoT0CV1WTUj6C/Nswo4YYNG6z7fvhDa8DAganatheef/5Nx5ZaaKCqX8+czoaVDQ0N42WURJpjR4WFIZSh8nTzpJZw4YdaxbT1ROE1+k4GrfDa3r17LThQ+g8GAAAKwUlEQVRuhUTM/C6rxRuVduOcOXZTUZ2Pmhbi8SZQbNt69+mz7dRTTz2tWGrqcdu1c2d/9zpsm0tC378dHR1WVVWVNP9KWsakUlqthGNN9K3cKBkIRCVAe9BNmjxZqn2KKjvNvaurq7szanzEAwEQUJuA7AZpKidPlFMRbRjahM1Ay+HBdRAwkgANvarq1JHC6Ixs2YbdyIqDQoMAAwKrV6+uki0GixYxhmRlVwPkDwI8CMicl5IEAdi2JKgiTRDgSYCL/WLh2JGKYAB5VlRIBQJpEeBiFEWXF7ZNNFGkBwL8CHCaPsLGsSM1wQDyq6yQCATSIKCrU+eyg21zSeAvCOhJgNP0C6lz7IrVS8a9+Bp+gwAI6E1Ad6eOtMfJ6Otdm1A6EEifALfnO5c+gvI5Pvzww/c73XZNF44eXT4Q7oAACGhDgIYvpk6bVqNNgTwK4mx/sOX000//mkcQ3AIBEFCMADenjvCxGop19YnNi10S+AsCehPgaBSTJE7nRjZiJ4AkESNtEEiNANfRBpaOHWkFc1JSq5vICASkEDDNqXMhw7a5JPAXBNQlQFu1Nc+dy9KHYjXHrlDFphr9Qgb4DgK6Eli+fPk0XcvmVy7YNj9CuA8CvAnQFBKuTh2RY+vYkXAwgEQBHxDQiwBtQEyb+OpVqnClMdmxDUcKoUGAFwE6Loz7BuosuxGL1Yihi2Ii+A0CahLgtNeTbII4V1a2BpA/CIQnoEKHkxKOHc6UDV/5EAMEOBJQwSimyQ2N1jRpIy8QiEdAFfvFeijWVQGdKYs97lwa+AsCahJQxSimSRdM0qSNvEAgOgGVnlUlHDtSRUNDw3g4d9ErJWKCgEwCHA7Glll+r7zBxosO7oGAfAIqOXVEi9UGxX7qow2MBw4ceNpZZ51V7RcW90EABHgQoAbZhAkTjF4s4aWJ++67733nxdF04YUXegXDPRAAAQkEVHPqCJFSjh0JDOeOKOADAmoQ4LqBJzd6jz/+ePPJJ53UdMYZZ3ATDfKAgLEEVHTqSFlKLJ4oVasWLFjw4IwZM8aVuodrIAAC8gnAqQuvAyymCM8MMUAgCQKqOnXEQlnHjoSHc0cU8AEBfgTg1EXXCZy76OwQEwREEFDZqaPyK+3YUQGWLVs2ta6u7k76jg8IgIB8AnDq4usAzl18hkgBBKIQUN2pozIr79i5ioMhdEngLwjIIwCnThx72DRxLJESCAQhoINTR+VUZrsTP6XoohC/cuI+CHAlAKdOrGZw7JhYnkgNBMoRoBNxdPIhtHHsSGE6KaZcBcR1EOBIAE6deK3QebrEVXzKSBEEQMAloOMxh9oMxbpKor8Ywiikge8gkCwBNKiS5YtFYsnyRermEmhpadk5e/bsCt0IaNVj5yqHXjTkheMDAiCQLAE4dcnypdRx6k7yjJGDeQSoN1xHp440qWWPnVtF0dJ1SeAvCIgnAKdOPFOvFGHPvOjgHggEJ6C77dLasXPVjKFZlwT+gkB8AjrOSYlPJZ0U4Nylwxm56EtAd6eONKflUGxxlTRBkcVlxm8QSIIADV9MmjzZiAZhEvzipolh2bgEEd9UAk2NjcYssDTKQC9dssSeOGmSqfUa5QaBWATQQIqFT3hkjEQIR4oENSVg2qp9oxw7qrMYytD0yUWxEiOAodfE0MZOGM5dbIRIQHMCJjZIjRiKLay3NJRhoqILGeA7CAQlgKHXoKTkhIMtk8MdufInYNLQa7E2jHPsXABkEJubm92f+AsCIFBEgJ4RaggVXcZPZgRIT9jeiZlSII5UAnRqS/PcucaNSLrQjS24C2DVqlWVtbW17e5v/AUB0wlQS9dko6iq/hvnzLGb0FhVVX2QWxABaugISkrZZIztsXM1Nnbs2A6qCB0dHe4l/AUBYwmsXr26Ck6dmuonvdHQuZrSQ2oQiEeATpGAU3eAofGebWFVWrZs2dS6uro7C6/hOwiYQICmJTQ1NcEeaKJsLKrQRJEoRiACcOi6YjK+x64QBx26TRWEhqLwAQFTCOyv83DqtFI36RTz7rRSKQpTggB66UpAcS7BsSvBhYY0aEiqxC1cAgFtCMAoaqPKkgWhjaQxNFsSDS4qToCmTlHjRdezXuOqB0MvPgSd4Sm7ET14PpRwWyUCZBSrqqrw7KuktJiyYmg2JkBEZ0OAVrzS6BobgRgKgh47H6XQvCP6+ATDbRBQggD1RMOpU0JVQoUkG4btnYQiRWIpE6D6S/UYTp0/eDgs/owOhsDWKAdR4ItiBEw7Ukcx9aQqLnrvUsWNzGISwAhDeIDosQvBzN0aheYmhYiGoCAgjYDbysVGw9JUwC5j9N6xUwkEKkMAIwxlwPhcRo+dDyCv20uXLLEnTprkFQT3QEAKAZzvKgW7cpmi9045lRkhMEYY4qkZPXYx+NGqM/pgW4EYEBFVOAFq5VLdFJ4wEtSOANkvrJzVTq3KFshdqY8RBmVVqJ/g1IOHDwjIIkBzQPV7qlCitAjQDgD4gIAMAlT30qrnyAcEIhGAgyfDNJibJxy6SI8pIpUhAPtlri1Ju+Rw6Mo8hDEvY7gmJkCv6JiD50UH9+ISoCFXWtATNx3EB4FSBOglX+o6roFAXAI05IrNheNSLB8fc+zKs4l9x52Dh/2jYqNEAp8SoPmc5NDR3Cg4dagWSRKgOkZ1Lck8kLZZBGg+J9UrOHVm6V3r0i5YsODBtLu6kZ8eBKj3V+uHA4VjTwBDtHrYEhmlwHQR9o83BIxLYNmyZVPb29tlPF/IUzECmIMS92lDfNEE4OApZkQkids4Zw4ao6IfPqSnBgGsRJNkdZhnS727atRgSGkqAXpx4wMCxQRgu0y1CCh3NwLoxSs2D+b9pp4QDFl0ezRwgTkBTDExz1YVlxi9c8wfUognn8D8+fN3FD84+K0vAdK3/FoHCUAgPgEM0+prp4pLRtOJ0DsX/5lBCgYSgJNXbE70+I3eOQMfZoOKjF48PexUcSngzBn0EKOo6RDAnJZiM6PWbxjFdJ4T5MKLABqnatmpYmlht3g9T5BGYwIwlsXmh+dvGEWNH0IULTQBLBbjaaeKpaIRBQyzhq7eiAAC4gjQwgvMbSk2TfJ+w5kTV7eRkr4E4OTJs1GlcsbWSvo+ayiZBgSoN4+cC3zSI0DD5ORga1B9UAQQSJ0A9Q7BZqVnrygn9MqlXs2RIQiII0BGEz16Yo0mvYTIgRanJaQEAiBABGjLH8wnFmuvKDU0Ps15vjLmFBUldQlQz1JHR8edjY2N7iX89SFAZ7Ru274dB1f7cMJtEBBNgBy9F198sR32KjhZslcbN22yRo0aVYUzpYNz0yUkHDtdNBmzHK7xrKursyorK2Ompn705uZma8CAASsbGhrGq18alAAE9CJAveU7d+zo0+Q8p6Z/3EbnKaecMhJOnOm14UD54dihHngScB0+O5+3dDSiaNl6qh83QUAZAjqPRDgjLNby5cv3NzYHDRo0Ew6cMtVSiqBw7KRg1yNTcvqoJDRMQn9POvFEa+KkSfSV1afJGXLOZLPUEzmtb9++a2EUWakHwoBAogTITm3ZsuW2rVu3juNuo3r37r2Tet4ICOxUotVC68Th2GmtXj6Fc51AVyLXGXR/R/1Lw6XUgqX4MIRRKSIeCJhNoNA+vfbaay/v2rWrT1wihU4apQX7FJco4gcl8P8BXJAlmFP8N9sAAAAASUVORK5CYII=;" vertex="1" parent="1">
          <mxGeometry x="991.01" y="-513.5" width="57.97" height="30" as="geometry" />
        </mxCell>
        <mxCell id="A-N_aQ1E-9cqWO8VtPDo-93" value="Lead" style="text;strokeColor=none;fillColor=none;html=1;fontSize=24;fontStyle=1;verticalAlign=middle;align=center;" vertex="1" parent="1">
          <mxGeometry x="743.64" y="-1130" width="100" height="40" as="geometry" />
        </mxCell>
        <mxCell id="A-N_aQ1E-9cqWO8VtPDo-104" style="edgeStyle=orthogonalEdgeStyle;rounded=0;orthogonalLoop=1;jettySize=auto;html=1;" edge="1" parent="1" source="A-N_aQ1E-9cqWO8VtPDo-95" target="A-N_aQ1E-9cqWO8VtPDo-103">
          <mxGeometry relative="1" as="geometry" />
        </mxCell>
        <mxCell id="A-N_aQ1E-9cqWO8VtPDo-105" style="edgeStyle=orthogonalEdgeStyle;rounded=0;orthogonalLoop=1;jettySize=auto;html=1;" edge="1" parent="1" source="A-N_aQ1E-9cqWO8VtPDo-95">
          <mxGeometry relative="1" as="geometry">
            <mxPoint x="970" y="970" as="targetPoint" />
          </mxGeometry>
        </mxCell>
        <mxCell id="A-N_aQ1E-9cqWO8VtPDo-95" value="" style="html=1;whiteSpace=wrap;shape=isoCube2;backgroundOutline=1;isoAngle=15;fillColor=#000033;strokeColor=#000033;fontColor=#ffffff;" vertex="1" parent="1">
          <mxGeometry x="775" y="800" width="90" height="100" as="geometry" />
        </mxCell>
        <mxCell id="A-N_aQ1E-9cqWO8VtPDo-96" value="HDL V2" style="text;strokeColor=none;fillColor=none;html=1;fontSize=24;fontStyle=1;verticalAlign=middle;align=center;" vertex="1" parent="1">
          <mxGeometry x="770" y="750" width="100" height="40" as="geometry" />
        </mxCell>
        <mxCell id="A-N_aQ1E-9cqWO8VtPDo-97" value="" style="shape=image;verticalLabelPosition=bottom;labelBackgroundColor=default;verticalAlign=top;aspect=fixed;imageAspect=0;image=data:image/png,iVBORw0KGgoAAAANSUhEUgAAAnYAAAFGCAYAAADnxtLJAAAMP2lDQ1BJQ0MgUHJvZmlsZQAASImVVwdYU8kWnltSIbQAAlJCb4JIDSAlhBZ6RxCVkAQIJcZAULGjiwquXSxgQ1dFFKyAWFDEzqLY+2JBRVkXC3blTQrouq98b75v7vz3nzP/OXPuzL13AFA/zhWL81ANAPJFhZK4kADGmJRUBukpIAJ9oAXIgMzlFYhZMTERAJbB9u/l3XWAyNorDjKtf/b/16LJFxTwAEBiIM7gF/DyIT4AAF7FE0sKASDKePPJhWIZhhVoS2CAEC+Q4SwFrpLhDAXeI7dJiGND3AYAWZXLlWQBoHYJ8owiXhbUUOuD2EnEF4oAUGdA7JufP5EPcTrENtBGDLFMn5nxg07W3zQzhjS53KwhrJiLvJADhQXiPO7U/zMd/7vk50kHfVjBqpotCY2TzRnm7WbuxHAZVoW4V5QRFQ2xFsQfhHy5PcQoNVsamqiwRw15BWyYM6ALsROfGxgOsSHEwaK8qAgln5EpDOZADFcIOkVYyEmAWA/iBYKCoHilzSbJxDilL7QhU8JmKfmzXIncr8zXfWluIkup/zpbwFHqY2rF2QnJEFMhtigSJkVBrAaxY0FufLjSZnRxNjtq0EYijZPFbwFxnEAUEqDQx4oyJcFxSvuy/ILB+WKbsoWcKCXeV5idEKrID9bG48rjh3PBLglErMRBHUHBmIjBufAFgUGKuWPPBKLEeKXOB3FhQJxiLE4V58Uo7XEzQV6IjDeD2LWgKF45Fk8qhAtSoY9nigtjEhRx4sU53LAYRTz4UhAB2CAQMIAU1gwwEeQAYUdvYy+8U/QEAy6QgCwgAA5KZnBEsrxHBK/xoBj8CZEAFAyNC5D3CkAR5L8OsYqrA8iU9xbJR+SCJxDng3CQB++l8lGiIW9J4DFkhP/wzoWVB+PNg1XW/+/5QfY7w4JMhJKRDnpkqA9aEoOIgcRQYjDRFjfAfXFvPAJe/WF1xpm45+A8vtsTnhA6CQ8J1whdhFsThCWSn6KMBF1QP1iZi4wfc4FbQU03PAD3gepQGdfFDYAD7gr9sHA/6NkNsmxl3LKsMH7S/tsMfngaSjuKEwWlDKP4U2x+Hqlmp+Y2pCLL9Y/5UcSaMZRv9lDPz/7ZP2SfD9vwny2xBdh+7Ax2AjuHHcEaAQNrwZqwduyoDA+trsfy1TXoLU4eTy7UEf7D3+CTlWWywKnWqcfpi6KvUDBF9o4G7IniqRJhVnYhgwW/CAIGR8RzHMFwdnJ2AUD2fVG8vt7Eyr8biG77d27uHwD4tAwMDBz+zoW1ALDXA27/Q985Gyb8dKgAcPYQTyopUnC47EKAbwl1uNP0gTEwBzZwPs7AHXgDfxAEwkA0SAApYDyMPhuucwmYDKaDOaAUlIOlYBVYBzaCLWAH2A32gUZwBJwAp8EFcAlcA3fg6ukGL0AfeAc+IwhCQmgIHdFHTBBLxB5xRpiILxKERCBxSAqSjmQhIkSKTEfmIuXIcmQdshmpQfYih5ATyDmkE7mFPEB6kNfIJxRDVVFt1Ai1QkeiTJSFhqMJ6Dg0C52EFqPz0MXoGrQa3YU2oCfQC+g1tAt9gfZjAFPBdDFTzAFjYmwsGkvFMjEJNhMrwyqwaqwOa4bP+QrWhfViH3EiTscZuANcwaF4Is7DJ+Ez8UX4OnwH3oC34VfwB3gf/o1AIxgS7AleBA5hDCGLMJlQSqggbCMcJJyCe6mb8I5IJOoSrYkecC+mEHOI04iLiOuJ9cTjxE7iI2I/iUTSJ9mTfEjRJC6pkFRKWkvaRWohXSZ1kz6QVcgmZGdyMDmVLCKXkCvIO8nHyJfJT8mfKRoUS4oXJZrCp0ylLKFspTRTLlK6KZ+pmlRrqg81gZpDnUNdQ62jnqLepb5RUVExU/FUiVURqsxWWaOyR+WsygOVj6paqnaqbNU0VanqYtXtqsdVb6m+odFoVjR/WiqtkLaYVkM7SbtP+6BGV3NU46jx1WapVao1qF1We6lOUbdUZ6mPVy9Wr1Dfr35RvVeDomGlwdbgaszUqNQ4pHFDo1+TrjlKM1ozX3OR5k7Nc5rPtEhaVlpBWnyteVpbtE5qPaJjdHM6m86jz6VvpZ+id2sTta21Odo52uXau7U7tPt0tHRcdZJ0puhU6hzV6dLFdK10Obp5ukt09+le1/00zGgYa5hg2MJhdcMuD3uvN1zPX0+gV6ZXr3dN75M+Qz9IP1d/mX6j/j0D3MDOINZgssEGg1MGvcO1h3sP5w0vG75v+G1D1NDOMM5wmuEWw3bDfiNjoxAjsdFao5NGvca6xv7GOcYrjY8Z95jQTXxNhCYrTVpMnjN0GCxGHmMNo43RZ2poGmoqNd1s2mH62czaLNGsxKze7J451Zxpnmm+0rzVvM/CxCLSYrpFrcVtS4ol0zLbcrXlGcv3VtZWyVbzrRqtnlnrWXOsi61rre/a0Gz8bCbZVNtctSXaMm1zbdfbXrJD7dzssu0q7S7ao/bu9kL79fadIwgjPEeIRlSPuOGg6sByKHKodXjgqOsY4Vji2Oj4cqTFyNSRy0aeGfnNyc0pz2mr051RWqPCRpWMah712tnOmedc6XzVheYS7DLLpcnllau9q8B1g+tNN7pbpNt8t1a3r+4e7hL3OvceDwuPdI8qjxtMbWYMcxHzrCfBM8BzlucRz49e7l6FXvu8/vJ28M713un9bLT1aMHoraMf+Zj5cH02+3T5MnzTfTf5dvmZ+nH9qv0e+pv78/23+T9l2bJyWLtYLwOcAiQBBwPes73YM9jHA7HAkMCywI4graDEoHVB94PNgrOCa4P7QtxCpoUcDyWEhocuC73BMeLwODWcvjCPsBlhbeGq4fHh68IfRthFSCKaI9HIsMgVkXejLKNEUY3RIJoTvSL6Xox1zKSYw7HE2JjYytgncaPipsediafHT4jfGf8uISBhScKdRJtEaWJrknpSWlJN0vvkwOTlyV1jRo6ZMeZCikGKMKUplZSalLottX9s0NhVY7vT3NJK066Psx43Zdy58Qbj88YfnaA+gTthfzohPTl9Z/oXbjS3mtufwcmoyujjsXmreS/4/vyV/B6Bj2C54GmmT+byzGdZPlkrsnqy/bIrsnuFbOE64auc0JyNOe9zo3O35w7kJefV55Pz0/MPibREuaK2icYTp0zsFNuLS8Vdk7wmrZrUJwmXbCtACsYVNBVqwx/5dqmN9BfpgyLfosqiD5OTJu+fojlFNKV9qt3UhVOfFgcX/zYNn8ab1jrddPqc6Q9msGZsnonMzJjZOst81rxZ3bNDZu+YQ52TO+f3EqeS5SVv5ybPbZ5nNG/2vEe/hPxSW6pWKim9Md97/sYF+ALhgo6FLgvXLvxWxi87X+5UXlH+ZRFv0flfR/265teBxZmLO5a4L9mwlLhUtPT6Mr9lO5ZrLi9e/mhF5IqGlYyVZSvfrpqw6lyFa8XG1dTV0tVdayLWNK21WLt07Zd12euuVQZU1lcZVi2ser+ev/7yBv8NdRuNNpZv/LRJuOnm5pDNDdVW1RVbiFuKtjzZmrT1zG/M32q2GWwr3/Z1u2h71464HW01HjU1Ow13LqlFa6W1PbvSdl3aHbi7qc6hbnO9bn35HrBHuuf53vS91/eF72vdz9xfd8DyQNVB+sGyBqRhakNfY3ZjV1NKU+ehsEOtzd7NBw87Ht5+xPRI5VGdo0uOUY/NOzbQUtzSf1x8vPdE1olHrRNa75wcc/JqW2xbx6nwU2dPB58+eYZ1puWsz9kj57zOHTrPPN94wf1CQ7tb+8Hf3X4/2OHe0XDR42LTJc9LzZ2jO49d9rt84krgldNXOVcvXIu61nk98frNG2k3um7ybz67lXfr1e2i25/vzL5LuFt2T+NexX3D+9V/2P5R3+XedfRB4IP2h/EP7zziPXrxuODxl+55T2hPKp6aPK155vzsSE9wz6XnY593vxC/+Nxb+qfmn1UvbV4e+Mv/r/a+MX3drySvBl4veqP/Zvtb17et/TH999/lv/v8vuyD/ocdH5kfz3xK/vT08+QvpC9rvtp+bf4W/u3uQP7AgJgr4cp/BTBY0cxMAF5vB4CWAgAdns+oYxXnP3lBFGdWOQL/CSvOiPLiDkAd/H+P7YV/NzcA2LMVHr+gvnoaADE0ABI8AeriMlQHz2ryc6WsEOE5YBPna0Z+Bvg3RXHm/CHun1sgU3UFP7f/AmmufERP/utEAAAAOGVYSWZNTQAqAAAACAABh2kABAAAAAEAAAAaAAAAAAACoAIABAAAAAEAAAJ2oAMABAAAAAEAAAFGAAAAALqXMYMAAEAASURBVHgB7Z0JnBXVlf/rvSeCQksEBcGtm9FANyAa4zg6GiUxRo0ZGlAz6kg3IFvP38wC/OefqHQ3YjIztM6SGVAQBJJoNMoSYxzJ4hJNjDHjSjdEY3dAQVFwARSEfvWvAxa8fv1erbfqnnvv730+0O9V3eXc77l16tw9Y+EDAikSWLNmzeDi7DZv3tyy9e23ry6+Xu531ZAhE/v27bu28P6YMWM2F/7GdxAAARAIS6DYPr3w/PNvhkmjlG2i+LBPYSgibFwCmbgJIL7ZBFxD6BrAwYMHW9dPmcIGytzm5v2yDBg48F5HtlkwsGxUA0FAIBUCro169dVXX9q1c2d/bjbq5ptusnr06GG5NoqgwE6lUjW0zQSOnbaqFVewFStW1Le//vrd3AyiiBKS49e7T59tp5566mkwpiKIIg0QkEOAHDhqYO7du9e6Zd48OUIklCvsVEJgkSwI6E5g4cKF99x04402Prbd3NRkk0Oru85RPhBQkQBs1QErvX79etgqFStwwjKjxy5hwByTp5YtDUu8/957/XVr2SbJm1rNp59xxvHo2UuSMtIGga4EqIH1hw0b7oat6srF6xfZKprvN2HChGVe4XAPBEBAUQJkGKkHCh+xBIipO39H0aoBsUGAHQGyVxg5EGurqGevpaXlXXbKhkAgAALBCMAwijWKQVKD4QxWNxEKBEoRQMMziJURGwYN01I1EddAgBEBGEaxRi9uatTjwKh6QBQQYEWAGp+LFy2K+5ghviAC1DCleYusKgmEAQHTCMAwCrJoKSQDJ8+0pxPlLUWAbBY5EPjwJ0A2C9NMStViNa5h8YQaetovJbWoRo8effXQoUMVkhqiFhKgPavm3XornrtCKPiuLQFy5vbs3n03p70ttYWdUMHuWrzY6tmrFxZiJMQXyRpIgJw5tHL5t3CjSIjJzAY+0IYUGYsfolgE/nFo+JycdUOqMYoJAuIIwJnjb+BESkjGUlztQUogIIcA2S2RzwXS4k0AU0zkPGfIVTECmEzM25ClIR29HBWrthDXcAJYuJWGZeCdB0YfeBkBzPWRrA96kU+fPv1qyWIge2YEaIPRxqYmPJ/M9AJxDhBYtWpV5bvvvNOOuXOoEYUEaD7eMcceWzV27NiOwuv4DgJGEEDvHO8WKBfpqDfEiAcChVSCADl0XJ4NyMGbAHrxlHikIWRcAjTplPejCOm4EsB8lrhPH+LHIQCHjqtl4C8X5hDHefKixcVQTzRuoWJhuDUULgT2IEBDHVOmTsVz68EIt8QRIIeutra2XVyKSMlUAhs2bLDa2towTGtqBdCl3JhUzL81qaqEGKLVxUrwLQe2WVLVOvCXG4vE+D73kKwMATh0/A2LLhLCQJZ5CHE5MgHsQaeLdeBfDtivyI8pIqZFAA4df0Oiq4Q0ZJZWPUc+ehKgye66Ph8oF28CcPDE2hTM1RHAkxy6OY2NAlJCEiAQnQDNYRk2bBie6egIjYyJeXRGqp1loe+44457Z8yYcQ1L4RQSKquQrOxEdXvo4NSxU42RAtEZwtQuxzYDRqo/UqFp2BWLIyKhQ6QECNCermTDMAIRDy5a9xH4LVu2bGpdXd2dEaIiCgikRiDjfFLLDBkpRQA2TCl1GSssbFg01aPHLiQ3ak3AqQsJDcGlEKC6it47KehZZ0qrXWHDWKsIwn1KgGwY9vAMXx3g2AVk5p4UETA4goEACwIzZ87sT8aRhTAQQioB6qWjukBD9viAgCoEbpk3b/8UEyywCK4xOHY+rNyVYjgT0QcUbrMmQC90erGzFhLCJUaAej3QS5cYXiScAgHMvwsOGXNwPFjRy9DjNm6BgHIEbr7pJmverbfiuVdOc9EFhh2Lzg4xeRKAHfPWC3rsSvBxV7uWuIVLIKA0AXdYQ+lCQPhABBYsWPAgnLpAqBBIMQKuHcPq2dKKQ8u9iAsMYREQ/NSWgDNnZWVDQ8N4bQtocMFoTjCmjxhcAQwqOvbv7K5s9Nh9ysQ9Rqc7IlwBAT0JOBuBjiMHQM/SmVsqapzCqTNX/6aV3N2/E3OID2kePXYOC/TSHaoQ+GYeAbR49dE5bJk+ukRJwhO4a/Fia8rUqcb7NUb32LkrXsNXH8QAAX0IuC1efUpkXklorhGcOvP0jhJ3JUA91XgOLMtYx4426aQ9vrpWC/wCAXMJwCCqqXtaJIFjwdTUHaROhgDZMpM3ZzeuyxIHXifzICFVfQjgGB91dEkr+HFWtTr6gqTpEzDRnhnVY0dGEC3b9B8s5KgWAWrtUi+QWlKbJy0tfIFTZ57eUeJwBMiembYtSi4cInVD09Dr+PHY2UFdDULyNAmcddZZ1QMHDjzt4Ycfvj/NfJFXMALYziQYJ4QCASIwbNiwv6+oqLhh7dq1/2oCESOGYsljN0GZKCMIiCaAve5EE42fHpy6+AyRgpkETFk1q/VQrHvotZlVGKUGgfgEaK87DMvG5ygqBTh1okgiHRMJmLJqVtseO1oRg1WvJj66KHMSBNBzlwTVcGnCqQvHC6FBwIuAzosqtOyxIwMIp86rSuMeCIQjQD132Nk9HDORoeHUiaSJtEDgwMEEuo5GaNdjh/l0eGRBIDkCOrdyk6MWL+UmZzV/Y2NjvEQQGwRAoCQBHUcjtHLs4NSVrLe4CAJCCcC5E4rTMzHqUaDeUs9AuAkCIBCLgG6LKrRx7ODUxarXiAwCoQjAuQuFK3Jg2LXI6BARBEIR0Mm508Kxg/ELVX8RGARiE9iwYQPtDaWF/YgNI6EEYNcSAotkQcCDgA6NVuUXT8D4edRQ3AKBhAgMHTrUogn9CSVvfLKwa8ZXAQCQRECHZ09px04HBUiqu8gWBGIToD2hdF1VFhtOjARg12LAQ1QQEEBA9WdQWcdOdfAC6h6SAAHpBLANilgV0NGHYlNEaiAAAlEIqOxjKDlHRmXgUSoY4oAAdwI6zEuRzRh2TbYGkD8IdCegom1TzrGD8ete8XAFBDgQUNEAcuBGMsCucdEE5ACB7gRUs21KDcXC+HWvcLgCAlwI4PkMrwmaowhu4bkhBgikSUC1Z1QZx041sGlWOuQFAlwI0HOKo8eCaeOmG2+0sflwMFYIBQKyCajkgygxFKsSUNmVD/mDAAcCOh7TI5IrbJpImkgLBNIhoMr+nex77GAA06mwyAUERBKgnijqkRKZpg5pUW8mbJoOmkQZTCSgyv6drHvsYABNfHRQZt0IqDbxOCn+tKEz7f2HDwiAgNoEmpubraamJrb+E9seO+znpHbFh/Qg4BKgBtqqVasq3d+m/aWyEwM4daZpHuXVlUBjYyPrzdlZOnbUsqUuT3xAAAT0IFBbW9ve3NRk3NAsDUdT2fXQIkoBAiDgEuC8OTu7rsT58+fvmDVrVh8XHv6CAAjoRcCEoVln8cg906dPv1ovzaE0IAACxQQ42rPDioWU+ZuGLJzWLZw6mUpA3iCQMAEalpzrzFFpZDxHJQ4CKl+c+IgLAiCgDgF63rk5d6yGYjFkoU5lhqQgEIfAHGeOChlEnfa8oykk9InDBXFBAATUI8BtTQAbxw4GUb3KDIlBIC6Burq6O+nZV3lxBc0dpA8WR8StDYgPAmoSoDUBjXPmsGnUsXDsqKWrpjohNQiAgAgC1FtPzpFKDp7r0FHvIz4gAAJmE2hyppfQEYEcKEhfPIHFEhyqAWQAAV4E7rjjjnudVWfX8JLqgDS00vWWefM4igaZQAAEJBPgMN9OumNHrXTJekD2IAACTAlwWWSxYsWK+uuuu+5uppggFgiAACMCsp07qY4dnDpGNTEFUe5eutTauGlT4JzsfN6i7m18QIAI3HbbbducrZCOSYsGDQu/+8477Zg7lxZxdfKhkwfCfJy5pFZlZWWYKAirMIEmZ3pG89y50vwraRnjeB2Fa20J0V2nbdSoUVV0e+zYsR0lggm7RC/dLVu23LZ169ZxtAs4PmYRuGvxYmtfZ6fw4Vraf+6wXO5qOHNm1Se3tB0dHdby5cvJCZvWt2/ftWnYsQ8++OBiJ9874fy5WtDjr1OPptXX1y+SURopjh1tcUCr4WQUGHnGJ0CtkYHHHbeyoaFhfPzUxKZADt+LL77YDiMplqsKqZGzt3nzZqtqyJCJ9FJ2ZR4zZsxm9zv9XbNmzWD664Rt2fr221dj8QPRMO9DjdFt27fvnD17dgW30pMde+21116+4oor+qCnj5t2gssja0hWimOHIdjgFYNDSDKA2VxOWusjLgMs0IlLEPFBQH0CZMd279nDskEahC6tuLz00kvHwdELQotPGBnOXeqOHZw6PhXOS5KWlhaWLVkvmYPcg3EMQglhQEAPArLnOiVFkUa92l9//U7MQU6KsLh0ZbxLU3Xs0HMirrIkkZKuRrAcK3Ly6CDncvdxHQRAQD0Cqo8whCVOTl6+s/POiZMmhY2K8CkRSLvXLlXHDr11KdWiENmQETy6X7+qpCcJhxBJStClS5bYMIxS0CNTEBBCQEbPiBDBBSaCxqpAmIKTStO5S82xg1MnuJbETI6W6zdpegh7HDQOExurbOMQRFwQSJeAs5JZ2XlzSZGixRfvbd/ejsZqUoTDp6tdw4O6ismxw0c+AWrRha+S5sWgaQPytQUJQAAEyhEg58U8yxS+xDQagQ8PAuG1Fy1GKj12hDSaeIgligBatdFIogcvGjfEAoGkCMCWRSMLWxaNm8hYGzZssIYNG5aK3yVS7m5prV+/noerbKgU6KHrViUjXUCr19AHCMVmQ4B60SM9vIjUhQBsmdwqTSOYXRSSwI9EPUfqKq+trW1PQG4k6UMAc+h8AEW4jfocARqigEBMAnQaRFVVVaLvqpgiKhmd3BslBddA6KQXUmSTZASnLkm6pdMmI0iVBgsjSvOJc5VWDhPbsOdExskTcUHAZAJ0LBOcumRqANmy1atXVyWTOlL1IkDD4l73495LrBWEPeviqiZ8fJln04WXVv0YaPGqr0OUgCcB9NKlqxfMv0uXN+VGjnVSuSaWMF56Samse7qmbSzcnYC8K6jn8tgjZz0JaLcthEJqgj1LT1m0h+ykyZMT8cESGYptnDMn0W7G9NDzz4m60pvnzk2kcvAvvXwJqdVFq/TkSwIJQEB9AvQ8zZ49u0L9kqhZAuKPqSbp6I72GExqy55EHAJ4/clXDAxVJM84bA6o92GJITwIHCJATsWhX/gmmwDsWToaSKLeC++xQ2VIvjJQDxEmFCfPOWwOSTygYWVAeBBQjQANSeHZ4ac10gnpBp9kCSSxJZnQFhK2g0i2AlDqMIDJM46bAxo3cQkivikEMJ+Ov6axEDJ5HYl+rwvtscP2JslWANHKT1Zac1MnPaGla67+UfJgBGjkAfPpgrGSGYp0hHdPshoQ3WsnzLFLahJgsjjVSB1DFWroqVBKWu0E566QCL6DwCECOBbsEAtVvsG5S05TM2bMGCcydWGOHXrrRKrlUFo0VJHUkuhDueBbEgTg3CVBFWmqTgBOnboahHOXnO5E9toJcezQW5eMsjFUkQzXNFOFc5cmbeTFnQCcOu4a8pePnDuMRvhzChtCZK+dkMUTmCweVoX+4XGKhD8jlULgGVFJW5A1CQJYKJEEVXlpLl2yxKa92PARR4D2EBRxHGhsxw4rYcUp1U0J3d0uCb3+wrnTS58oTXAC1MODKSXBeakSEs6deE2JeP/HduzwshKrWBFKFSsRUhNJAM+LSJpISwUC2ExdBS1FlxHboURnVyqmiJ5tOHalyEq6BqdOEviUs4VzlzJwZCeVAOyaVPypZI6eO7GY4z4zsRZPkDLFFsfc1GhOnbmlN6vkNIHcrBKjtKYSiPuCMpWbauXGIjGxGou7QjZWjx16HsQoEyvFxHBUKRVngqzd2NioksiQFQRCEYBTFwqXFoHRcydOjXGen8g9dvRiElcEc1OiVTANDQ3jzSVgZslp5RO2DDBT9yaUGiMQJmi5exmxQKY7k6hX4mwjF9mxQ29DVHUdikcvdnrBH7qCbyYRwPCFSdo2p6w0AlFfX7/InBKjpIUE4vQ0FaZj+vf3tm9vj8ogklNB478iN9OLKrzq8fAAqK5BMfJj+EIMR6QinwCmlcjXARcJMFUrviai+giReuzg1MlTWPyckQI3Ahi+4KYRyBOFAJy6KNT0jUP1Qd/SpVOyqFPeQjt2ccZ900HBP5eoXjj/kkHCqASoTmDOXVR6iCebAJw62Rrglz/NHW/CArFYiok65S20Yxdn3DdWCTWJjFaMJopMoBiYc5cAVCSZOAE4dYkjVjaD5rlzM7RBNT7RCSxbtmxq2Nih59hh3Dws4kPhqfVCFf3QFXwDge4EMOeuOxNc4UkATh1PvXCTCn5DdI1EObklVI9d3E3zohdNj5hw6vTQY9KlQM9d0oSRvggCcOpEUDQjjdWrV1eZUVLxpaysrBSfaGGK5HXjE40A5iYW1iR8D0Kgcc6caJUNsUAgYQJB6i/CgEAhAdiz6A8lncdbyNLve6hhQRLLL0Hc704AQ7DdmeBKMALYWigYJ4RKjwAWf6XHWrec4ENE12iY5y7wUCx529FFMjsmhmDN1n+c0tPKMuziH4cg4ookEOblIjJfpKUHAQzJRtdjmFG/wI5dk3P0FT7hCaAih2eGGF0J0C7+eKF2ZYJf6RKgCdyog97Mn1q/psI7BO6OHTu2A1ugRKsHYXYkCTQUS8tt6+rq7owmjrmxMAR7QPfPtd0/cre16dHd9qZBzj/rY+df3vo4VMXoYX3G6pU50fl3Ev37ybnVDV8LlYAmgTGUoYkiFSqG6Xbs2bZlMz+2N7Y4NsyxXRutPfbm0NrrlTn+gO2yyIad8I2zqyd+N3QiGkWAHYumzKCNq0COHbZfSFYJ0VLnG+s3bXcs2mm/MmWH/bK1196eqKDk6FVkTrP6ZkZccmb1tY8mmhmTxPE8MlGEAWKYuPL1ybZ/tnfmX7Z22W1OA3RvYlrOWj2t3plhVkX2tE/Or/6/PRPLiGHCNKxYW1sb+SxUhkVKRSSalhPkHOZAjh286/A6oyFY6nYOH1O9GM9teOiYDzufeudD+4VIrVmRJe6dGeoYylHWBdU3B6rbIvNOMy0sqkiTtpl5Be0dUJ3Or9sWPPih/ftxO/PrrE5rl7Ti5Kw+ju0aYR2V+dzyc6pn1EsTJKWM0UAND5pOJwpyBGWglx8cu/AKMMEoPt7aZL9nP2l9Yr8THlAKMcjJ65e9YO251Td8JYXspGSBZ1MKdq0zjbIhqmpAnm2799z37See/iD/O6dX7hN24lNv3meyf+H8+8Kws4ZdtYGdgIIEgv0KDzKIb+Hr2NFqWCycCAdf5946at1uy/9s3Ef2a+GgSA79mey5Vu/sZUedN2xMqP2AJIsdKPv29nY78U0sA0mCQKoTaGlp2Tl79mxtFwE81nqjvT3/mLXPUscMHObML+6f/ZJ1YU2T7/tatfpHh9xHPQ9VtbKKkleIYwePOpw6dG3tPtV2e8fW/I9P3mtvCweEWWia0zIoe+Xnz6y+6vfMRIslDm1gOWvWrD6xEkFkowkEeWGoCuhnrX/nOHS/VFX8/XJnrR7OCMSXrC/VzNfKwYOPEa5aBlnM5FtBAD0cdN2M45Nt37Hf6XzYaeF+EA4E89BHZoZYA7JXXnt29d/cw1zUUOLheQ2FC4EdAkHn7agIa23rdPu9/NMqiu4pc7/sF60v1/yH7/vbMxEmN9FrF14Rfn6GZ8UA8HDAdTKQT7X924a3O3/0WZWGLMJp60DoIzKVVr/c9VoN0WL6RJSaYGacoKvsVKOztrXBceh+pZrYoeU9Jnux04N3m+d7PHSiEiKgQRoOeizHDrDFwg6XmpzQv2v73vg3899/IMpeTXIkFpNr3+zZ1iU1dylvIF0a2E7AJYG/pQjoOmXk8dZG+538T1guiCilBxHXctYR1sDceOv86n9S1n5hKkm4muA3F9azIsCxCw47yLh38NTkhHx43dftnXarnMyZ5Hps9jLrizX/4vlcMBE1kBjovQuEyahAOvbSPdO28J43O++5ep/1vlG6LCzs4ZljrMHZCcpufgx/o1Cb3t/9GmZlX2A4bcIbbPFdv67R4vCcfv+67buPbupcdDEnmWTKcnhmgDV2+C/KPhsyZYuSN3rvolDTL47fy0DVEv9P6ySbti3B5wABWkF7Uc2/K2e/sDdnuBrs5XOUPSu2/fXXcYRYQM40t07VD81FgVPXVXuf2FutH71ypv1M213f7npHzV+0UTYZgWac96ymAgVITVswOR/lXvZ+RV+17ktw6oogbcv/wlqz7qt20WX2PxsaGsazF5KRgNRgLydO2Qcd3aLlkHW/7uU5dw/N58qadZfau+03+AjEUJL+2Yuc1u+/lX1OGIrsKxL2vfNFpE0AcuadRXBa1V9SjrOf5kNvdt51eZJHfqleCbLO3LvK3A1XnFV93YOqlAULNoNryuvZLvvAw7ELDlg1x452Xf9T5+1P563dwQtpcEjaGuVrw9eUfVZURIPhWRW1FlxmnVboF5f6563/YG/L/7z4Mn6XITAwe4WzuXGjMvYLvkcZRZa4XM73KDkUS2PdJdLApRIE6JDsEpfZXqLhxfbOb8OpC6Ghj+zXrVXrvqjc0IZXEd3hWdXqr1eZcO8AATL2Qc6TVJHXI+smwKkLqbi38w9YNOUmZDRpwWkuKD7xCJR07Hr17DkuXrLmxFZpXsATbbfYf+r8j2+aox1xJaXzcB945RxljGPQklP9JUcA8++CEuMbjubRkS75ShhPsofW1dof2s/HS8TQ2LSn30/XXauE/XrhhReqDFVT6GLTItdSkUo6dhMnTSoVFteKCKj0MqQjdd7qvL+oBPgZhkCntdNZVPE5m4ayw8RTISzNw6KPSnVaBa5pyEi9rqQ76oVNIz8Zeaxe92X7I/uPMrLWJs8d9kvWj9d9jb1zp3M9Fl2ZnN7NkotcS7buMMYdDD8Z02Ah5YZa2/q3zi7sT8oVQrPcP5ubW3VGtb4vUkxi5l9hyaFTacQgKtGV6y6w99rbo0ZHvCICvTInWWOGP8z63YUNi4uU5vGzlB/SrcfOawmtR9rG3VJli5PHWm+GU5dA7Xyt89b2BJJlk6Tbg4c5eGxUclAQd8jVBKdu9bqvwKk7qHkxX3bbG62frLuSdc/d7NmzK8SU1sxUujl2L774otYvLFFqzuZy00SllVQ6T7f95++35lcnlbzR6eatPdaDr5zL2jiKUJA7Bw8Ongia0dOghiS1zOljylDVQ+vG2qYdbRi9hoSLucteb9HGzuFipRtalc6TdKkEy62bY1dXVxcspuGh6uvrF3FG8Nu2u294o3Px5zjLqLps+6wdzmrZ0ayNoyjGroNHjgUMriiq/unQnEdirusq13IEaPXrR/Zr5W7jugACdFrHz1v/nq39UqHzRIAaYidRaheTbo5dZWVl7Ix0T0CFF1tH5+3/qbseOJTvE/tdZ0LyGLbGMQlG5GTQhw6iTiJ909Ok7R7oPFdiTEPipvH4RessrH5NSel0SsVTbS3vppRdqGy4d56EKkyCgd9+661uu5h0c+wSzF+bpLm3JB585XyjHA3ZFetjZ587ehnJliPt/GkeDDkf9GlqbEw7e+3yI0eZWNLRX6a+1Gik4d38o9rplnOB3uxc3p+rfCp0oshm11TiqMgujl25PVFkC84tf85G9+F1f23vs97nhkx7eehl9GzbspnaF7RMAZvnziWfJEM9TTDGZSCVuOw6c8QOE8Yta2Pnf2OkoUQ9SfoSrTxOOo8o6e/es0epAwCilDGJOF26+bHFgT9iGibhepj2E23znL3q7vMvBEIkQiBr9bSuHPFcl2cqkYwUSZRW2L/w/PPtpVqUihQhETHJmYMT1x0tzq7uziTNK30yI6yvDr+Xnf3C9mv+tYAahoWhuvTYYeFEIZrS3x955BGWLYjn21ZVwqkrrbO0rtJK2TXrLmPZ8k2LQWE+tHrT7ckjw0MOjYnHBVEPpjtnjjjAqSusJQe+/6z1Bnu3/Ub3G7iSGoGd9ivWk23/zM5+mWgzwiq9eLS1i2OHhRP+OLnuHdWe/892f+kRImkCu+1N1hNtt7IzjkmXO0j65NBQb7f70dXRI0fOPQ2CykqLTThP3wiiuyTD/O/6NYO35x9PMgukHZDAls4fBAyZXjCunSnpEfDPyXF+u5xA0aX7Dl2e3gC5DsOSI/FW5w+9hcfdVAl8fcTLXZ6tVDNXNDNqdZKBalRoIQbZBKc3zho1alSVKfvLia5eq9ZdZH9ivy06WaQXkUBFZqR12fB7WNkv+CbeyqTGZOGWSF2UB3je8LjOjbnvlZHoIfJWXep3+2bPti6puavL85W6EBpkSPP0tmzZctvWrVvH0VQRWaMKZDg3btpE+U9D75u4ivWrtn+xN3d+X1yCSEkIgVNy/++SM6uvZbM8Gb6Jv1ppdMANdfALGdDa2loM57lkSvwtBFfitpRL/9N6vf1B/rdS8kam3gR0P0/Wu/Tp3C08ArHcqTmFDiFty5LJdpmBsl/QAQMGrBw0aNDBVc3ofUtHfz965Uw7b32STmbIJTCBHpljrHHDHzvoHwSOmFBALOz0B1vonxzmBiej6Dh27k/8VYDAc233j/xj5y0KSGqmiH/KL6CGEhvjqKMWihywkqydl4KORVe+TGtbpzvnWD+tfDl0LMBeZ+P1J9u+bX+h+lsln6m0y0w95U6eXeaRpS2DSvkdbLqedOKJKskNWR0Cm/M/eAkg+BLYY79l/abtDtZHz/GlB8l0JwCnjreG3+7kc844pj/415XC0YuDjt3ESZP8Yxocgs5s5PT53fr7h9KJB/jwJvB2ftUU3hJCOhBIn8Da1gbMC04fe6gc89bHLLc/CVUIgwIXTkU56NgZVP5IRf20KzhS3CQibe1cuT6JdJGmWAJ77M3WM23LpopNFamBgNoE3sv/Su0CGCL9O50PsSkpLWDCJxgBOHbBOFncuoJ32usCSo5gsgm8nf8R5obIVgLyZ0Pg563/gN46NtrwFmSf9aH1dNu/v+wdKp2727Zv35lOTmrmUnjAxMGJkVhO7K3MwhUn3iGTv/vIunr7Q/v3yWeEHIQR+LPczad9vvoqFgZSWKGQEAhEIIDtmSJAkxilR6afs0L2iYO+gkRRLPgp3vRdP2V/j13hpDvvaGbepU1IOX3g1HHSRjBZ3sn/FAtdgqFCKI0JPN7ajN46xfS7196O6SSK6QxDsQEU9sADD7DpAn68tQmGMYDOuAWBM85NI5BHBoHt+V/IyBZ5xiTwXv5xTCeJyTDN6Psdu8LVFGlmrkpep5xyykgusm7P/5KLKJAjJIFftf3rnpBREBwEtCFA+27utd7TpjwmFYRLw5Q2GMfHnwB67PwZWUWboAaIkUyQ37fdfyYMYzJs00jVccoPTyMf5AECHAlss3+J6QgcFRNQJg4N01KnxgQU34hg7rS6/Y5d4WoKI0qvaCHftX/5nKKiQ2yHwG77TXAAAWMJvI9TJpTWPYeG6ahRo6qUhpiS8PsdO2ePtpSyQzZxCMAwxqHHI+4vW7+JOZI8VAEpUiTwTNvCe1LMDlklQAAN0wSgCk7SnVaHoVjBYJNK7vm2VZVJpY100yOw034lvcyQEwgwIfCh/fLVTESBGDEIPNV2e0eM6LGjcpkWFbsgCScAx84HMJfdrj+wX2j3ERW3FSDwsd2hgJQQEQTEEtiRx/Q6sUTlpOY0TE+WkzNyDUMAjp0PrY2bNvmESOc2enrS4ZxGLs+2rahPIx/kAQJcCOyzPuAiCuSIQWBHHnusx8CXeFQ7n9+fBxw7H9QDBgxY6RMkldu77D+kkg8ySZ6Acxzc3cnnghxAgAeBp9u++zgPSSBFXAJ5a3fcJBA/QQJNzc37U4dj5wN50KBBM32CJH772bZ7z008E2SQGoEdmGeXGmtkJJ/ATvvlC+RLAQlEEXiqreVdUWlFSaf5U+clSlxT4sCx89E0h8maH1uvP+0jJm4rRGC3vVEhaSEqCMQj8JH9x3gJIDYrAh/Zr/dnJRCE6UYg625o1+0OLrAhsMfezEYWCAICIAACYQh8Ym8NExxhmROQ/T7CXnb+FQQ9dv6MpIeQ/SBJB6ChAFhAoaFSUSQQMIAA3kf8lQzHjr+OnBML3lBASogYhsBuazMWUIQBhrBKEkADRkm1eQrdaX3seR835ROAYydfB74SYCWSLyLlAqDVq5zKIHAEAmjARICmQJRXX/1pTwXENFZEOHbMVf/U+jUVzEWEeBEI7LG3RIiFKCCgFgE0YNTSV1Bp39nXIe2IOA4LGoNykhUOjp0s8gHz7WFvrw8YFMEUIrDX2qaQtBAVBKIR2Ge/Hy0iYrEm4NivcawFNFy4rHtorOEc2BY/b+39LFvhIFhkAp32zshxEREEVCHg2C9VRIWcIQh02rtChEbQtAmgxy5t4iHzs619lSGjILgCBDABWQElQcTYBGzrk9hpIAF+BDotNEz5aeWQRHDsDrFg+S1v7UGPHUvNQCgQAAE/Auix8yOk5v19GHFgrTg4dh7quXvpUo+76dyyrb2V6eSEXEAABEBALAHHfolNEKmxINBpYSiWhSLKCAHHrgwYurxx0yaPu+ncclq8h6eTE3IBARAAAbEE8hiKFQuUSWoYimWiiBJi0GlicOxKgOF0KWNBRZz0AVlAAASCE8hYueCBEVIZAs7cb2VkNVFQeA3MtZ61ev2BuYgQDwRAAARKEnDsV8nruKg2gax1hNoF0Fh62ucPjh1zBeesXr9hLiLEAwEQAIGSBHJwAEpyUf0i9Mpbg3DsPPRz0oknetxN51bGOuLX6eSEXEAABEBALAH07IjlySU16JWLJkrLAceuNJf9VydOmuRxN51bPawjf59OTsgFBEAABMQSyGYwFCuWKI/UchkMxfLQRGkpspWVldNK38JVDgTOrL4Kjh0HRUAGEACB0AScqSSh4yACfwLoseOto2zfvn3X8hYR0oGAfgQOzwzQr1AoEQgUEehhHV10BT91INAj00+HYmhbBgzFaqtaFIwzgZ7WYM7iQTYQEEKgV+b424UkhERYEehlHX8jK4EgTBcCcOy64OD5o1fmBJ6CQarIBHpl4NhFhoeIyhA4u/r6mcoIC0EDEzi7euK3AwcWHJA24BWcpHbJwbFTQKU94QQooKVwIvbMHI9tbMIhQ2gQAAEQAIEABODYBYAkOwiG7WRrQHz+h2eOmyg+VaQIAvwIHGYdxU8oSBSZAObXRUaXWsQs7VKcWm7IKBKBnplBKyNFRCS2BM4adtUGtsJBMBAQSAAjDgJhMkiqp3W8VCm2bNlym1QBFMgcPXYKKOnc6obxCogJEQMSQA9GQFAIpgWBIzOnaFEOFOIAgd6S9bl169Zx0IU3ATh23nwsLhM1c1YfH0lxWxUCFdnTVREVcoJAbAJ9MyMuiZ0IEmBDoG/mjCo2wkCQkgTg2JXEcugil27fo+AMHFKK4t8qMiMXK14EiA8CgQmcWX3to4EDIyB7AmdUy52+1djYyJ6RLAGbPmUDx85HA1y6fftkRmKenY+uVLl9TvX0qarICjlBQASB3plhIpJBGpIJVGRGSZYA2XsRyGQPuHRw7LwoOffsfN4nRDq3Mc8uHc5J54I9CZMmjPQ5EqjInMZRLMgUkkBFdmTIGAgugwAcOx/qTc3NPiHSu43VZemxTiqnigzm1yXFFunyJXBBzc0ZvtJBsqAEzq/+J+gxKCyJ4eDYSYQfNuujs+eFjYLwzAh8seY7MIzMdAJx0iHQI9M/nYyQSyIEnOPhEkk3TKJcFjOGkTnNsJWVldMov/2OXTOjXqk0IaiW1wXVaPWqprNCeQ/PDCj8ie8gYBSBfpkLjSqvboXtlx0tvUgffPDBxdKFYCxA375915J4hzGWkY1o1ErgspFz78xnrV32H9iwgSDBCfTPXuQE/kXwCAjpSWDNmjWDydC3v/763W7Ar//1X1tDhw51fwb6e9fixdbmzZsPhj39jDP2d02MGTPm0MWDd/ElKoELa5oy970y0o4aH/HkEuAwDNvR0XGnXAq8c3f9lP2O3afddwBWRmefbnnCYpPgo7MX/GZX5x/OKSMqLjMm8IXqb2IYNqR+VqxYUU+OWxSHLWhW10+ZUhz0Tbpg2119ENcBJMcPTl8xsmC/j8z8mfWR/cdggRGKDQFnVwZHlpely1NXVyddBhUE2O/Yud13KggsQ0YuW55Q2f+y+hvnotUroxbEy7NPpsZJQL5hjFeKZGMvXLjwnsNyuatLOFrJZhww9QK53ix0+uY6U1mqhgyZOGHChGUBkzI22NHZL/zpo84/nmwsAEUL3i97/nLLuke69E4nlHQZVBDgYA+CY6i6Nk9VkD5FGTPOJ8XsPLNa2/q39nv5Jz3D4CYvApW5f/zG2dUTv8tLKrnStLS0vDtz5sz+cqUQnzv17O3r7Lx3xowZ14hPXf0Uf/TKmXbe+kT9ghhSgpzV27pixDMs3n/wU7wrneunHFQWgAUD5h0qvbvotUuPddycemYGWbXD1x581uKmp2p86pEbPXr01WHnwKlaXlducvR69uqFHr1PgTzWepO9Nb/GxYO/zAkMyl1jcZhGQnPda2tr25njkiqe69hhuxOpaoieed/sn0ePjJipEhiYHWfsEWLUK0eNRvpMnz7dOKeOKhoN4V533XV3E4P169fb5OCmWgGZZTa6Zp7xjRxmKikrTtbqxcKpIwFffPFFOHVlNWVZhbubwLHzAFV4a9myZVMLf8v+fknNEhhH2UoIkH8P62jLtCPECp05HYdaA6i9bBDqrSQH13XyaHFI2cAa3zgm+xWNS6dP0Y7NfpVNYbBwIrgqDjp2dy9dGjyWgSGdlXnsVg3jmB7+FXFg7orf8JcyvoTUC0W9UfSBMxeMJzl5bk/e4kWLjJrj/KWaFjRMg1UTaaGy1uEWbVEjTYCijLFwoghI0c9Ro0ZVuZcOOnYbN21yr+FvCQKcjhZzxbts+A/YPHSuTPh7iABtSEyrmA9d0e/bTTfeuN+ZM3WYVZRGabh2P0jnP1OGavtnvywKH9JJgMCx2a8lkCqSTIqAu4cdpX/Qsft0L7uk8kS6CRGAcUwIrIBkj8194ygBybBLgiYxu71zt8ybx04+1QVyh2rJaVa9LF7yX1Rze+Ywq8IrCO5JIkCNUk69dQsWLHhQEgolsz3o2NXX1y9SsgQpCs1tnh0VHcYxxQoQIqujs+db5w0bsyNEFPZBqSeJepVoZZppK1tlKIecZuKt8zDt4NzkZhlskac3AW6N0l49e47zlhh3CwkcdOwKL+J7aQL5zk528+xI0hNyU24sLTGuyiCQs460Lq5ZoM0wuevQUU+SDJ6m51k4TKvbIejnVE9u6pMZbrqKWZXf2USaXaN04qRJrBhxE8Y5aq2LSHDsuuDw/sG1cjkb334bxtFbd2nePSFXf2+a+SWVFxy6pMhGT5d6S6kXTycH76vDf6hNIyi6ZnnEPNAo/W/og4c6AkuxfPnyLmG7OHbFXl+XkPjBmgAZx5x1BGsZTRCuwjlT8S+q1T5xgKYckPOAHjq+NZYcPJrnyFfCcJIdn5v0h3AxEDoJAifl/nZiEunGSbOpqUmbeh6Hg1fc4jUSXRy7Yq/PKyFT782fP5/tvKkTczO+YapeOJSbJoJfNvweZVu71AtEDp2zXxTLKQccdMxJBprnSPrSYQ7eedX/MLQiM4oTXuNk6Zf9ovXn1fzOO25sbDROF2ELXLxGootjN2DAgJVhEzQt/KxZs/pwLTOdRUoPJz5yCAzJza6Sk3P8XMk5wHE98TnKSMGdg0cbQ8vIX1Selw3/vrNKVsuF5KIQJZYOrYL9cs1/KNsoTQyMogl3cewaGhrGK1oOiP0pAXo4D88MBI+UCQzI/pV1RvXYjpSzjZ1dszPMQR9yDvBRmwBtDE26VHn+3cm5vztNbS2oKf3Y4b9g6dRxHiHjrOkujh1nQTnJxr2yjR3+c5YPKScdipTliEyVNbrmVuWYkxMwB8McIqsCi7So51XV4dnPV1/1MjWS8EmPwPG5um3p5RYuJ84jZOFKklzophI2HI5dBN4qVLYhuW+NjlA0RAlJoGdmkPVXw3+slFPnnhYRsqgIrhABd3iW496bfhipkfSZ7F/6BcN9AQSOyV5qnVc96xgBSSEJSQQGHndctyl03V5ItAIFkxX9NZRxPv6h5Ib4bdv3r+no/JcfyJVC39xpXgrXIYxS1GmIDvPoSpHR+9qGDRusYcOGsbdXxVp4ZF2d/aH9v8WX8VsQgf7Zi5wN7v+Nbb2gkTEVOlEEqSNyMqV8kW49doUHyUbOyYCIjXPmsF+CfXb139xzUu6G/zJAHakXsUfmGKWcOuqlg1OXejVhkaG7ela13rtLhy/PVGQw5S6JStQvewFrp47KDKcuuuZLeus09yZ6kubELOUpcyz9023fffyNzkUXcJRNRZl6WJ+xxo34Vclnh2N58Dxz1Iocme5avNiaMnWqMnWXKP1k3VX2LrtNDjANc/1M9lzrKzV3sq4D1AjBtkvBKl8pP6Rbj12wpBCKCKhyMPFfVt9w4cm5Bi1OQ5Bd8w53eupUcepo+ws4dbJrDK/83bl3vKTyluby4fc7PXcjvQPhbiACdIY1d6eOCnLBBRdgL80AGm1ubi4ZqqRjhxMoSrLqdnHGjBnKHExMpyFU5v7xG90KgQuBCdBCibHDH2Pd0nULQ6cS0PYX7m/8BYFCAuTwq7TvHW38fVTmjMIi4HtIAsdkv6LMGdbOSQohS2dm8OITJ1wKJR27Rx55pNsqCzcC/nYloNKeUbSBcVXuW1hu1lWFgX71ypxg1Q5fq4RTRy9tmleFDwh4ESDHX6VtUS4dvsJZLXuOV5FwrwyBY7OXW1+qaVHCfqkwf70M5tQvF5844QpQVtH0cnAD4W95AncvXWpNmjy5LMfyMeXdeb5tVeVrnd9uz1u75QmhUM69M5+1Lh/+IHsd09QAlXqRFaoC2otaap4O10L/vPUf7W35n3EVj51cg3LXWF+o/iZ7++WCg+/hkvD/W+65Ldlj558cQrgEJk6a5H5V5i+dkHDliN9lyGHBx5vAwOxYJZw6WvUKp85bl7hbngC9TFUZfbio5vbMSbm/b85ZR5QvEO5YtMjr+MPmHaWSU6fKvHUO1avUxsSuXGUdO+qJwicYAdr7L1hIXqGoF+q47JW8hGIiTY9MP+vrI17OXFgzl31Ll+bT3TJvHhNyEENVArQdjiov1nOqJzddMeJZNE7LVLajsp/fv8jrvGFjdpQJwvIyGqfB1VI1ZMi0cqHLvrQwrFMOWenr5bpES4fmd3XlutH2XlvpM8SFQe2bPdu6pOauss+GsIwEJIRhCwEQkUQXAqptifJE2632W50/7FIGU39krZ7W8blJK8+tVu/cd2ygHq7Wevkcni8vvDSCg164cOHKhgb1HqbCEv6y9Zv2O/mfFF4y6jttZTI4O/la2thZhYLj+VRBS2rKqOJpFT9eN8b+2H5dTeACpK7InG5dNvx7nu90AdkklgTsWTi0cOzC8Yoc2gt05EQlRHxo3Vj7I/s1CTnLy3JAttYaXXOLMkYRRlBeXTEpZ9Vs2q/bvvvo5s4fXNxp7TJGTYdnjrVOyE684qzq6x5UtdDorQunOdq/zpkCVvZ9VfYGZUPLjpvKbIAXTgwzQvvBVonCr9sWPLS583uXd1o7VRI7tKy9M0OdxREPeD4HoRNNMAKmSCQIF0mXJKCac0eF+Fnr/7G3558oWR6dLtLiLhXmAfsxR0PVj1DX+37PpO8LDcC7AvX75QfcLz63+zR/5d3Oh619llJzcH0xkkM3KDv2kjOrr33UNzCTAHDqmCjCQDFUtWuPtk6x388/o53G+me/7Jz1ervv+1uFgsOuhdeS3/PoWzHg2IWDrlOvXWHJf9U2f8c7nT/us9d6v/Cyct/pUPHjclcd/7lhYzarJDyMn0ra0lNWv5cJ51Lr0INHCyPIoftizXd839ucdVEsG3yMYiLev4PsnVt2uxM3aWx74pII9rexsTFYQMVCnV89u4LOSD0hN+V/j8hUKia9ZfXLXrB/+5LLhv8gA6dOOfVBYAYEVH4Bf7nmvzK0fdGx2a9aOas3A5rBReiR6e80Rr9uXTniuYxuTh01WIOTQEgikM3lym5z4hLy9fyXLVs2ta6uDgfyusQC/A3iUQdIhn2Qx1pvtt+zn7T22ttZytonM8Jx6L6w/JzqGfUsBQwgFHrqAkBCkFQJqNxz54L6Xdv3xm+zn3jgg/xv3Uus/uasIy06Pu3kHhf3OvXUy/awEk6gMCo3FgRiCJVUkOfP17GjHAE/FPf9gYPAD58qzxjPtd0/8n37mZd22C9an9hbpQrZJ1NjVWTPcI7Q+X+B6rZUYX0yh1PnAwi3pRHQyb493fbvL3+Yf2HETnudJfOYxcOsvo7tGmkdlTnzO39Rff23pCk3pYxpY39dR7iSQhi00yjQy2/pkiW2ikdnJQU3aLo6Gb+gZaZwzoraB3faL43bkX/FWXTxQZioocMemRli9XHmzVVkRp72+eqrXg6dANMIcOqYKgZiHSSgq32jBWM78y9ZO+3Wg2VN4kvWORLtQEN05JbzqmcOTiIPzmmiwyi8dpYvXz6tvr5+kV/MQI4dhmP9MJa+39LSsnP27NkVpe+ac/XZtnvP3WO98ehue2Of3fYma7f9htMyDje60MPZPPgI60SrV4b+naD08GoQzcPoBaGEMLIJ6OrcFXL9TduSpj32xsbdFtmuTdYe+63C24G+98qcZB2x33ad5CyBOEmZTdADFS5CINi3CNCcKEGft0COHYkARSSriGip6xXr1Vd/2lPn+SRBtYVnLSgphONAIOjLhoOsScrw1Po1FaqdzZokj3Jpz58/f8esWbP6lLuP66UJBB2Gpdi+q2LdLLA61iUR7i9e0sF5walDAyp4bUFILgQWL1pkc5FFphxw6oLRh1MXjFNxqCCrYd04gXvsKAKcFBdbuL9Bx8XDpYrQuhHA86WbRs0pT5OzzVPz3Lmh3ifm0EFJXQLr16+3hw4d6v7E3xAEwvSMB+6xC5E/ghYRwHYxRUDwsxsBMnjdLuICCChCgI6exJ5kiihLkpg0Vx9OXTT4dPBBmE+oFhbGxsOg7Rp2w4YN1rBhw0Lx7poCfulKAMv+ddWseeUK06tgHh2zS4wRiej6D/tcheqxwwrP6IqhlgpatNH56RqTWrHYy0lX7ZpXLry8zdN5kBJjRCIIJXFhQvcgtbe325WVleIkMCylsJ63YXiMKy5ehMap3IgCw84ZoeZAhcRIXyBMZQMtXLhwZUNDw/iyAUrcCNVjR/GfeOIJ33PKSuSDS58SwIscVcElgLrgksBf3QjQy1y3MqE84QmsWrWqEqtgw3MrjBHWqaO4oXvsKBJeSEQh3gct2nj8VI+NeXWqaxDy+xGAjfMjpP99+ArxdBxm77rCnEL32FHksCs0CjPE9wMEGufMwSpIgysD5tUZrHxDio6XuiGKLlNM6L8MmBCXJ02eHKnzLZJj5/Q2RMosRHm0D4rtAbRXcdkCwuCVRYMbmhFAA1YzhQYsDhZLBATlEayjo8PjrvetSI4dJYmTKLzBBrk7Y8aMcUHCIYw+BLBLvz66REn8CVADllZ++4dECF0I0DQT7FcXX5svvPBCVdRUYvW8oechKvau8TAXpSsPXX9hdZiumkW5/AjAxvkR0uM+bemFDgsxuozzzBwWRwTqKsTWJ3EIHohLDnIcJcaXACkkTYBWh9XW1uLg66RBI32WBGDjWKpFuFBw6sQgpS1O4qQUq8fu05dVexwBEPcQATh3h1jo9g2927ppFOUJSwCn74QlplZ42Dhx+orrC0SeY0dFGDt2bIe4oiAlPBh61gHoVU+9olThCNC8K8wxDcdMldCwceI0JWLXkViOHRUlbpehOBx6pIQHRA89uqWAPl0S+AsClnX9lCkWNi/WqybAxonVp4hdR2I7dlF2RRaLQb/U8KDooVMs+ddDjyiFWAJ0EgHOzRbLVFZqeFeJJS+it44kiu3YUSLotSMKYj94YMTyTDs1GnLCkv+0qSM/VQjQJHs4d6poq7SceEeV5hLnqojeOspfiGOHXrs4qiwfFw9OeTac75BTR0NO+IAACJQnAOeuPBvOd8ghx7tJvIZE9daRZEIcO0oIvXZEQfwHD5B4pkmmCKcuSbpIWzcCcO7U0ij2qUtOX6J660hCYY4deu2SUzg5d9i9PTm+olKmOXXoqRNFE+mYQgDOnRqapkYr6UoNadWSUmRvHZU81j52xeiwr10xEbG/5zrH8zTinF6xUAWlhp5VQSCRjLEE7lq82JoydarQd5KxMAUXHPZNMNCi5OLuW1eUnFjHjhJHBShGLPY3NvkUy1NEaqjzIigiDRCwLNg3frUA9i1ZnbS0tOycPXt2hchchA3FukKJ9jzddPH3AAFaaYkHjUdtoOFx6IKHLiCFHgRg3/jo0XE43oV9S14fop06kli4Y0eJ3r10Kf3BJ0EC9MA1NzXZCWaBpD0I3HTjjXZdXd2dHkFwCwRAICIBsm+YVxwRnoBoNF945syZ/QUkhSQ8CKxevbrK43bkW4nNZ6AHM7JUiBiKAHpJQ+GKHRh1OzZCJAACgQjcfNNN1rxbb03sPRVICIMCkTONBmt6Ck/q3Z1Ijx1hEb3KIz3U6uVEjgZ1m6snuVoSY+hVLX1BWvUJ3DJvHqaepKRG6qWDU5cSbCebpJw6KkFijp3IPVnSQ61uTtRtjp6k5PQHo5ccW6QMAn4EyLZh6okfpWj3nT1o7yG+OCknGr8osZoaG6NECxwnMceOJFi+fPm0wJIgoBAC9IDSfkNCEkMitPE2jB7qAQgwIDDHeRmSfWMgihYi0PZkxHP69OlXa1EghQrRPHduotMLEnXs6uvrFynEWhtRaZNcemDRwo2nUhi9ePwQGwSSIEDPJS1eSiJtU9Kkxn9tbW27KeXlVE7a3iRpeRJ17Ej4JMeRk4ajevpuC5d6nVQvS5ryk9GjT5p5Ii8QAIHgBNy5d5hbHJwZhaTGPn1wQk44biJDJ7G9SbF8iTt2lGEaHmpxwfD7EAHqaqeHGQ7eISalvsHolaKCayDAl4A7txi2zVtHrm2jxj4+8gik1dGV6DhvIT5yLAp/47s8Arfddtu2WbNmHSNPAl45k9GDweOlExHS0H6aGzdtsiorK6f17dt37dixYztKpUtzjej6li1bbtu6deu4Rrz8SmFS4todd9xxr3Oe6TVKCJuCkDT6gN65FEAHyIJ2CtFyUSk5d/jwIWD6Igt3yJWPRiBJHAJLlyyxFyxY8GAAGxs4yPz583fEkQlx5RCgxlpgJWsW0F0UIYc8ci1HQLNqdqg4jrdarsy4LpmAKUMZVE7JqJG9QALt7e2pnVAAJ0+g4lJKihpvbo/soTeRnt/c4daU0CKbEAT0rHEFpQrBAkElECBDuGLFivoClSn/lZw52ocOH30IUO+crIpJvYL6kDSnJDqupKXFI+ZoUM2SUoeWLFuVar5qqsc8qckZUrUnD86cnvVVpkNXbCTdk0j0JK13qcjJU7UBi545tepmsd1I43dqiycKC0NDGs7k/T6F1/CdP4G7Fi+29nV2spycTI7cYbnc1ZgozL8eRZUwrRVlYeWDPQtLjF/4uc7E9qohQyZOmDBhGSfp1qxZM/jVV1996fLLL++PkyE4aSaYLLJslhTHjpDQ3BhntVowOgjFlgAd0n38CSfcO3jw4FljxozZnLSgrqF7/733+tNeVvjoT0CV1WTUj6C/Nswo4YYNG6z7fvhDa8DAganatheef/5Nx5ZaaKCqX8+czoaVDQ0N42WURJpjR4WFIZSh8nTzpJZw4YdaxbT1ROE1+k4GrfDa3r17LThQ+g8GAAAKwUlEQVRuhUTM/C6rxRuVduOcOXZTUZ2Pmhbi8SZQbNt69+mz7dRTTz2tWGrqcdu1c2d/9zpsm0tC378dHR1WVVWVNP9KWsakUlqthGNN9K3cKBkIRCVAe9BNmjxZqn2KKjvNvaurq7szanzEAwEQUJuA7AZpKidPlFMRbRjahM1Ay+HBdRAwkgANvarq1JHC6Ixs2YbdyIqDQoMAAwKrV6+uki0GixYxhmRlVwPkDwI8CMicl5IEAdi2JKgiTRDgSYCL/WLh2JGKYAB5VlRIBQJpEeBiFEWXF7ZNNFGkBwL8CHCaPsLGsSM1wQDyq6yQCATSIKCrU+eyg21zSeAvCOhJgNP0C6lz7IrVS8a9+Bp+gwAI6E1Ad6eOtMfJ6Otdm1A6EEifALfnO5c+gvI5Pvzww/c73XZNF44eXT4Q7oAACGhDgIYvpk6bVqNNgTwK4mx/sOX000//mkcQ3AIBEFCMADenjvCxGop19YnNi10S+AsCehPgaBSTJE7nRjZiJ4AkESNtEEiNANfRBpaOHWkFc1JSq5vICASkEDDNqXMhw7a5JPAXBNQlQFu1Nc+dy9KHYjXHrlDFphr9Qgb4DgK6Eli+fPk0XcvmVy7YNj9CuA8CvAnQFBKuTh2RY+vYkXAwgEQBHxDQiwBtQEyb+OpVqnClMdmxDUcKoUGAFwE6Loz7BuosuxGL1Yihi2Ii+A0CahLgtNeTbII4V1a2BpA/CIQnoEKHkxKOHc6UDV/5EAMEOBJQwSimyQ2N1jRpIy8QiEdAFfvFeijWVQGdKYs97lwa+AsCahJQxSimSRdM0qSNvEAgOgGVnlUlHDtSRUNDw3g4d9ErJWKCgEwCHA7Glll+r7zBxosO7oGAfAIqOXVEi9UGxX7qow2MBw4ceNpZZ51V7RcW90EABHgQoAbZhAkTjF4s4aWJ++67733nxdF04YUXegXDPRAAAQkEVHPqCJFSjh0JDOeOKOADAmoQ4LqBJzd6jz/+ePPJJ53UdMYZZ3ATDfKAgLEEVHTqSFlKLJ4oVasWLFjw4IwZM8aVuodrIAAC8gnAqQuvAyymCM8MMUAgCQKqOnXEQlnHjoSHc0cU8AEBfgTg1EXXCZy76OwQEwREEFDZqaPyK+3YUQGWLVs2ta6u7k76jg8IgIB8AnDq4usAzl18hkgBBKIQUN2pozIr79i5ioMhdEngLwjIIwCnThx72DRxLJESCAQhoINTR+VUZrsTP6XoohC/cuI+CHAlAKdOrGZw7JhYnkgNBMoRoBNxdPIhtHHsSGE6KaZcBcR1EOBIAE6deK3QebrEVXzKSBEEQMAloOMxh9oMxbpKor8Ywiikge8gkCwBNKiS5YtFYsnyRermEmhpadk5e/bsCt0IaNVj5yqHXjTkheMDAiCQLAE4dcnypdRx6k7yjJGDeQSoN1xHp440qWWPnVtF0dJ1SeAvCIgnAKdOPFOvFGHPvOjgHggEJ6C77dLasXPVjKFZlwT+gkB8AjrOSYlPJZ0U4Nylwxm56EtAd6eONKflUGxxlTRBkcVlxm8QSIIADV9MmjzZiAZhEvzipolh2bgEEd9UAk2NjcYssDTKQC9dssSeOGmSqfUa5QaBWATQQIqFT3hkjEQIR4oENSVg2qp9oxw7qrMYytD0yUWxEiOAodfE0MZOGM5dbIRIQHMCJjZIjRiKLay3NJRhoqILGeA7CAQlgKHXoKTkhIMtk8MdufInYNLQa7E2jHPsXABkEJubm92f+AsCIFBEgJ4RaggVXcZPZgRIT9jeiZlSII5UAnRqS/PcucaNSLrQjS24C2DVqlWVtbW17e5v/AUB0wlQS9dko6iq/hvnzLGb0FhVVX2QWxABaugISkrZZIztsXM1Nnbs2A6qCB0dHe4l/AUBYwmsXr26Ck6dmuonvdHQuZrSQ2oQiEeATpGAU3eAofGebWFVWrZs2dS6uro7C6/hOwiYQICmJTQ1NcEeaKJsLKrQRJEoRiACcOi6YjK+x64QBx26TRWEhqLwAQFTCOyv83DqtFI36RTz7rRSKQpTggB66UpAcS7BsSvBhYY0aEiqxC1cAgFtCMAoaqPKkgWhjaQxNFsSDS4qToCmTlHjRdezXuOqB0MvPgSd4Sm7ET14PpRwWyUCZBSrqqrw7KuktJiyYmg2JkBEZ0OAVrzS6BobgRgKgh47H6XQvCP6+ATDbRBQggD1RMOpU0JVQoUkG4btnYQiRWIpE6D6S/UYTp0/eDgs/owOhsDWKAdR4ItiBEw7Ukcx9aQqLnrvUsWNzGISwAhDeIDosQvBzN0aheYmhYiGoCAgjYDbysVGw9JUwC5j9N6xUwkEKkMAIwxlwPhcRo+dDyCv20uXLLEnTprkFQT3QEAKAZzvKgW7cpmi9045lRkhMEYY4qkZPXYx+NGqM/pgW4EYEBFVOAFq5VLdFJ4wEtSOANkvrJzVTq3KFshdqY8RBmVVqJ/g1IOHDwjIIkBzQPV7qlCitAjQDgD4gIAMAlT30qrnyAcEIhGAgyfDNJibJxy6SI8pIpUhAPtlri1Ju+Rw6Mo8hDEvY7gmJkCv6JiD50UH9+ISoCFXWtATNx3EB4FSBOglX+o6roFAXAI05IrNheNSLB8fc+zKs4l9x52Dh/2jYqNEAp8SoPmc5NDR3Cg4dagWSRKgOkZ1Lck8kLZZBGg+J9UrOHVm6V3r0i5YsODBtLu6kZ8eBKj3V+uHA4VjTwBDtHrYEhmlwHQR9o83BIxLYNmyZVPb29tlPF/IUzECmIMS92lDfNEE4OApZkQkids4Zw4ao6IfPqSnBgGsRJNkdZhnS727atRgSGkqAXpx4wMCxQRgu0y1CCh3NwLoxSs2D+b9pp4QDFl0ezRwgTkBTDExz1YVlxi9c8wfUognn8D8+fN3FD84+K0vAdK3/FoHCUAgPgEM0+prp4pLRtOJ0DsX/5lBCgYSgJNXbE70+I3eOQMfZoOKjF48PexUcSngzBn0EKOo6RDAnJZiM6PWbxjFdJ4T5MKLABqnatmpYmlht3g9T5BGYwIwlsXmh+dvGEWNH0IULTQBLBbjaaeKpaIRBQyzhq7eiAAC4gjQwgvMbSk2TfJ+w5kTV7eRkr4E4OTJs1GlcsbWSvo+ayiZBgSoN4+cC3zSI0DD5ORga1B9UAQQSJ0A9Q7BZqVnrygn9MqlXs2RIQiII0BGEz16Yo0mvYTIgRanJaQEAiBABGjLH8wnFmuvKDU0Ps15vjLmFBUldQlQz1JHR8edjY2N7iX89SFAZ7Ru274dB1f7cMJtEBBNgBy9F198sR32KjhZslcbN22yRo0aVYUzpYNz0yUkHDtdNBmzHK7xrKursyorK2Ompn705uZma8CAASsbGhrGq18alAAE9CJAveU7d+zo0+Q8p6Z/3EbnKaecMhJOnOm14UD54dihHngScB0+O5+3dDSiaNl6qh83QUAZAjqPRDgjLNby5cv3NzYHDRo0Ew6cMtVSiqBw7KRg1yNTcvqoJDRMQn9POvFEa+KkSfSV1afJGXLOZLPUEzmtb9++a2EUWakHwoBAogTITm3ZsuW2rVu3juNuo3r37r2Tet4ICOxUotVC68Th2GmtXj6Fc51AVyLXGXR/R/1Lw6XUgqX4MIRRKSIeCJhNoNA+vfbaay/v2rWrT1wihU4apQX7FJco4gcl8P8BXJAlmFP8N9sAAAAASUVORK5CYII=;" vertex="1" parent="1">
          <mxGeometry x="791.01" y="835" width="57.97" height="30" as="geometry" />
        </mxCell>
        <mxCell id="A-N_aQ1E-9cqWO8VtPDo-98" style="edgeStyle=orthogonalEdgeStyle;rounded=0;orthogonalLoop=1;jettySize=auto;html=1;" edge="1" parent="1" source="A-N_aQ1E-9cqWO8VtPDo-99">
          <mxGeometry relative="1" as="geometry">
            <mxPoint x="820.36" y="590" as="targetPoint" />
          </mxGeometry>
        </mxCell>
        <mxCell id="A-N_aQ1E-9cqWO8VtPDo-99" value="" style="shape=image;html=1;verticalAlign=top;verticalLabelPosition=bottom;labelBackgroundColor=#ffffff;imageAspect=0;aspect=fixed;image=https://cdn3.iconfinder.com/data/icons/brands-applications/512/Volkswagen_2-128.png" vertex="1" parent="1">
          <mxGeometry x="785" y="430" width="70" height="70" as="geometry" />
        </mxCell>
        <mxCell id="A-N_aQ1E-9cqWO8VtPDo-100" style="edgeStyle=orthogonalEdgeStyle;rounded=0;orthogonalLoop=1;jettySize=auto;html=1;" edge="1" parent="1" target="A-N_aQ1E-9cqWO8VtPDo-96">
          <mxGeometry relative="1" as="geometry">
            <mxPoint x="820.36" y="660" as="sourcePoint" />
          </mxGeometry>
        </mxCell>
        <mxCell id="A-N_aQ1E-9cqWO8VtPDo-101" value="Lead" style="text;strokeColor=none;fillColor=none;html=1;fontSize=24;fontStyle=1;verticalAlign=middle;align=center;" vertex="1" parent="1">
          <mxGeometry x="770" y="380" width="100" height="40" as="geometry" />
        </mxCell>
        <mxCell id="A-N_aQ1E-9cqWO8VtPDo-102" value="Form" style="html=1;whiteSpace=wrap;strokeColor=none;fillColor=#004C99;labelPosition=center;verticalLabelPosition=middle;verticalAlign=top;align=center;fontSize=12;outlineConnect=0;spacingTop=-6;fontColor=#FFFFFF;sketch=0;shape=mxgraph.sitemap.form;" vertex="1" parent="1">
          <mxGeometry x="758.64" y="600" width="120" height="70" as="geometry" />
        </mxCell>
        <mxCell id="A-N_aQ1E-9cqWO8VtPDo-103" value="" style="outlineConnect=0;dashed=0;verticalLabelPosition=bottom;verticalAlign=top;align=center;html=1;shape=mxgraph.aws3.dynamo_db;fillColor=#2E73B8;gradientColor=none;" vertex="1" parent="1">
          <mxGeometry x="620" y="970" width="72" height="81" as="geometry" />
        </mxCell>
        <mxCell id="A-N_aQ1E-9cqWO8VtPDo-107" value="" style="rounded=1;whiteSpace=wrap;html=1;fillColor=#fad7ac;strokeColor=#b46504;" vertex="1" parent="1">
          <mxGeometry x="828.64" y="950" width="661.36" height="290" as="geometry" />
        </mxCell>
        <mxCell id="A-N_aQ1E-9cqWO8VtPDo-106" value="" style="shape=image;verticalLabelPosition=bottom;labelBackgroundColor=default;verticalAlign=top;aspect=fixed;imageAspect=0;image=https://download.logo.wine/logo/Genesys_(company)/Genesys_(company)-Logo.wine.png;" vertex="1" parent="1">
          <mxGeometry x="848.98" y="920" width="240" height="160" as="geometry" />
        </mxCell>
        <mxCell id="A-N_aQ1E-9cqWO8VtPDo-118" style="edgeStyle=orthogonalEdgeStyle;rounded=0;orthogonalLoop=1;jettySize=auto;html=1;curved=1;" edge="1" parent="1" source="A-N_aQ1E-9cqWO8VtPDo-108" target="A-N_aQ1E-9cqWO8VtPDo-117">
          <mxGeometry relative="1" as="geometry" />
        </mxCell>
        <mxCell id="A-N_aQ1E-9cqWO8VtPDo-108" value="&lt;font style=&quot;font-size: 20px;&quot;&gt;Architect&lt;/font&gt;" style="text;html=1;strokeColor=none;fillColor=none;align=center;verticalAlign=middle;whiteSpace=wrap;rounded=0;" vertex="1" parent="1">
          <mxGeometry x="1110" y="1010" width="149" height="30" as="geometry" />
        </mxCell>
        <mxCell id="A-N_aQ1E-9cqWO8VtPDo-114" value="" style="sketch=0;pointerEvents=1;shadow=0;dashed=0;html=1;strokeColor=none;fillColor=#505050;labelPosition=center;verticalLabelPosition=bottom;verticalAlign=top;outlineConnect=0;align=center;shape=mxgraph.office.communications.exchange_active_sync;" vertex="1" parent="1">
          <mxGeometry x="1159.5" y="1080" width="50" height="50" as="geometry" />
        </mxCell>
        <mxCell id="A-N_aQ1E-9cqWO8VtPDo-116" style="edgeStyle=orthogonalEdgeStyle;rounded=0;orthogonalLoop=1;jettySize=auto;html=1;entryX=0;entryY=0.5;entryDx=0;entryDy=0;curved=1;" edge="1" parent="1" target="A-N_aQ1E-9cqWO8VtPDo-108">
          <mxGeometry relative="1" as="geometry">
            <mxPoint x="1003" y="1065" as="sourcePoint" />
            <Array as="points">
              <mxPoint x="1003" y="1025" />
            </Array>
          </mxGeometry>
        </mxCell>
        <mxCell id="A-N_aQ1E-9cqWO8VtPDo-122" style="edgeStyle=orthogonalEdgeStyle;rounded=0;orthogonalLoop=1;jettySize=auto;html=1;entryX=1;entryY=0.5;entryDx=0;entryDy=0;curved=1;" edge="1" parent="1" source="A-N_aQ1E-9cqWO8VtPDo-117" target="A-N_aQ1E-9cqWO8VtPDo-120">
          <mxGeometry relative="1" as="geometry">
            <Array as="points">
              <mxPoint x="1350" y="1195" />
            </Array>
          </mxGeometry>
        </mxCell>
        <mxCell id="A-N_aQ1E-9cqWO8VtPDo-117" value="" style="sketch=0;pointerEvents=1;shadow=0;dashed=0;html=1;strokeColor=none;fillColor=#505050;labelPosition=center;verticalLabelPosition=bottom;verticalAlign=top;outlineConnect=0;align=center;shape=mxgraph.office.users.call_center_agent;" vertex="1" parent="1">
          <mxGeometry x="1330" y="1067.5" width="46" height="55" as="geometry" />
        </mxCell>
        <mxCell id="A-N_aQ1E-9cqWO8VtPDo-123" style="edgeStyle=orthogonalEdgeStyle;rounded=0;orthogonalLoop=1;jettySize=auto;html=1;entryX=0.428;entryY=1.019;entryDx=0;entryDy=0;entryPerimeter=0;curved=1;" edge="1" parent="1" source="A-N_aQ1E-9cqWO8VtPDo-120">
          <mxGeometry relative="1" as="geometry">
            <mxPoint x="1002.8199999999999" y="1146.52" as="targetPoint" />
          </mxGeometry>
        </mxCell>
        <mxCell id="A-N_aQ1E-9cqWO8VtPDo-120" value="&lt;font style=&quot;font-size: 20px;&quot;&gt;Logica de reproceso&lt;/font&gt;" style="text;html=1;strokeColor=none;fillColor=none;align=center;verticalAlign=middle;whiteSpace=wrap;rounded=0;" vertex="1" parent="1">
          <mxGeometry x="1110" y="1180" width="149" height="30" as="geometry" />
        </mxCell>
        <mxCell id="A-N_aQ1E-9cqWO8VtPDo-124" value="" style="shape=image;verticalLabelPosition=bottom;labelBackgroundColor=default;verticalAlign=top;aspect=fixed;imageAspect=0;image=https://www.emite.com/wp-content/uploads/2020/08/Genesys-Cloud.png;" vertex="1" parent="1">
          <mxGeometry x="970" y="1075" width="60" height="60" as="geometry" />
        </mxCell>
      </root>
    </mxGraphModel>
  </diagram>
</mxfile>
